<svg xmlns="http://www.w3.org/2000/svg" xmlns:xlink="http://www.w3.org/1999/xlink" width="18.679" height="22.658" viewBox="0 0 18.679 22.658">
  <defs>
    <clipPath id="clip-path">
      <rect id="Rectangle_7453" data-name="Rectangle 7453" width="18.679" height="22.658" fill="none"/>
    </clipPath>
  </defs>
  <g id="Group_99524" data-name="Group 99524" transform="translate(0 0)">
    <g id="Group_99523" data-name="Group 99523" transform="translate(0 0)" clip-path="url(#clip-path)">
      <path id="Path_83288" data-name="Path 83288" d="M16.836,11.343v.426q0,4.8,0,9.595a2.33,2.33,0,0,1-.044.56.961.961,0,0,1-.979.735H2.571a1.016,1.016,0,0,1-1.034-.893.962.962,0,0,1-.005-.123q0-6.058,0-12.116a.945.945,0,0,1,.128-.5c.025-.042,0-.061-.025-.082-.082-.083-.167-.163-.249-.246A4.721,4.721,0,0,1,.77,7.878a5.2,5.2,0,0,1-.558-1.23,4.555,4.555,0,0,1-.194-1A5.464,5.464,0,0,1,.058,4.4,5.24,5.24,0,0,1,.405,3.16a4.949,4.949,0,0,1,.6-1.056A5.4,5.4,0,0,1,2.3.877,5.085,5.085,0,0,1,4.278.085,4.376,4.376,0,0,1,5.3,0c.233.012.464.042.7.071A4.569,4.569,0,0,1,7.18.406,5.156,5.156,0,0,1,9.3,2.036,5.013,5.013,0,0,1,10,3.26,3.917,3.917,0,0,1,10.227,4c.007.041.031.052.069.051.086,0,.173,0,.259,0h3.588a.173.173,0,0,1-.019.033,2.521,2.521,0,0,0-.642.8c-.011.021-.025.041-.034.063a.171.171,0,0,1-.187.109c-.915,0-1.831,0-2.747,0-.146,0-.144,0-.146.146a5.222,5.222,0,0,1-.189,1.363,5.383,5.383,0,0,1-.84,1.7,5.288,5.288,0,0,1-.856.91A4.876,4.876,0,0,1,7.4,9.845a5.09,5.09,0,0,1-1.177.393,6.794,6.794,0,0,1-.815.1,4.391,4.391,0,0,1-.589,0c-.17-.01-.338-.041-.506-.068a5.432,5.432,0,0,1-1.185-.349c-.158-.064-.306-.149-.459-.225l-.1-.049a.8.8,0,0,0-.028.131c0,.073,0,.147,0,.22V21.661h.239l8.741,0H15.6c.065,0,.13,0,.195,0,.036,0,.051-.012.051-.049,0-.071,0-.143,0-.214q0-4.015,0-8.03A1.1,1.1,0,0,1,16,12.748c.214-.338.4-.692.6-1.039.071-.123.144-.245.217-.368l.015,0m-6.662-6.2c-.007-.175,0-.352-.026-.525-.033-.23-.083-.458-.137-.684A4.641,4.641,0,0,0,9.7,3.06a4.753,4.753,0,0,0-.408-.715,5.165,5.165,0,0,0-.59-.689A5.236,5.236,0,0,0,7.566.8,4.172,4.172,0,0,0,6.715.44,4.8,4.8,0,0,0,5.032.2a7.5,7.5,0,0,0-.784.085,4.467,4.467,0,0,0-.969.28A5.059,5.059,0,0,0,.98,2.491,4.777,4.777,0,0,0,.452,3.585C.376,3.818.327,4.06.274,4.3a4.262,4.262,0,0,0-.085.87,4.676,4.676,0,0,0,.1.966A5.128,5.128,0,0,0,.632,7.226a4.742,4.742,0,0,0,.519.88A5.212,5.212,0,0,0,2.239,9.193a5.721,5.721,0,0,0,1.043.61,3.912,3.912,0,0,0,.558.186,4.891,4.891,0,0,0,.484.109,2.391,2.391,0,0,0,.269.015c.168.012.335.034.5.035.209,0,.419-.013.628-.024a2.955,2.955,0,0,0,.341-.034,4.49,4.49,0,0,0,.44-.1,4.345,4.345,0,0,0,.558-.184,5.615,5.615,0,0,0,.619-.325,6.59,6.59,0,0,0,.6-.4,4.5,4.5,0,0,0,.844-.867,4.963,4.963,0,0,0,1.045-3.065" transform="translate(0 0)" fill="#acc43d"/>
      <path id="Path_83289" data-name="Path 83289" d="M23.123,18.1l.76.437,1.286.743c.1.055.1.054.04.151q-.88,1.522-1.76,3.044-.664,1.148-1.334,2.293a.219.219,0,0,1-.1.085q-.672.29-1.348.572a.375.375,0,0,1-.536-.345c-.027-.265-.063-.528-.1-.792-.027-.223-.055-.446-.08-.67a.15.15,0,0,1,.023-.085q.971-1.679,1.943-3.358.571-.989,1.139-1.98c.019-.033.041-.064.062-.1" transform="translate(-9.432 -8.556)" fill="#acc43d"/>
      <path id="Path_83290" data-name="Path 83290" d="M27.656,13.923l-.931-.532-1.144-.651c-.062-.035-.067-.047-.03-.11q.834-1.436,1.667-2.873c.123-.211.25-.42.373-.631.008-.014.008-.049,0-.054a.808.808,0,0,0-.552-.2.541.541,0,0,0-.41.255c-.118.189-.23.382-.342.574q-.668,1.146-1.335,2.293a.322.322,0,0,1-.219.186.266.266,0,0,1-.3-.342,2.366,2.366,0,0,1,.162-.309q.77-1.331,1.541-2.661a1.1,1.1,0,0,1,1.231-.5,1.861,1.861,0,0,1,.364.168c.184.1.364.208.546.312.085.049.084.044.132-.042.1-.187.216-.37.322-.556s.195-.345.29-.52c.023-.043.047-.026.073-.011l.381.223c.239.139.478.279.718.417.033.019.031.035.015.062q-.32.547-.639,1.093c-.018.031-.033.052.007.08a.542.542,0,0,1,.147.761c-.221.374-.438.751-.655,1.127l-1.2,2.075-.185.32c-.009.016-.022.032-.036.052" transform="translate(-11.542 -3.638)" fill="#acc43d"/>
      <path id="Path_83291" data-name="Path 83291" d="M13.306,31.064c.146-.057.289-.117.435-.17a1.036,1.036,0,0,1,.741-.03.18.18,0,0,1,.07.311.21.21,0,0,1-.157.054,1.182,1.182,0,0,0-.76.118,3.128,3.128,0,0,1-.461.148.2.2,0,0,1-.264-.179,1.047,1.047,0,0,1-.013-.168c0-.1-.02-.13-.125-.144s-.232-.027-.348-.035c-.194-.013-.389-.02-.583-.032-.052,0-.07.017-.081.066-.053.216-.106.432-.169.645a1.1,1.1,0,0,1-.122.27.4.4,0,0,1-.666.075,1.076,1.076,0,0,1-.307-.616,1.032,1.032,0,0,1,0-.271.493.493,0,0,1,.285-.392,1.36,1.36,0,0,1,.5-.145c.193-.02.192-.02.236-.205a12.615,12.615,0,0,0,.248-1.351c.015-.124.024-.249.037-.392a.423.423,0,0,0-.111.039,4.607,4.607,0,0,0-.427.326,9.193,9.193,0,0,0-1.35,1.556q-.422.616-.841,1.233a.233.233,0,0,1-.158.123.182.182,0,0,1-.191-.082.189.189,0,0,1,0-.219c.117-.181.23-.367.354-.544.32-.455.63-.918.972-1.354A6.378,6.378,0,0,1,11.3,28.446a1.291,1.291,0,0,1,.562-.253.259.259,0,0,1,.334.273c0,.175-.017.35-.033.524a11.158,11.158,0,0,1-.268,1.491c-.012.051,0,.065.05.069.267.017.535.03.8.056a.959.959,0,0,1,.3.083.423.423,0,0,1,.242.319c0,.013.006.025.01.037s.005.006.014.017m-2.428.177a.692.692,0,0,0,.17.449c.051.067.093.066.118-.014.07-.226.132-.454.194-.682,0-.009-.028-.04-.039-.037-.1.024-.21.047-.311.081a.168.168,0,0,0-.131.2" transform="translate(-4.106 -13.323)" fill="#acc43d"/>
      <path id="Path_83292" data-name="Path 83292" d="M9.408,7.274c.053-.033.095-.062.139-.085s.055-.052.023-.1a3.006,3.006,0,0,0-.937-.865c-.031-.018-.064-.032-.105-.053,0,.066.011.121.012.176a.957.957,0,0,1-.375.823,1.431,1.431,0,0,1-.362.166c-.045.017-.063.028-.062.082.005.184,0,.368,0,.552,0,.054.021.071.066.071.062,0,.123,0,.2,0l-.43.494-.425-.475.011-.025c.063,0,.126,0,.189,0,.039,0,.05-.014.05-.049,0-.2,0-.394,0-.591,0-.036-.017-.045-.049-.054a.966.966,0,0,1-.727-.766,1.833,1.833,0,0,1-.014-.31c0-.022,0-.044,0-.083l-.132.073a2.688,2.688,0,0,0-.882.809c-.05.07-.047.08.026.124l.133.083c-.037.016-.061.03-.086.038l-.442.147c-.076.025-.09.015-.1-.062-.024-.134-.051-.268-.073-.4a.321.321,0,0,1,.009-.085.285.285,0,0,1,.089.018c.095.052.093.054.158-.031.1-.129.19-.264.3-.383a2.8,2.8,0,0,1,.949-.676.088.088,0,0,0,.064-.09.732.732,0,0,1,.234-.518,2.685,2.685,0,0,1,.23-.2.076.076,0,0,0,.024-.118,1,1,0,0,1-.139-.553.616.616,0,0,1,.23-.5.487.487,0,0,1,.31-.114.7.7,0,0,1,.371.068.588.588,0,0,1,.287.428.875.875,0,0,1-.1.6c-.009.015-.017.031-.027.045-.05.071-.05.071.017.132.086.079.175.155.257.238a.652.652,0,0,1,.2.476A.1.1,0,0,0,8.6,5.84a2.981,2.981,0,0,1,1.01.746,3.586,3.586,0,0,1,.24.321c.052.075.053.078.131.035a.875.875,0,0,1,.115-.045.694.694,0,0,1,0,.128c-.023.132-.052.263-.079.394-.007.035-.012.07-.065.051-.167-.059-.335-.116-.5-.174a.311.311,0,0,1-.038-.022M7.591,7.158a.762.762,0,0,0,.743-.824A.76.76,0,1,0,6.822,6.5a.759.759,0,0,0,.769.66" transform="translate(-2.387 -1.769)" fill="#acc43d"/>
      <path id="Path_83293" data-name="Path 83293" d="M9.46,14.136c.052.047.1.094.155.138a.776.776,0,0,1,.3.449.32.32,0,0,1-.178.371.8.8,0,0,1-.36.1c-.231,0-.462,0-.693-.018a.715.715,0,0,1-.248-.088.3.3,0,0,1-.164-.341.673.673,0,0,1,.207-.381c.064-.061.129-.122.2-.18a.061.061,0,0,0,.014-.093.811.811,0,0,1-.1-.631.514.514,0,0,1,.981-.062.755.755,0,0,1-.075.683c-.009.017-.022.032-.038.055" transform="translate(-3.906 -6.174)" fill="#acc43d"/>
      <path id="Path_83294" data-name="Path 83294" d="M13.822,12.039a.727.727,0,0,1-.137-.494.476.476,0,0,1,.388-.456.453.453,0,0,1,.52.338.7.7,0,0,1-.082.561.057.057,0,0,0,.013.086,1.079,1.079,0,0,1,.285.315.855.855,0,0,1,.064.176.272.272,0,0,1-.138.314.763.763,0,0,1-.326.094,2.249,2.249,0,0,1-.67-.022.522.522,0,0,1-.178-.074.309.309,0,0,1-.1-.432,1.034,1.034,0,0,1,.351-.389.112.112,0,0,0,.015-.017" transform="translate(-6.339 -5.239)" fill="#acc43d"/>
      <path id="Path_83295" data-name="Path 83295" d="M3.858,12.019a.811.811,0,0,1-.12-.456.484.484,0,0,1,.513-.477.439.439,0,0,1,.365.257.66.66,0,0,1-.051.633c-.031.052-.026.075.018.109a1.043,1.043,0,0,1,.29.3.42.42,0,0,1,.053.306.322.322,0,0,1-.106.162.708.708,0,0,1-.415.123,1.973,1.973,0,0,1-.529-.014.936.936,0,0,1-.272-.094.274.274,0,0,1-.119-.339.662.662,0,0,1,.184-.3c.063-.065.12-.136.188-.213" transform="translate(-1.641 -5.238)" fill="#acc43d"/>
      <path id="Path_83296" data-name="Path 83296" d="M8.8,8.289l.237.248.05.052c.06.061.069.057.126,0,.159-.166.321-.327.481-.49a.049.049,0,0,1,.082,0q.044.047.092.092c.033.031.028.054,0,.085-.207.206-.411.414-.618.621-.1.1-.1.1-.205,0-.123-.124-.246-.249-.371-.371-.041-.04-.048-.072,0-.111s.081-.076.128-.12" transform="translate(-4.082 -3.816)" fill="#acc43d"/>
      <rect id="Rectangle_7451" data-name="Rectangle 7451" width="6.235" height="1.115" transform="translate(3.939 11.382)" fill="#acc43d"/>
      <rect id="Rectangle_7452" data-name="Rectangle 7452" width="6.235" height="1.115" transform="translate(3.939 13.124)" fill="#acc43d"/>
    </g>
  </g>
</svg>
