<svg xmlns="http://www.w3.org/2000/svg" width="51.324" height="51.968" viewBox="0 0 51.324 51.968">
  <g id="Group_164372" data-name="Group 164372" transform="translate(-25.302 -94.906)">
    <g id="Group_164373" data-name="Group 164373" transform="translate(25.302 94.906)">
      <path id="Path_164750" data-name="Path 164750" d="M85.125,179.139H81.154l-.636-2.463-1.635-.642-2.107,1.376-3.1-3.2,1.386-1.906-.554-1.575-2.512-1v-3.989l2.488-.472.787-1.777-1.45-1.748,2.783-3.046,2.369,1.185,1.5-.735.685-2.571h3.9l.726,2.859,1.507.781,1.959-1.876,3.209,2.841-1.275,2.463.26,1.379,3.077.606-.255,4.8-2.745.27L91,172.208l1.688,1.774-3.124,3.437-2.241-1.465-1.728.674ZM82.111,177.9H84.1l.406-2.177,2.96-1.154,1.892,1.237L91,174l-1.411-1.484,1.013-2.976,2.48-.244.142-2.67-2.845-.56-.493-2.619,1.029-1.986-1.638-1.45-1.776,1.7-2.784-1.443-.625-2.465H82.107l-.586,2.2-2.554,1.251-2.081-1.04-1.428,1.563,1.252,1.509-1.359,3.07-2.12.4v2.13l2.256.9.956,2.716-1.157,1.591,1.668,1.724,1.787-1.167,2.815,1.106Z" transform="translate(-57.58 -137.53)" fill="#1a1818"/>
      <path id="Path_164751" data-name="Path 164751" d="M95.014,201.7a5.985,5.985,0,0,1-5.444-3.514.618.618,0,1,1,1.125-.509,4.738,4.738,0,0,0,8.786-.372.617.617,0,1,1,1.164.411,5.981,5.981,0,0,1-5.632,3.984" transform="translate(-69.69 -165.403)" fill="#1a1818"/>
      <path id="Path_164752" data-name="Path 164752" d="M99.8,178.79a.617.617,0,0,1-.59-.436,4.739,4.739,0,0,0-8.977-.23.617.617,0,1,1-1.16-.424,5.973,5.973,0,0,1,11.316.291.618.618,0,0,1-.59.8" transform="translate(-69.357 -149.428)" fill="#1a1818"/>
      <path id="Path_164753" data-name="Path 164753" d="M83.69,138.091h-.024a.617.617,0,0,1-.593-.641l.2-5.259,4.976-2.965a.617.617,0,1,1,.632,1.061l-4.4,2.622-.177,4.589a.617.617,0,0,1-.617.594" transform="translate(-65.236 -118.57)" fill="#1a1818"/>
      <path id="Path_164754" data-name="Path 164754" d="M100.715,137.231a.618.618,0,0,1-.574-.844l.376-.957-1.35-.806a.618.618,0,0,1,.634-1.06l2.249,1.344-.76,1.932a.619.619,0,0,1-.575.391" transform="translate(-76.154 -121.568)" fill="#1a1818"/>
      <path id="Path_164755" data-name="Path 164755" d="M119.465,138.091a.617.617,0,0,1-.617-.594l-.177-4.589-4.4-2.622a.617.617,0,1,1,.632-1.061l4.975,2.965.2,5.259a.617.617,0,0,1-.593.641h-.024" transform="translate(-86.596 -118.57)" fill="#1a1818"/>
      <path id="Path_164756" data-name="Path 164756" d="M109,137.23a.617.617,0,0,1-.575-.392l-.76-1.931,2.249-1.344a.618.618,0,0,1,.634,1.06l-1.35.806.376.957a.618.618,0,0,1-.574.843" transform="translate(-82.234 -121.567)" fill="#1a1818"/>
      <path id="Path_164757" data-name="Path 164757" d="M117.871,147.462a.618.618,0,0,1-.617-.617v-.132l-2.076.179a.617.617,0,1,1-.106-1.23l3.417-.295v1.478a.618.618,0,0,1-.617.617" transform="translate(-86.966 -129.787)" fill="#1a1818"/>
      <path id="Path_164758" data-name="Path 164758" d="M99.036,106.5l-1.4,0c-2.024-.194-2.975-2.362-3.24-3.1-.883-.67-.874-2.413-.848-2.97l.029-.587h.376c.019-.473.048-1.177.084-1.921.06-1.24,1.547-2.222,2.784-2.828a1.852,1.852,0,0,1,.922-.186c.38.022,1.019.06,1.42.089.224.016.692.049,2.615,1.687a1.753,1.753,0,0,1,.616,1.336v2.069l.262.281.028.188a2.776,2.776,0,0,1-.875,2.788,4.659,4.659,0,0,1-2.668,3.115Zm-1.311-1.235H98.8a3.469,3.469,0,0,0,1.861-2.427l.065-.3.275-.129c.052-.029.6-.361.484-1.483l-.328-.351V98.021a.52.52,0,0,0-.182-.4,8.834,8.834,0,0,0-1.923-1.4c-.4-.028-1.013-.065-1.382-.087a.6.6,0,0,0-.307.062c-1.211.593-2.072,1.325-2.094,1.779-.064,1.313-.106,2.5-.106,2.5l-.022.6h-.357c.043.693.208,1.278.364,1.344l.27.115.082.281c.006.022.69,2.275,2.225,2.447m1.347-9.036h0" transform="translate(-72.471 -94.906)" fill="#1a1818"/>
      <path id="Path_164759" data-name="Path 164759" d="M141.461,239.243h-.024a.617.617,0,0,1-.593-.641l.2-5.259,4.975-2.965a.617.617,0,1,1,.632,1.061l-4.4,2.622-.177,4.589a.617.617,0,0,1-.617.594" transform="translate(-105.171 -188.492)" fill="#1a1818"/>
      <path id="Path_164760" data-name="Path 164760" d="M158.485,238.383a.618.618,0,0,1-.574-.843l.376-.957-1.35-.806a.618.618,0,0,1,.634-1.06l2.249,1.344-.76,1.931a.617.617,0,0,1-.575.392" transform="translate(-116.087 -191.489)" fill="#1a1818"/>
      <path id="Path_164761" data-name="Path 164761" d="M177.235,239.243a.617.617,0,0,1-.617-.594l-.177-4.589-4.4-2.622a.617.617,0,1,1,.632-1.061l4.976,2.965.2,5.259a.617.617,0,0,1-.593.641h-.024" transform="translate(-126.529 -188.492)" fill="#1a1818"/>
      <path id="Path_164762" data-name="Path 164762" d="M166.767,238.383a.618.618,0,0,1-.575-.391l-.76-1.932,2.249-1.344a.618.618,0,0,1,.634,1.06l-1.35.806.376.957a.618.618,0,0,1-.574.844" transform="translate(-122.168 -191.489)" fill="#1a1818"/>
      <path id="Path_164763" data-name="Path 164763" d="M175.642,248.614a.618.618,0,0,1-.617-.617v-.132l-2.075.179a.617.617,0,1,1-.106-1.23l3.416-.295V248a.618.618,0,0,1-.618.617" transform="translate(-126.9 -199.709)" fill="#1a1818"/>
      <path id="Path_164764" data-name="Path 164764" d="M156.806,207.653l-1.4,0c-2.023-.194-2.974-2.362-3.24-3.1-.884-.67-.874-2.413-.848-2.971l.029-.587h.376c.019-.473.048-1.177.084-1.921.06-1.24,1.547-2.222,2.784-2.828a1.846,1.846,0,0,1,.922-.186c.38.022,1.019.06,1.42.089.224.016.692.049,2.615,1.687a1.752,1.752,0,0,1,.616,1.336v2.069l.262.281.029.188a2.776,2.776,0,0,1-.875,2.788,4.66,4.66,0,0,1-2.669,3.115Zm-1.311-1.235h1.075a3.47,3.47,0,0,0,1.861-2.428l.065-.3.275-.129c.052-.029.6-.361.484-1.483l-.328-.351v-2.556a.519.519,0,0,0-.182-.4,8.806,8.806,0,0,0-1.924-1.4c-.4-.028-1.014-.065-1.382-.087a.6.6,0,0,0-.307.062c-1.211.593-2.072,1.325-2.094,1.779-.064,1.313-.106,2.5-.106,2.5l-.022.6h-.357c.043.693.208,1.278.364,1.344l.27.115.082.281c.006.022.69,2.275,2.224,2.447m1.347-9.036h0" transform="translate(-112.404 -164.828)" fill="#1a1818"/>
      <path id="Path_164765" data-name="Path 164765" d="M25.92,243.183H25.9a.617.617,0,0,1-.593-.641l.2-5.259,4.976-2.965a.617.617,0,1,1,.632,1.061L26.713,238l-.177,4.589a.617.617,0,0,1-.617.594" transform="translate(-25.302 -191.215)" fill="#1a1818"/>
      <path id="Path_164766" data-name="Path 164766" d="M42.945,242.322a.618.618,0,0,1-.574-.843l.376-.957-1.35-.806a.618.618,0,0,1,.634-1.06L44.279,240l-.76,1.931a.617.617,0,0,1-.575.392" transform="translate(-36.22 -194.213)" fill="#1a1818"/>
      <path id="Path_164767" data-name="Path 164767" d="M61.695,243.183a.617.617,0,0,1-.617-.594L60.9,238l-4.4-2.622a.617.617,0,1,1,.632-1.061l4.975,2.965.2,5.259a.617.617,0,0,1-.593.641h-.024" transform="translate(-46.661 -191.215)" fill="#1a1818"/>
      <path id="Path_164768" data-name="Path 164768" d="M51.227,242.322a.617.617,0,0,1-.575-.392L49.892,240l2.249-1.344a.618.618,0,0,1,.634,1.06l-1.35.806.376.957a.618.618,0,0,1-.574.844" transform="translate(-42.3 -194.212)" fill="#1a1818"/>
      <path id="Path_164769" data-name="Path 164769" d="M60.1,252.553a.618.618,0,0,1-.617-.617V251.8l-2.075.179a.617.617,0,1,1-.106-1.23l3.416-.295v1.478a.618.618,0,0,1-.617.617" transform="translate(-47.033 -202.432)" fill="#1a1818"/>
      <path id="Path_164770" data-name="Path 164770" d="M41.266,211.592l-1.4,0c-2.024-.194-2.974-2.362-3.24-3.1-.883-.67-.874-2.413-.847-2.97l.029-.587h.376c.019-.473.048-1.177.084-1.921.06-1.239,1.547-2.222,2.784-2.828a1.843,1.843,0,0,1,.923-.186c.379.022,1.019.06,1.419.089.225.016.693.049,2.615,1.687a1.752,1.752,0,0,1,.616,1.336v2.07l.262.28.029.189a2.777,2.777,0,0,1-.875,2.788,4.659,4.659,0,0,1-2.669,3.115Zm-1.311-1.235H41.03a3.47,3.47,0,0,0,1.861-2.427l.065-.3.275-.13c.052-.029.6-.361.484-1.483l-.328-.351v-2.556a.519.519,0,0,0-.182-.4,8.832,8.832,0,0,0-1.923-1.4c-.4-.028-1.013-.065-1.382-.086a.608.608,0,0,0-.307.062c-1.211.593-2.072,1.325-2.093,1.779-.064,1.313-.106,2.5-.106,2.5l-.021.6h-.357c.043.693.208,1.278.364,1.344l.27.115.082.281c.006.022.69,2.275,2.224,2.447" transform="translate(-32.537 -167.551)" fill="#1a1818"/>
      <path id="Path_164771" data-name="Path 164771" d="M88.6,252.149a20.685,20.685,0,0,1-9.1-2.083.926.926,0,0,1,.809-1.667,19.078,19.078,0,0,0,16.179.191.926.926,0,1,1,.769,1.685,20.714,20.714,0,0,1-8.655,1.873" transform="translate(-62.405 -200.945)" fill="#1a1818"/>
      <path id="Path_164772" data-name="Path 164772" d="M148.236,151.454a.926.926,0,0,1-.925-.9,19.034,19.034,0,0,0-10.4-16.331.926.926,0,0,1,.839-1.652A20.886,20.886,0,0,1,149.162,150.5a.926.926,0,0,1-.9.956h-.031" transform="translate(-102.099 -120.875)" fill="#1a1818"/>
      <path id="Path_164773" data-name="Path 164773" d="M43.439,152.814a.926.926,0,0,1-.926-.926,20.9,20.9,0,0,1,10.819-18.3.926.926,0,1,1,.894,1.622,19.047,19.047,0,0,0-9.861,16.678.926.926,0,0,1-.926.926" transform="translate(-37.199 -121.565)" fill="#1a1818"/>
    </g>
  </g>
</svg>
