<svg id="Group_164369" data-name="Group 164369" xmlns="http://www.w3.org/2000/svg" width="47.979" height="49.095" viewBox="0 0 47.979 49.095">
  <g id="Group_164370" data-name="Group 164370" transform="translate(0)">
    <path id="Path_164737" data-name="Path 164737" d="M22.409,64.258H38.721a.88.88,0,1,0,0-1.76H22.409a.88.88,0,1,0,0,1.76" transform="translate(-17.739 -51.497)" fill="#1a1818"/>
    <path id="Path_164738" data-name="Path 164738" d="M22.409,81.267H38.721a.88.88,0,0,0,0-1.76H22.409a.88.88,0,0,0,0,1.76" transform="translate(-17.739 -65.513)" fill="#1a1818"/>
    <path id="Path_164739" data-name="Path 164739" d="M41.176,98.278a.88.88,0,0,0,0-1.76h-21.3a.88.88,0,0,0,0,1.76Z" transform="translate(-15.651 -79.529)" fill="#1a1818"/>
    <path id="Path_164740" data-name="Path 164740" d="M33.987,131.4q.562-.577,1.14-1.137a.439.439,0,0,0,.057-.654c-.224-.313-.444-.63-.636-.963a.526.526,0,0,1-.024-.4c.17-.462.358-.919.567-1.364a.585.585,0,0,1,.326-.284c.368-.106.748-.169,1.125-.244a.441.441,0,0,0,.418-.472c0-.551.023-1.1-.017-1.651a.6.6,0,0,0-.334-.422,5.179,5.179,0,0,0-1.122-.243c-.255-.029-.342-.162-.421-.371-.164-.435-.364-.857-.522-1.294a.576.576,0,0,1,.013-.426,10.9,10.9,0,0,1,.632-.965.44.44,0,0,0-.061-.654c-.368-.352-.73-.711-1.08-1.081a.479.479,0,0,0-.721-.078,7.953,7.953,0,0,1-.9.588.645.645,0,0,1-.469.035c-.463-.165-.917-.361-1.365-.563a.473.473,0,0,1-.246-.255,10.144,10.144,0,0,1-.242-1.125c-.048-.313-.187-.463-.517-.443s-.633,0-.95,0c-1.173.021-1.034-.2-1.246,1.044-.088.517-.256.822-.8.941-.418.091-.823.5-1.2.453-.4-.045-.766-.447-1.141-.7a.451.451,0,0,0-.656.078c-.352.368-.71.731-1.081,1.079a.48.48,0,0,0-.061.723c.193.267.36.553.556.818a.476.476,0,0,1,.046.589,6.161,6.161,0,0,0-.508,1.21.471.471,0,0,1-.479.4c-.339.039-.669.146-1.007.2a.41.41,0,0,0-.384.482c.012.537.014,1.074,0,1.611a.426.426,0,0,0,.424.493c.338.052.673.13,1.009.192a.476.476,0,0,1,.44.389,6.878,6.878,0,0,0,.524,1.247.427.427,0,0,1-.039.519c-.22.3-.413.616-.622.923a.436.436,0,0,0,.066.625c.383.376.765.754,1.138,1.14a.425.425,0,0,0,.622.061c.328-.226.654-.458,1-.657a.523.523,0,0,1,.394-.015c.448.167.883.372,1.33.541a.466.466,0,0,1,.354.435c.041.366.153.723.219,1.087a.4.4,0,0,0,.462.366c.537,0,1.074-.006,1.611,0a.453.453,0,0,0,.5-.438c.071-.377.139-.756.242-1.125a.53.53,0,0,1,.262-.3c.459-.212.932-.4,1.4-.591.063-.026.123-.059.187-.09.088.055.17.1.25.156.309.205.622.406.924.62a.421.421,0,0,0,.62-.052m-2.154-1.376a16.02,16.02,0,0,1-1.7.7.556.556,0,0,0-.445.462c-.074.418-.165.833-.26,1.3-.351,0-.706.017-1.058-.012-.086-.007-.2-.151-.23-.253-.1-.356-.13-.732-.249-1.079a.777.777,0,0,0-.388-.394c-.571-.26-1.168-.462-1.735-.73a.623.623,0,0,0-.719.026c-.332.242-.683.458-1.095.732-.227-.247-.474-.485-.679-.755a.422.422,0,0,1,0-.377c.184-.321.429-.608.6-.935a.711.711,0,0,0,.008-.517c-.23-.612-.5-1.208-.74-1.818a.568.568,0,0,0-.477-.437c-.419-.062-.832-.164-1.3-.259,0-.345-.017-.686.011-1.024a.356.356,0,0,1,.232-.252,1.624,1.624,0,0,0,1.807-1.513,2.688,2.688,0,0,1,.454-.914.479.479,0,0,0-.008-.6,7.56,7.56,0,0,1-.587-.895.445.445,0,0,1,.032-.4c.639-.739.664-.758,1.444-.179a.951.951,0,0,0,1.277.07,4.93,4.93,0,0,1,1.369-.534.672.672,0,0,0,.55-.575c.051-.3.142-.59.167-.889.022-.266.124-.36.386-.345.3.018.6,0,.917,0,.093.451.2.862.257,1.281.04.3.215.4.464.5.6.23,1.18.5,1.78.724a.791.791,0,0,0,.553-.013,3.55,3.55,0,0,0,.789-.519c.278-.237.461-.177.68.079a4.809,4.809,0,0,0,.594.508c-.29.435-.517.793-.762,1.139a.606.606,0,0,0-.02.684c.268.581.477,1.19.74,1.774a.716.716,0,0,0,.375.358c.349.116.724.149,1.077.256a.447.447,0,0,1,.27.3,8.639,8.639,0,0,1,.013.984c-.423.089-.83.191-1.244.257a.589.589,0,0,0-.523.48,12.4,12.4,0,0,1-.689,1.664.645.645,0,0,0,.024.756c.24.333.458.682.693,1.035l-.888.871c-.347-.23-.7-.455-1.049-.7a.629.629,0,0,0-.721-.017" transform="translate(-17.036 -96.353)" fill="#1a1818"/>
    <path id="Path_164741" data-name="Path 164741" d="M101.573,191.57c.317-.133.355-.387.237-.686-.111-.281-.214-.564-.321-.846-.231-.611-.282-.657-.9-.511-.5.118-.925.137-1.205-.393a.964.964,0,0,0-.318-.32.536.536,0,0,1-.2-.672c.3-1.185.31-.986-.7-1.443-.977-.443-.824-.571-1.49.39a.768.768,0,0,1-.683.36,1.469,1.469,0,0,1-1.7-.964c-.044-.11-.349-.2-.5-.162a7.687,7.687,0,0,0-1.006.357c-.56.207-.591.247-.456.847a1.152,1.152,0,0,1-.376,1.275,1.209,1.209,0,0,1-1.463.363c-.4-.173-.671-.016-.813.415a8.44,8.44,0,0,1-.421.938.445.445,0,0,0,.177.636c.139.089.258.211.4.288.334.18.383.411.4.808a1.432,1.432,0,0,1-.933,1.594.52.52,0,0,0-.208.458,7.173,7.173,0,0,0,.494,1.3.636.636,0,0,0,.475.26,4.932,4.932,0,0,0,.916-.138,2.017,2.017,0,0,1,.345.214c.582.51,1.03,1.057.617,1.908-.125.258.033.46.313.57.357.14.7.307,1.047.48a.457.457,0,0,0,.665-.193,3.4,3.4,0,0,0,.231-.34c.2-.4.513-.415.931-.455a1.3,1.3,0,0,1,1.473.9c.124.284.361.312.624.217.335-.121.661-.271,1-.372a.537.537,0,0,0,.425-.77,1.139,1.139,0,0,1,.337-1.332,1.356,1.356,0,0,1,1.585-.347c.327.124.519.01.641-.307.1-.268.243-.522.361-.785.3-.664.309-.683-.31-1.089a1.054,1.054,0,0,1-.546-1.04,1.318,1.318,0,0,1,.856-1.417m-1.327,2.607c.1.051.174.138.271.186a.509.509,0,0,1,.24.842c-.121.2-.234.308-.447.217a1.119,1.119,0,0,0-1.6.459,1.14,1.14,0,0,1-.458.409.794.794,0,0,0-.414,1.092,3.3,3.3,0,0,1,.074.58.615.615,0,0,1-.1.076c-.681.284-.7.292-1.063-.344-.214-.37-.421-.58-.913-.47a3.387,3.387,0,0,1-1.142-.061.612.612,0,0,0-.729.3,6.8,6.8,0,0,1-.517.71l-.785-.357a6.074,6.074,0,0,0,.2-.928.884.884,0,0,0-.175-.569c-.318-.393-.69-.742-1.025-1.122-.158-.18-.3-.314-.561-.209a1.016,1.016,0,0,1-.243.038c-.785.108-.785.107-.983-.713a6.6,6.6,0,0,0,.784-.507.822.822,0,0,0,.271-.493,15.615,15.615,0,0,0,.066-1.6.724.724,0,0,0-.178-.425,1.423,1.423,0,0,0-.428-.317.478.478,0,0,1-.222-.786c.131-.219.216-.353.494-.236a1.093,1.093,0,0,0,1.537-.438,1.805,1.805,0,0,1,.649-.561.625.625,0,0,0,.3-.769c-.049-.255-.1-.511-.141-.751.034-.039.047-.067.069-.078.709-.346.734-.359,1.117.325a.819.819,0,0,0,.968.465,3.447,3.447,0,0,1,1.144.052.554.554,0,0,0,.651-.284c.157-.241.337-.466.527-.725l.837.375c-.5.867-.149,1.426.495,2.084.542.554.959.9,1.725.612.074-.028.259.1.319.2a3.246,3.246,0,0,1,.218.577,5.975,5.975,0,0,0-.812.526.9.9,0,0,0-.251.534c-.049.447-.021.9-.068,1.351-.032.315-.014.572.294.737" transform="translate(-73.405 -153.521)" fill="#1a1818"/>
    <path id="Path_164742" data-name="Path 164742" d="M48.179,140.359a3.962,3.962,0,0,0-4.069,3.974,4.015,4.015,0,1,0,4.069-3.974m-.074,7.3a3.3,3.3,0,1,1,3.308-3.288,3.306,3.306,0,0,1-3.308,3.288" transform="translate(-36.345 -115.653)" fill="#1a1818"/>
    <path id="Path_164743" data-name="Path 164743" d="M109.938,203.86A3.268,3.268,0,0,0,110,210.4a3.268,3.268,0,1,0-.062-6.536M110,209.7a2.556,2.556,0,1,1,2.559-2.577A2.557,2.557,0,0,1,110,209.7" transform="translate(-87.927 -167.977)" fill="#1a1818"/>
    <path id="Path_164744" data-name="Path 164744" d="M39.027,26.054c-.125,0-.249,0-.372.009v-16L24.97,0H4.843A5.046,5.046,0,0,0,0,5.216V43.879A5.046,5.046,0,0,0,4.843,49.1H33.81a5.04,5.04,0,0,0,4.843-5.148c.124.005.249.01.374.01a8.951,8.951,0,0,0,0-17.9M25.35,2.9l9.2,6.769-6.077-.127h-.022a3.107,3.107,0,0,1-3.1-3.1ZM36.542,43.879a2.939,2.939,0,0,1-2.732,3.1H4.843a2.939,2.939,0,0,1-2.732-3.1V5.216a2.939,2.939,0,0,1,2.732-3.1H23.238V6.439a5.222,5.222,0,0,0,5.2,5.216l8.1.17V26.408a8.949,8.949,0,0,0,.035,17.206,1.059,1.059,0,0,0-.035.266m2.484-2.035a6.839,6.839,0,1,1,6.839-6.839,6.847,6.847,0,0,1-6.839,6.839" transform="translate(0.001)" fill="#1a1818"/>
    <path id="Path_164745" data-name="Path 164745" d="M202.777,174.954h-1.522v3.45H197.8v1.522h3.45v3.45h1.522v-3.45h3.45V178.4h-3.45Z" transform="translate(-162.988 -144.16)" fill="#1a1818"/>
  </g>
</svg>
