<svg id="Group_164366" data-name="Group 164366" xmlns="http://www.w3.org/2000/svg" width="39.577" height="50.267" viewBox="0 0 39.577 50.267">
  <g id="Group_164367" data-name="Group 164367">
    <path id="Path_164731" data-name="Path 164731" d="M25.566,0H4.96A5.166,5.166,0,0,0,0,5.341V44.926a5.166,5.166,0,0,0,4.96,5.34H34.618a5.167,5.167,0,0,0,4.96-5.34V10.305Zm.389,2.971L35.378,9.9l-6.222-.13h-.023a3.182,3.182,0,0,1-3.178-3.178ZM34.618,48.1H4.96a3.009,3.009,0,0,1-2.8-3.178V5.341a3.009,3.009,0,0,1,2.8-3.178H23.793v4.43a5.347,5.347,0,0,0,5.328,5.341l8.293.174V44.926a3.009,3.009,0,0,1-2.8,3.178" fill="#1a1818"/>
    <path id="Path_164732" data-name="Path 164732" d="M22.43,64.3h16.7a.9.9,0,1,0,0-1.8H22.43a.9.9,0,1,0,0,1.8" transform="translate(-17.649 -51.236)" fill="#1a1818"/>
    <path id="Path_164733" data-name="Path 164733" d="M22.43,81.31h16.7a.9.9,0,1,0,0-1.8H22.43a.9.9,0,1,0,0,1.8" transform="translate(-17.649 -65.18)" fill="#1a1818"/>
    <path id="Path_164734" data-name="Path 164734" d="M42.606,97.42a.9.9,0,0,0-.9-.9H19.9a.9.9,0,1,0,0,1.8H41.705a.9.9,0,0,0,.9-.9" transform="translate(-15.572 -79.125)" fill="#1a1818"/>
    <path id="Path_164735" data-name="Path 164735" d="M58.941,210.118H52.083a2.733,2.733,0,0,0-2.209,1.143,5.408,5.408,0,0,1-8.8-.059,2.561,2.561,0,0,0-2.094-1.084H32.791a1.015,1.015,0,0,0-1.015,1.015v4.532a2.084,2.084,0,0,0,2.084,2.084H57.816a2.084,2.084,0,0,0,2.084-2.084v-4.588a.959.959,0,0,0-.959-.959m-6.5,4.471a1.129,1.129,0,1,1,1.129-1.129,1.129,1.129,0,0,1-1.129,1.129m4.114,0a1.129,1.129,0,1,1,1.129-1.129,1.129,1.129,0,0,1-1.129,1.129" transform="translate(-26.05 -172.252)" fill="#1a1818"/>
    <path id="Path_164736" data-name="Path 164736" d="M92.067,150.249v6.869H89.759l3.571,3.888a.1.1,0,0,0,.149,0l3.505-3.887H94.677v-6.869Z" transform="translate(-73.583 -123.172)" fill="#1a1818"/>
  </g>
</svg>
