<svg xmlns="http://www.w3.org/2000/svg" xmlns:xlink="http://www.w3.org/1999/xlink" width="1000.092" height="530.092" viewBox="0 0 1000.092 530.092">
  <defs>
    <clipPath id="clip-path">
      <rect id="Rectangle_64089" data-name="Rectangle 64089" width="530.092" height="1000.092" transform="translate(0 -0.002)" fill="none" stroke="#fafafa" stroke-width="1"/>
    </clipPath>
  </defs>
  <g id="Group_153839" data-name="Group 153839" transform="translate(1000.09) rotate(90)" opacity="0.78">
    <path id="Path_161265" data-name="Path 161265" d="M44.917,352.008V572.054L4.909,612.062v150.7" fill="none" stroke="#ededed" stroke-miterlimit="10" stroke-width="1"/>
    <path id="Path_161266" data-name="Path 161266" d="M18.689,700.969V615.618L58.253,576.5V289.328" fill="none" stroke="#fafafa" stroke-miterlimit="10" stroke-width="1"/>
    <path id="Path_161267" data-name="Path 161267" d="M64.921,315.556v61.791l21.338,21.782v139.14l18.893,18.893" fill="none" stroke="#fafafa" stroke-miterlimit="10" stroke-width="1"/>
    <line id="Line_1439" data-name="Line 1439" x2="45.565" y2="45.565" transform="translate(82.703 369.345)" fill="none" stroke="#ededed" stroke-miterlimit="10" stroke-width="1"/>
    <path id="Path_161268" data-name="Path 161268" d="M105.485,412.465V530.712l21.171,21.171" fill="none" stroke="#fafafa" stroke-miterlimit="10" stroke-width="1"/>
    <g id="Group_153838" data-name="Group 153838">
      <g id="Group_153837" data-name="Group 153837" clip-path="url(#clip-path)">
        <path id="Path_161269" data-name="Path 161269" d="M87.593,222.2V354.675s59.123,58.679,58.679,58.679,0,84.462,0,84.462" fill="none" stroke="#fafafa" stroke-miterlimit="10" stroke-width="1"/>
        <path id="Path_161270" data-name="Path 161270" d="M98.261,259.544v67.57l19.116,19.115" fill="none" stroke="#fafafa" stroke-miterlimit="10" stroke-width="1"/>
        <path id="Path_161271" data-name="Path 161271" d="M126.656,356.009l36.535,36.535V565.83l25.992,25.992v90.921" fill="none" stroke="#fafafa" stroke-miterlimit="10" stroke-width="1"/>
        <path id="Path_161272" data-name="Path 161272" d="M128.268,438.248v76.016L146.4,534.519l-.38,188.519" fill="none" stroke="#fafafa" stroke-miterlimit="10" stroke-width="1"/>
        <path id="Path_161273" data-name="Path 161273" d="M124.489,580.277v56.678L98.706,662.739v29.783" fill="none" stroke="#fafafa" stroke-miterlimit="10" stroke-width="1"/>
        <path id="Path_161274" data-name="Path 161274" d="M105.152,574.721v48.9l-18.716,17.9,1.6,140.355L43.584,826.328V920.9" fill="none" stroke="#fafafa" stroke-miterlimit="10" stroke-width="1"/>
        <path id="Path_161275" data-name="Path 161275" d="M76.479,611.617,58.253,629.843V771.206l-34.9,34.9v62.457" fill="none" stroke="#fafafa" stroke-miterlimit="10" stroke-width="1"/>
        <path id="Path_161276" data-name="Path 161276" d="M113.82,720.084v70.681L62.7,843.221" fill="none" stroke="#fafafa" stroke-miterlimit="10" stroke-width="1"/>
        <path id="Path_161277" data-name="Path 161277" d="M98.706,749.868l2.223,36.452L74.368,811.659" fill="none" stroke="#fafafa" stroke-miterlimit="10" stroke-width="1"/>
        <path id="Path_161278" data-name="Path 161278" d="M116.355,663.706v32.328l13.692,12.678.507,117.9" fill="none" stroke="#fafafa" stroke-miterlimit="10" stroke-width="1"/>
        <path id="Path_161279" data-name="Path 161279" d="M145.387,815.078V759.3l29.539-28.4-.76-127.285-12.171-11.284" fill="none" stroke="#fafafa" stroke-miterlimit="10" stroke-width="1"/>
        <line id="Line_1440" data-name="Line 1440" y2="73.95" transform="translate(160.618 618.573)" fill="none" stroke="#fafafa" stroke-miterlimit="10" stroke-width="1"/>
        <line id="Line_1441" data-name="Line 1441" y2="129.218" transform="translate(62.699 861.175)" fill="none" stroke="#fafafa" stroke-miterlimit="10" stroke-width="1"/>
        <line id="Line_1442" data-name="Line 1442" y2="147.438" transform="translate(76.479 840.421)" fill="none" stroke="#fafafa" stroke-miterlimit="10" stroke-width="1"/>
        <line id="Line_1443" data-name="Line 1443" y2="129.741" transform="translate(103.232 859.878)" fill="none" stroke="#fafafa" stroke-miterlimit="10" stroke-width="1"/>
        <line id="Line_1444" data-name="Line 1444" y2="76.718" transform="translate(130.554 918.464)" fill="none" stroke="#fafafa" stroke-miterlimit="10" stroke-width="1"/>
        <path id="Path_161280" data-name="Path 161280" d="M154.468,990.453V871.768L276.4,749.868l-.216-191.784-50.8-49.29" fill="none" stroke="#fafafa" stroke-miterlimit="10" stroke-width="1"/>
        <path id="Path_161281" data-name="Path 161281" d="M202.029,502.957l61.613,62.477.216,180.947L154.468,853.609" fill="none" stroke="#fafafa" stroke-miterlimit="10" stroke-width="1"/>
        <path id="Path_161282" data-name="Path 161282" d="M168.52,902.25l-1.081-25.942L288.5,756.758V582.945" fill="none" stroke="#fafafa" stroke-miterlimit="10" stroke-width="1"/>
        <path id="Path_161283" data-name="Path 161283" d="M156.2,360.009l28.753,29.45V524.575l24.212,23.564" fill="none" stroke="#fafafa" stroke-miterlimit="10" stroke-width="1"/>
        <path id="Path_161284" data-name="Path 161284" d="M136.309,246.994l64.423,63.558.865,136.2L303.42,548.139l-.649,213.807-121.279,120.2v83.663" fill="none" stroke="#fafafa" stroke-miterlimit="10" stroke-width="1"/>
        <path id="Path_161285" data-name="Path 161285" d="M395.419,721.443,331.433,656.7V521.455L230.059,421.586l.25-214.291L351.256,87.1,350.5,8.561" fill="none" stroke="#fafafa" stroke-miterlimit="10" stroke-width="1"/>
        <path id="Path_161286" data-name="Path 161286" d="M364.054,67.027V92.621L242.606,212.313v178.66" fill="none" stroke="#fafafa" stroke-miterlimit="10" stroke-width="1"/>
        <path id="Path_161287" data-name="Path 161287" d="M307.846,461.985l-51.691-51.691.251-191.959,121.7-120.7L376.6,8.561" fill="none" stroke="#fafafa" stroke-miterlimit="10" stroke-width="1"/>
        <line id="Line_1445" data-name="Line 1445" y2="37.89" transform="translate(402.487 9.816)" fill="none" stroke="#fafafa" stroke-miterlimit="10" stroke-width="1"/>
        <path id="Path_161288" data-name="Path 161288" d="M377.1,115.205,269.455,223.354V404.523l62.229,62.732" fill="none" stroke="#fafafa" stroke-miterlimit="10" stroke-width="1"/>
        <path id="Path_161289" data-name="Path 161289" d="M324.658,422.088l21.831,22.332v134.5L377.1,609.781" fill="none" stroke="#fafafa" stroke-miterlimit="10" stroke-width="1"/>
        <path id="Path_161290" data-name="Path 161290" d="M404.955,613.8,368.32,577.663l1.756-173.14-27.351-25.845V289.85" transform="translate(0 -3.513)" fill="none" stroke="#fafafa" stroke-miterlimit="10" stroke-width="1"/>
        <path id="Path_161291" data-name="Path 161291" d="M372.334,377.674,357.529,365V235.273l28.857-26.222V157.11" transform="translate(0 -3.513)" fill="none" stroke="#fafafa" stroke-miterlimit="10" stroke-width="1"/>
        <path id="Path_161292" data-name="Path 161292" d="M402.7,141.552V260.491l12.295,11.292v35.38" fill="none" stroke="#fafafa" stroke-miterlimit="10" stroke-width="1"/>
        <path id="Path_161293" data-name="Path 161293" d="M386.386,246.994V435.387l18.569,18.687v74.407" transform="translate(0 -3.513)" fill="none" stroke="#fafafa" stroke-miterlimit="10" stroke-width="1"/>
        <path id="Path_161294" data-name="Path 161294" d="M386.386,477.041l-1.255,80.3L442.594,615.3l1.756,131.988" fill="none" stroke="#fafafa" stroke-miterlimit="10" stroke-width="1"/>
        <path id="Path_161295" data-name="Path 161295" d="M414.741,625.589l17.314,14.8,1.255,63.31" fill="none" stroke="#fafafa" stroke-miterlimit="10" stroke-width="1"/>
        <line id="Line_1446" data-name="Line 1446" x2="43.661" y2="43.41" transform="translate(404.955 556.585)" fill="none" stroke="#fafafa" stroke-miterlimit="10" stroke-width="1"/>
        <path id="Path_161296" data-name="Path 161296" d="M426.785,556.585V438.248l-20.074-20.676" fill="none" stroke="#fafafa" stroke-miterlimit="10" stroke-width="1"/>
        <path id="Path_161297" data-name="Path 161297" d="M430.3,415.815l16.059,16.059V572.895l20.325,18.318V652.94" fill="none" stroke="#fafafa" stroke-miterlimit="10" stroke-width="1"/>
        <path id="Path_161298" data-name="Path 161298" d="M433.56,277.554V306.16l-26.849,26.849v59.72" transform="translate(0 -3.513)" fill="none" stroke="#fafafa" stroke-miterlimit="10" stroke-width="1"/>
        <path id="Path_161299" data-name="Path 161299" d="M426.785,392.73V344.552l18.067-17.565V187.472l42.155-41.654V51.972" fill="none" stroke="#fafafa" stroke-miterlimit="10" stroke-width="1"/>
        <path id="Path_161300" data-name="Path 161300" d="M469.443,127l-51.189,49.934v72.016" transform="translate(0 -3.513)" fill="none" stroke="#fafafa" stroke-miterlimit="10" stroke-width="1"/>
        <path id="Path_161301" data-name="Path 161301" d="M460.158,153.346l-28.1,28.606v36.635" fill="none" stroke="#fafafa" stroke-miterlimit="10" stroke-width="1"/>
        <line id="Line_1447" data-name="Line 1447" y1="97.359" transform="translate(429.294 9.816)" fill="none" stroke="#fafafa" stroke-miterlimit="10" stroke-width="1"/>
        <line id="Line_1448" data-name="Line 1448" y1="111.97" transform="translate(456.896 11.516)" fill="none" stroke="#fafafa" stroke-miterlimit="10" stroke-width="1"/>
        <line id="Line_1449" data-name="Line 1449" y1="95.66" transform="translate(469.443 11.515)" fill="none" stroke="#fafafa" stroke-miterlimit="10" stroke-width="1"/>
        <path id="Path_161302" data-name="Path 161302" d="M510.595,102.408v59.721l-35.381,34.627V337.024L456.9,356.346" fill="none" stroke="#fafafa" stroke-miterlimit="10" stroke-width="1"/>
        <path id="Path_161303" data-name="Path 161303" d="M501.059,205.288l-.251,142.526-39.646,38.392V546.8" fill="none" stroke="#fafafa" stroke-miterlimit="10" stroke-width="1"/>
        <path id="Path_161304" data-name="Path 161304" d="M475.465,680.793,474.21,389.718l40.4-37.639V267.392" fill="none" stroke="#fafafa" stroke-miterlimit="10" stroke-width="1"/>
        <path id="Path_161305" data-name="Path 161305" d="M525.65,205.288l1.506,153.065L487.007,397V616.055" fill="none" stroke="#fafafa" stroke-miterlimit="10" stroke-width="1"/>
        <path id="Path_161306" data-name="Path 161306" d="M49.826,356.009a4.909,4.909,0,1,1-4.909-4.909,4.909,4.909,0,0,1,4.909,4.909" fill="#ecedf0"/>
        <path id="Path_161307" data-name="Path 161307" d="M63.162,292.279a4.909,4.909,0,1,1-4.909-4.909,4.909,4.909,0,0,1,4.909,4.909" fill="#ecedf0"/>
        <path id="Path_161308" data-name="Path 161308" d="M93.168,224.358a4.909,4.909,0,1,1-4.909-4.909,4.909,4.909,0,0,1,4.909,4.909" fill="#ecedf0"/>
        <path id="Path_161309" data-name="Path 161309" d="M103.615,259.544a4.909,4.909,0,1,1-4.909-4.909,4.909,4.909,0,0,1,4.909,4.909" fill="#ecedf0"/>
        <path id="Path_161310" data-name="Path 161310" d="M145.5,248.949a4.909,4.909,0,1,1-4.909-4.909,4.909,4.909,0,0,1,4.909,4.909" fill="#ecedf0"/>
        <path id="Path_161311" data-name="Path 161311" d="M161.106,360.009A4.909,4.909,0,1,1,156.2,355.1a4.909,4.909,0,0,1,4.909,4.909" fill="#ecedf0"/>
        <path id="Path_161312" data-name="Path 161312" d="M122.286,346.229a4.909,4.909,0,1,1-4.909-4.909,4.909,4.909,0,0,1,4.909,4.909" fill="#ecedf0"/>
        <path id="Path_161313" data-name="Path 161313" d="M87.612,369.345a4.909,4.909,0,1,1-4.91-4.909,4.91,4.91,0,0,1,4.91,4.909" fill="#ecedf0"/>
        <path id="Path_161314" data-name="Path 161314" d="M133.176,414.91A4.909,4.909,0,1,1,128.267,410a4.909,4.909,0,0,1,4.909,4.909" fill="#ecedf0"/>
        <path id="Path_161315" data-name="Path 161315" d="M133.176,440.311a4.909,4.909,0,1,1-4.909-4.909,4.909,4.909,0,0,1,4.909,4.909" fill="#ecedf0"/>
        <path id="Path_161316" data-name="Path 161316" d="M110.394,414.91A4.909,4.909,0,1,1,105.485,410a4.909,4.909,0,0,1,4.909,4.909" fill="#ecedf0"/>
        <path id="Path_161317" data-name="Path 161317" d="M131.565,551.882a4.909,4.909,0,1,1-4.909-4.909,4.909,4.909,0,0,1,4.909,4.909" fill="#ecedf0"/>
        <path id="Path_161318" data-name="Path 161318" d="M108.524,556.791a4.909,4.909,0,1,1-4.909-4.909,4.909,4.909,0,0,1,4.909,4.909" fill="#ecedf0"/>
        <path id="Path_161319" data-name="Path 161319" d="M81.388,611.617a4.909,4.909,0,1,1-4.909-4.909,4.909,4.909,0,0,1,4.909,4.909" fill="#ecedf0"/>
        <path id="Path_161320" data-name="Path 161320" d="M23.6,703.7a4.909,4.909,0,1,1-4.909-4.909A4.909,4.909,0,0,1,23.6,703.7" fill="#ecedf0"/>
        <path id="Path_161321" data-name="Path 161321" d="M9.818,763.878a4.909,4.909,0,1,1-4.909-4.909,4.909,4.909,0,0,1,4.909,4.909" fill="#ecedf0"/>
        <path id="Path_161322" data-name="Path 161322" d="M103.615,750.923a4.909,4.909,0,1,1-4.909-4.909,4.909,4.909,0,0,1,4.909,4.909" fill="#ecedf0"/>
        <path id="Path_161323" data-name="Path 161323" d="M118.729,721.443a4.909,4.909,0,1,1-4.909-4.909,4.909,4.909,0,0,1,4.909,4.909" fill="#ecedf0"/>
        <path id="Path_161324" data-name="Path 161324" d="M121.264,666.941a4.909,4.909,0,1,1-4.909-4.909,4.909,4.909,0,0,1,4.909,4.909" fill="#ecedf0"/>
        <path id="Path_161325" data-name="Path 161325" d="M129.4,582.945a4.909,4.909,0,1,1-4.909-4.909,4.909,4.909,0,0,1,4.909,4.909" fill="#ecedf0"/>
        <path id="Path_161326" data-name="Path 161326" d="M165.527,620.376a4.909,4.909,0,1,1-4.909-4.909,4.909,4.909,0,0,1,4.909,4.909" fill="#ecedf0"/>
        <path id="Path_161327" data-name="Path 161327" d="M165.527,592.33a4.909,4.909,0,1,1-4.909-4.909,4.909,4.909,0,0,1,4.909,4.909" fill="#ecedf0"/>
        <path id="Path_161328" data-name="Path 161328" d="M194.092,682.743a4.909,4.909,0,1,1-4.909-4.909,4.909,4.909,0,0,1,4.909,4.909" fill="#ecedf0"/>
        <path id="Path_161329" data-name="Path 161329" d="M215.432,549.844a4.909,4.909,0,1,1-4.909-4.909,4.909,4.909,0,0,1,4.909,4.909" fill="#f1f1f1"/>
        <path id="Path_161330" data-name="Path 161330" d="M209.163,505.394a4.909,4.909,0,1,1-4.909-4.909,4.909,4.909,0,0,1,4.909,4.909" fill="#f1f1f1"/>
        <path id="Path_161331" data-name="Path 161331" d="M232.88,510.3a4.909,4.909,0,1,1-4.909-4.909,4.909,4.909,0,0,1,4.909,4.909" fill="#f1f1f1"/>
        <path id="Path_161332" data-name="Path 161332" d="M292.8,584.095a4.909,4.909,0,1,1-4.909-4.909,4.909,4.909,0,0,1,4.909,4.909" fill="#f1f1f1"/>
        <path id="Path_161333" data-name="Path 161333" d="M314.378,462.346a4.909,4.909,0,1,1-4.909-4.909,4.909,4.909,0,0,1,4.909,4.909" fill="#f1f1f1"/>
        <path id="Path_161334" data-name="Path 161334" d="M334.476,466.894a4.909,4.909,0,1,1-4.909-4.909,4.909,4.909,0,0,1,4.909,4.909" fill="#f1f1f1"/>
        <path id="Path_161335" data-name="Path 161335" d="M331.686,423.9a4.909,4.909,0,1,1-4.909-4.909,4.909,4.909,0,0,1,4.909,4.909" fill="#f1f1f1"/>
        <path id="Path_161336" data-name="Path 161336" d="M355.412,8.561A4.909,4.909,0,1,1,350.5,3.652a4.909,4.909,0,0,1,4.909,4.909" fill="#eaebed" stroke="#fafafa" stroke-width="1"/>
        <path id="Path_161337" data-name="Path 161337" d="M378.749,379.012a4.909,4.909,0,1,1-4.909-4.909,4.909,4.909,0,0,1,4.909,4.909" fill="#f1f1f1"/>
        <path id="Path_161338" data-name="Path 161338" d="M347.634,292.2a4.909,4.909,0,1,1-4.909-4.909,4.909,4.909,0,0,1,4.909,4.909" fill="#f1f1f1"/>
        <path id="Path_161339" data-name="Path 161339" d="M391.3,247.987a4.909,4.909,0,1,1-4.909-4.909,4.909,4.909,0,0,1,4.909,4.909" fill="#f1f1f1"/>
        <path id="Path_161340" data-name="Path 161340" d="M391.3,158.255a4.909,4.909,0,1,1-4.909-4.909,4.909,4.909,0,0,1,4.909,4.909" fill="#f1f1f1"/>
        <path id="Path_161341" data-name="Path 161341" d="M382.011,115.205A4.909,4.909,0,1,1,377.1,110.3a4.909,4.909,0,0,1,4.909,4.909" fill="#f1f1f1"/>
        <path id="Path_161342" data-name="Path 161342" d="M407.605,142.579a4.909,4.909,0,1,1-4.909-4.909,4.909,4.909,0,0,1,4.909,4.909" fill="#f1f1f1"/>
        <path id="Path_161343" data-name="Path 161343" d="M476.158,127a4.909,4.909,0,1,1-4.909-4.909A4.909,4.909,0,0,1,476.158,127" fill="#f1f1f1"/>
        <path id="Path_161344" data-name="Path 161344" d="M434.2,108.256a4.909,4.909,0,1,1-4.909-4.909,4.909,4.909,0,0,1,4.909,4.909" fill="#f1f1f1"/>
        <path id="Path_161345" data-name="Path 161345" d="M461.8,123.486a4.909,4.909,0,1,1-4.909-4.909,4.909,4.909,0,0,1,4.909,4.909" fill="#f1f1f1"/>
        <path id="Path_161346" data-name="Path 161346" d="M473.938,105.332a4.909,4.909,0,1,1-4.909-4.909,4.909,4.909,0,0,1,4.909,4.909" fill="#f1f1f1"/>
        <path id="Path_161347" data-name="Path 161347" d="M491.916,51.972a4.909,4.909,0,1,1-4.909-4.909,4.909,4.909,0,0,1,4.909,4.909" fill="#f1f1f1"/>
        <path id="Path_161348" data-name="Path 161348" d="M514.766,102.408a4.909,4.909,0,1,1-4.909-4.909,4.909,4.909,0,0,1,4.909,4.909" fill="#f1f1f1"/>
        <path id="Path_161349" data-name="Path 161349" d="M505.968,203.274a4.909,4.909,0,1,1-4.909-4.909,4.909,4.909,0,0,1,4.909,4.909" fill="#f1f1f1"/>
        <path id="Path_161350" data-name="Path 161350" d="M530.092,205.288a4.909,4.909,0,1,1-4.909-4.909,4.909,4.909,0,0,1,4.909,4.909" fill="#f1f1f1"/>
        <path id="Path_161351" data-name="Path 161351" d="M519.518,267.392a4.909,4.909,0,1,1-4.909-4.909,4.909,4.909,0,0,1,4.909,4.909" fill="#f1f1f1"/>
        <path id="Path_161352" data-name="Path 161352" d="M407.4,47.063a4.909,4.909,0,1,1-4.909-4.909,4.909,4.909,0,0,1,4.909,4.909" fill="#f1f1f1"/>
        <path id="Path_161353" data-name="Path 161353" d="M466.071,153.346a4.909,4.909,0,1,1-4.909-4.909,4.909,4.909,0,0,1,4.909,4.909" fill="#f1f1f1"/>
        <path id="Path_161354" data-name="Path 161354" d="M437.465,220.179a4.909,4.909,0,1,1-4.909-4.909,4.909,4.909,0,0,1,4.909,4.909" fill="#f1f1f1"/>
        <path id="Path_161355" data-name="Path 161355" d="M368.962,67.5a4.909,4.909,0,1,1-4.909-4.909,4.909,4.909,0,0,1,4.909,4.909" fill="#f1f1f1"/>
        <path id="Path_161356" data-name="Path 161356" d="M382.011,11.515A4.909,4.909,0,1,1,377.1,6.606a4.909,4.909,0,0,1,4.909,4.909" fill="#eaebed" stroke="#fafafa" stroke-width="1"/>
        <path id="Path_161357" data-name="Path 161357" d="M407.4,8.561a4.909,4.909,0,1,1-4.909-4.909A4.909,4.909,0,0,1,407.4,8.561" fill="#eaebed" stroke="#fafafa" stroke-width="1"/>
        <path id="Path_161358" data-name="Path 161358" d="M434.2,4.907A4.909,4.909,0,1,1,429.294,0,4.909,4.909,0,0,1,434.2,4.907" fill="#eaebed" stroke="#fafafa" stroke-width="1"/>
        <path id="Path_161359" data-name="Path 161359" d="M461.162,12.642a4.909,4.909,0,1,1-4.909-4.909,4.909,4.909,0,0,1,4.909,4.909" fill="#eaebed" stroke="#fafafa" stroke-width="1"/>
        <path id="Path_161360" data-name="Path 161360" d="M474.352,13.47a4.91,4.91,0,1,1-4.91-4.909,4.91,4.91,0,0,1,4.91,4.909" fill="#eaebed" stroke="#fafafa" stroke-width="1"/>
        <path id="Path_161361" data-name="Path 161361" d="M420.779,307.164a4.909,4.909,0,1,1-4.909-4.909,4.909,4.909,0,0,1,4.909,4.909" fill="#f1f1f1"/>
        <path id="Path_161362" data-name="Path 161362" d="M411.62,392.646a4.909,4.909,0,1,1-4.909-4.909,4.909,4.909,0,0,1,4.909,4.909" fill="#f1f1f1"/>
        <path id="Path_161363" data-name="Path 161363" d="M412.514,417.571a4.909,4.909,0,1,1-4.909-4.909,4.909,4.909,0,0,1,4.909,4.909" fill="#f1f1f1"/>
        <path id="Path_161364" data-name="Path 161364" d="M391.3,479a4.909,4.909,0,1,1-4.909-4.909A4.909,4.909,0,0,1,391.3,479" fill="#f1f1f1"/>
        <path id="Path_161365" data-name="Path 161365" d="M409.863,526.081a4.909,4.909,0,1,1-4.909-4.909,4.909,4.909,0,0,1,4.909,4.909" fill="#f1f1f1"/>
        <path id="Path_161366" data-name="Path 161366" d="M409.863,556.585a4.909,4.909,0,1,1-4.909-4.909,4.909,4.909,0,0,1,4.909,4.909" fill="#f1f1f1"/>
        <path id="Path_161367" data-name="Path 161367" d="M452.483,599.995a4.91,4.91,0,1,1-4.91-4.909,4.91,4.91,0,0,1,4.91,4.909" fill="#f1f1f1"/>
        <path id="Path_161368" data-name="Path 161368" d="M431.694,553.79a4.909,4.909,0,1,1-4.909-4.909,4.909,4.909,0,0,1,4.909,4.909" fill="#f1f1f1"/>
        <path id="Path_161369" data-name="Path 161369" d="M411.62,616.054a4.909,4.909,0,1,1-4.909-4.909,4.909,4.909,0,0,1,4.909,4.909" fill="#f1f1f1"/>
        <path id="Path_161370" data-name="Path 161370" d="M421.657,625.589a4.909,4.909,0,1,1-4.909-4.909,4.909,4.909,0,0,1,4.909,4.909" fill="#f1f1f1"/>
        <path id="Path_161371" data-name="Path 161371" d="M382.428,610.626a4.909,4.909,0,1,1-4.909-4.909,4.909,4.909,0,0,1,4.909,4.909" fill="#f1f1f1"/>
        <path id="Path_161372" data-name="Path 161372" d="M400.328,721.443a4.909,4.909,0,1,1-4.909-4.909,4.909,4.909,0,0,1,4.909,4.909" fill="#f1f1f1"/>
        <path id="Path_161373" data-name="Path 161373" d="M438.218,703.7a4.909,4.909,0,1,1-4.909-4.909,4.909,4.909,0,0,1,4.909,4.909" fill="#f1f1f1"/>
        <path id="Path_161374" data-name="Path 161374" d="M448.616,744.715a4.909,4.909,0,1,1-4.909-4.909,4.909,4.909,0,0,1,4.909,4.909" fill="#f1f1f1"/>
        <path id="Path_161375" data-name="Path 161375" d="M471.591,652.94a4.909,4.909,0,1,1-4.909-4.909,4.909,4.909,0,0,1,4.909,4.909" fill="#f1f1f1"/>
        <path id="Path_161376" data-name="Path 161376" d="M479.119,683.191a4.909,4.909,0,1,1-4.909-4.909,4.909,4.909,0,0,1,4.909,4.909" fill="#f1f1f1"/>
        <path id="Path_161377" data-name="Path 161377" d="M491.916,614.69a4.909,4.909,0,1,1-4.909-4.909,4.909,4.909,0,0,1,4.909,4.909" fill="#f1f1f1"/>
        <path id="Path_161378" data-name="Path 161378" d="M466.071,548.881a4.909,4.909,0,1,1-4.909-4.909,4.909,4.909,0,0,1,4.909,4.909" fill="#f1f1f1"/>
        <path id="Path_161379" data-name="Path 161379" d="M437.967,417.571a4.909,4.909,0,1,1-4.909-4.909,4.909,4.909,0,0,1,4.909,4.909" fill="#f1f1f1"/>
        <path id="Path_161380" data-name="Path 161380" d="M431.694,395.882a4.909,4.909,0,1,1-4.909-4.909,4.909,4.909,0,0,1,4.909,4.909" fill="#f1f1f1"/>
        <path id="Path_161381" data-name="Path 161381" d="M461.8,358.4a4.909,4.909,0,1,1-4.909-4.909A4.909,4.909,0,0,1,461.8,358.4" fill="#f1f1f1"/>
        <path id="Path_161382" data-name="Path 161382" d="M438.469,280.466a4.909,4.909,0,1,1-4.909-4.909,4.909,4.909,0,0,1,4.909,4.909" fill="#f1f1f1"/>
        <path id="Path_161383" data-name="Path 161383" d="M423.163,248.949a4.909,4.909,0,1,1-4.909-4.909,4.909,4.909,0,0,1,4.909,4.909" fill="#f1f1f1"/>
        <path id="Path_161384" data-name="Path 161384" d="M165.527,693.886a4.909,4.909,0,1,1-4.909-4.909,4.909,4.909,0,0,1,4.909,4.909" fill="#ecedf0"/>
        <path id="Path_161385" data-name="Path 161385" d="M111.27,574.721a4.91,4.91,0,1,1-4.91-4.909,4.91,4.91,0,0,1,4.91,4.909" fill="#ecedf0"/>
        <path id="Path_161386" data-name="Path 161386" d="M79.276,813.07a4.909,4.909,0,1,1-4.909-4.909,4.909,4.909,0,0,1,4.909,4.909" fill="#ecedf0"/>
        <path id="Path_161387" data-name="Path 161387" d="M81.388,841.739a4.909,4.909,0,1,1-4.909-4.909,4.909,4.909,0,0,1,4.909,4.909" fill="#ecedf0"/>
        <path id="Path_161388" data-name="Path 161388" d="M67.607,992.768a4.909,4.909,0,1,1-4.909-4.909,4.909,4.909,0,0,1,4.909,4.909" fill="#ecedf0"/>
        <path id="Path_161389" data-name="Path 161389" d="M82.4,992.768a4.909,4.909,0,1,1-4.909-4.909,4.909,4.909,0,0,1,4.909,4.909" fill="#ecedf0"/>
        <path id="Path_161390" data-name="Path 161390" d="M108.141,992.768a4.909,4.909,0,1,1-4.909-4.909,4.909,4.909,0,0,1,4.909,4.909" fill="#ecedf0"/>
        <path id="Path_161391" data-name="Path 161391" d="M135.463,995.181a4.909,4.909,0,1,1-4.909-4.909,4.909,4.909,0,0,1,4.909,4.909" fill="#ecedf0"/>
        <path id="Path_161392" data-name="Path 161392" d="M135.463,923.372a4.909,4.909,0,1,1-4.909-4.909,4.909,4.909,0,0,1,4.909,4.909" fill="#ecedf0"/>
        <path id="Path_161393" data-name="Path 161393" d="M108.141,861.175a4.909,4.909,0,1,1-4.909-4.909,4.909,4.909,0,0,1,4.909,4.909" fill="#ecedf0"/>
        <path id="Path_161394" data-name="Path 161394" d="M136.309,828.621a4.909,4.909,0,1,1-4.909-4.909,4.909,4.909,0,0,1,4.909,4.909" fill="#ecedf0"/>
        <path id="Path_161395" data-name="Path 161395" d="M150.3,816.567a4.909,4.909,0,1,1-4.909-4.909,4.909,4.909,0,0,1,4.909,4.909" fill="#ecedf0"/>
        <path id="Path_161396" data-name="Path 161396" d="M151.31,724.993a4.909,4.909,0,1,1-4.909-4.909,4.909,4.909,0,0,1,4.909,4.909" fill="#ecedf0"/>
        <path id="Path_161397" data-name="Path 161397" d="M103.615,693.886a4.909,4.909,0,1,1-4.909-4.909,4.909,4.909,0,0,1,4.909,4.909" fill="#ecedf0"/>
        <path id="Path_161398" data-name="Path 161398" d="M158.257,854.969a4.909,4.909,0,1,1-4.909-4.909,4.909,4.909,0,0,1,4.909,4.909" fill="#ecedf0"/>
        <path id="Path_161399" data-name="Path 161399" d="M158.257,992.768a4.909,4.909,0,1,1-4.909-4.909,4.909,4.909,0,0,1,4.909,4.909" fill="#ecedf0"/>
        <path id="Path_161400" data-name="Path 161400" d="M186.046,961.731a4.909,4.909,0,1,1-4.909-4.909,4.909,4.909,0,0,1,4.909,4.909" fill="#ecedf0"/>
        <path id="Path_161401" data-name="Path 161401" d="M172.348,902.25a4.909,4.909,0,1,1-4.909-4.909,4.909,4.909,0,0,1,4.909,4.909" fill="#ecedf0"/>
        <path id="Path_161402" data-name="Path 161402" d="M68.489,841.739a4.909,4.909,0,1,1-4.909-4.909,4.909,4.909,0,0,1,4.909,4.909" fill="#ecedf0"/>
        <path id="Path_161403" data-name="Path 161403" d="M67.607,862.393a4.909,4.909,0,1,1-4.909-4.909,4.909,4.909,0,0,1,4.909,4.909" fill="#ecedf0"/>
        <path id="Path_161404" data-name="Path 161404" d="M48.492,918.464a4.909,4.909,0,1,1-4.909-4.909,4.909,4.909,0,0,1,4.909,4.909" fill="#ecedf0"/>
        <path id="Path_161405" data-name="Path 161405" d="M28.266,868.559a4.909,4.909,0,1,1-4.909-4.909,4.909,4.909,0,0,1,4.909,4.909" fill="#ecedf0"/>
        <path id="Path_161406" data-name="Path 161406" d="M151.31,496.786a4.909,4.909,0,1,1-4.909-4.909,4.909,4.909,0,0,1,4.909,4.909" fill="#ecedf0"/>
        <path id="Path_161407" data-name="Path 161407" d="M133.129,357.285a4.909,4.909,0,1,1-4.909-4.909,4.909,4.909,0,0,1,4.909,4.909" fill="#ecedf0"/>
        <path id="Path_161408" data-name="Path 161408" d="M247.514,390.973a4.909,4.909,0,1,1-4.909-4.909,4.909,4.909,0,0,1,4.909,4.909" fill="#f1f1f1"/>
        <path id="Path_161409" data-name="Path 161409" d="M69.83,314.223a4.909,4.909,0,1,1-4.909-4.909,4.909,4.909,0,0,1,4.909,4.909" fill="#ecedf0"/>
      </g>
    </g>
  </g>
</svg>
