<svg id="Group_2038" data-name="Group 2038" xmlns="http://www.w3.org/2000/svg" xmlns:xlink="http://www.w3.org/1999/xlink" width="544" height="180.267" viewBox="0 0 544 180.267">
  <defs>
    <clipPath id="clip-path">
      <rect id="Rectangle_532" data-name="Rectangle 532" width="544" height="180.267" fill="none"/>
    </clipPath>
  </defs>
  <g id="Group_2037" data-name="Group 2037" clip-path="url(#clip-path)">
    <path id="Path_1028" data-name="Path 1028" d="M96.513,25.022h39.319a8.34,8.34,0,1,1,0,16.681H96.513a8.34,8.34,0,1,1,0-16.681" fill="#c4c4c4"/>
    <path id="Path_1029" data-name="Path 1029" d="M27.405,102.47H57.192a8.34,8.34,0,1,1,0,16.681H27.405a8.34,8.34,0,1,1,0-16.681" fill="#c4c4c4"/>
    <path id="Path_1030" data-name="Path 1030" d="M8.936,77.448h28.6a8.936,8.936,0,0,1,8.936,8.936h0a8.936,8.936,0,0,1-8.936,8.936H8.936A8.936,8.936,0,0,1,0,86.385H0a8.936,8.936,0,0,1,8.936-8.936" fill="#c4c4c4"/>
    <path id="Path_1031" data-name="Path 1031" d="M106.045,102.47h29.787a8.34,8.34,0,1,1,0,16.681H106.045a8.34,8.34,0,1,1,0-16.681" fill="#c4c4c4"/>
    <path id="Path_1032" data-name="Path 1032" d="M27.405,25.022H66.724a8.34,8.34,0,1,1,0,16.681H27.405a8.34,8.34,0,1,1,0-16.681" fill="#c4c4c4"/>
    <path id="Path_1033" data-name="Path 1033" d="M81.022,102.47h0a8.34,8.34,0,1,1-8.34,8.34,8.34,8.34,0,0,1,8.34-8.34" fill="#c4c4c4"/>
    <path id="Path_1034" data-name="Path 1034" d="M80.427,50.043h1.192A11.319,11.319,0,0,1,92.938,61.362h0A11.319,11.319,0,0,1,81.619,72.682H80.427A11.319,11.319,0,0,1,69.108,61.363h0A11.319,11.319,0,0,1,80.427,50.043" fill="#050505"/>
    <path id="Path_1035" data-name="Path 1035" d="M108.428,0h5.957a8.34,8.34,0,1,1,0,16.681h-5.957a8.34,8.34,0,1,1,0-16.681" fill="#c4c4c4"/>
    <path id="Path_1036" data-name="Path 1036" d="M47.661,128.683h5.957a8.34,8.34,0,1,1,0,16.681H47.661a8.34,8.34,0,1,1,0-16.681" fill="#c4c4c4"/>
    <path id="Path_1037" data-name="Path 1037" d="M50.043,50.043h0a8.34,8.34,0,0,1,8.34,8.341v1.191a8.34,8.34,0,1,1-16.68,0V58.384a8.34,8.34,0,0,1,8.34-8.341" fill="#c4c4c4"/>
    <path id="Path_1038" data-name="Path 1038" d="M137.619,50.043h14.3a8.936,8.936,0,0,1,8.936,8.936h0a8.936,8.936,0,0,1-8.936,8.936h-14.3a8.936,8.936,0,0,1-8.936-8.936h0a8.936,8.936,0,0,1,8.936-8.936" fill="#c4c4c4"/>
    <path id="Path_1039" data-name="Path 1039" d="M125.7,77.448h27.4a8.936,8.936,0,0,1,8.936,8.936h0a8.936,8.936,0,0,1-8.936,8.936H125.7a8.936,8.936,0,0,1-8.936-8.936h0a8.936,8.936,0,0,1,8.936-8.936" fill="#c4c4c4"/>
    <path id="Path_1040" data-name="Path 1040" d="M47.661,0H81.022a8.34,8.34,0,1,1,0,16.681H47.661A8.34,8.34,0,1,1,47.661,0" fill="#c4c4c4"/>
    <path id="Path_1041" data-name="Path 1041" d="M81.023,128.683h33.361a8.34,8.34,0,1,1,0,16.681H81.023a8.34,8.34,0,1,1,0-16.681" fill="#c4c4c4"/>
    <path id="Path_1042" data-name="Path 1042" d="M13.7,50.043H25.618a8.936,8.936,0,0,1,8.936,8.936h0a8.936,8.936,0,0,1-8.936,8.936H13.7A8.936,8.936,0,0,1,4.766,58.98h0A8.936,8.936,0,0,1,13.7,50.043" fill="#c4c4c4"/>
    <path id="Path_1043" data-name="Path 1043" d="M112,50.043h0a8.34,8.34,0,0,1,8.339,8.341v1.191a8.34,8.34,0,1,1-16.68,0V58.384A8.341,8.341,0,0,1,112,50.043" fill="#c4c4c4"/>
    <path id="Path_1044" data-name="Path 1044" d="M67.32,77.448h27.4a8.936,8.936,0,0,1,8.936,8.936h0a8.936,8.936,0,0,1-8.936,8.936H67.32a8.936,8.936,0,0,1-8.936-8.936h0a8.936,8.936,0,0,1,8.936-8.936" fill="#050505"/>
    <path id="Path_1045" data-name="Path 1045" d="M239.253,97.189c-8.472,0-14.3-5.088-14.3-15.266V32.032H205.54V84.614c0,17.254,12.767,28.719,33.713,28.719s33.714-11.464,33.714-28.719V32.032H253.492V81.924c0,10.06-5.825,15.265-14.239,15.265m58.694,13.549,5.105-18.048h24.206l5.048,18.048H352.5L327.432,32.032H304.257l-25.239,78.706ZM315.729,49.1l8.145,29.81H306.552l8.317-29.81Zm101.6,46.533h-35.04V78.1H416.15V64.149H382.292V47.139h35.04V32.032H362.87v78.706h54.461ZM457.7,110.739V32.032H435.224v78.706Zm18.871-78.707v78.706h31.345C532.6,110.738,544,95.574,544,71.068c0-24.275-11.111-39.036-36.083-39.036Zm19.357,15.107h8.948c14.971,0,19.3,10.552,19.3,24.39,0,19.432-8.128,24.1-19.3,24.1h-8.948Z" fill="#050505"/>
    <path id="Path_1046" data-name="Path 1046" d="M216.337,143.176a2.166,2.166,0,0,0-.742-1.714,7.466,7.466,0,0,0-2.61-1.219,14.8,14.8,0,0,1-4.855-2.272,4.3,4.3,0,0,1-1.657-3.567,4.488,4.488,0,0,1,1.866-3.714,8.626,8.626,0,0,1,9.705.108,4.845,4.845,0,0,1,1.81,4.063l-.026.076h-3.593a2.69,2.69,0,0,0-.837-2.126,3.419,3.419,0,0,0-2.349-.743,3.1,3.1,0,0,0-2.12.66,2.147,2.147,0,0,0-.749,1.688,1.844,1.844,0,0,0,.812,1.543,10.907,10.907,0,0,0,2.806,1.276,12.057,12.057,0,0,1,4.646,2.253,4.614,4.614,0,0,1,1.6,3.663,4.407,4.407,0,0,1-1.853,3.745,8.052,8.052,0,0,1-4.9,1.371,8.756,8.756,0,0,1-5.123-1.486,4.9,4.9,0,0,1-2.075-4.43l.025-.076h3.593a2.911,2.911,0,0,0,.965,2.412,4.063,4.063,0,0,0,2.615.774,3.567,3.567,0,0,0,2.266-.622,2.017,2.017,0,0,0,.781-1.663" fill="#415358"/>
    <path id="Path_1047" data-name="Path 1047" d="M233.336,139.875h-6.855v5.281h8.15V148H222.773V129.516h11.833v2.856h-8.125v4.647h6.855Z" fill="#415358"/>
    <path id="Path_1048" data-name="Path 1048" d="M251.1,141.881l.025.076a5.785,5.785,0,0,1-1.8,4.634,7.356,7.356,0,0,1-5.117,1.676,7.087,7.087,0,0,1-5.37-2.14,7.67,7.67,0,0,1-2.044-5.528V136.93a7.816,7.816,0,0,1,1.994-5.529,6.8,6.8,0,0,1,5.23-2.152,7.8,7.8,0,0,1,5.281,1.651,5.683,5.683,0,0,1,1.854,4.646l-.026.076h-3.6a3.633,3.633,0,0,0-.857-2.647,3.577,3.577,0,0,0-2.647-.869,2.986,2.986,0,0,0-2.6,1.339,5.916,5.916,0,0,0-.933,3.459V140.6a5.746,5.746,0,0,0,.984,3.478,3.193,3.193,0,0,0,2.735,1.346,3.252,3.252,0,0,0,2.482-.87,3.775,3.775,0,0,0,.819-2.672Z" fill="#415358"/>
    <path id="Path_1049" data-name="Path 1049" d="M268.426,129.516v12.1a6.079,6.079,0,0,1-2.069,4.887,7.985,7.985,0,0,1-5.37,1.765,7.892,7.892,0,0,1-5.339-1.765,6.1,6.1,0,0,1-2.05-4.887v-12.1h3.72v12.1a3.806,3.806,0,0,0,.99,2.831,3.649,3.649,0,0,0,2.679.977,3.728,3.728,0,0,0,2.716-.977,3.776,3.776,0,0,0,1-2.831v-12.1Z" fill="#415358"/>
    <path id="Path_1050" data-name="Path 1050" d="M275.345,140.611V148h-3.707V129.516h6.4a7.666,7.666,0,0,1,4.946,1.441,4.879,4.879,0,0,1,1.783,4.018,4.054,4.054,0,0,1-.756,2.457,5.258,5.258,0,0,1-2.2,1.669,3.969,3.969,0,0,1,2.354,1.612,5.106,5.106,0,0,1,.718,2.793v1.358a6.7,6.7,0,0,0,.21,1.619,2.227,2.227,0,0,0,.717,1.251V148h-3.821a2.049,2.049,0,0,1-.654-1.346,11.857,11.857,0,0,1-.146-1.815v-1.308a2.939,2.939,0,0,0-.756-2.152,2.865,2.865,0,0,0-2.139-.768Zm0-2.856h2.628a3.476,3.476,0,0,0,2.323-.66,2.448,2.448,0,0,0,.762-1.955,2.69,2.69,0,0,0-.768-2.019,3.1,3.1,0,0,0-2.254-.749h-2.691Z" fill="#415358"/>
    <path id="Path_1051" data-name="Path 1051" d="M298.767,139.875h-6.855v5.281h8.15V148H288.2V129.516h11.833v2.856h-8.125v4.647h6.855Z" fill="#415358"/>
    <path id="Path_1052" data-name="Path 1052" d="M315.665,138.035h.076l4.037-8.519h4.063L317.506,141.5V148H313.8V141.31l-6.234-11.794h4.063Z" fill="#415358"/>
    <path id="Path_1053" data-name="Path 1053" d="M340.268,140.422a7.759,7.759,0,0,1-2.145,5.629,8.11,8.11,0,0,1-11.147,0,7.793,7.793,0,0,1-2.132-5.624V137.1a7.819,7.819,0,0,1,2.126-5.618,7.317,7.317,0,0,1,5.542-2.227,7.451,7.451,0,0,1,5.6,2.227,7.747,7.747,0,0,1,2.158,5.618Zm-3.694-3.352a5.6,5.6,0,0,0-1.079-3.542,3.571,3.571,0,0,0-2.983-1.384,3.461,3.461,0,0,0-2.927,1.384,5.711,5.711,0,0,0-1.047,3.542v3.352a5.747,5.747,0,0,0,1.054,3.58,3.49,3.49,0,0,0,2.945,1.383A3.54,3.54,0,0,0,335.508,144a5.7,5.7,0,0,0,1.066-3.58Z" fill="#415358"/>
    <path id="Path_1054" data-name="Path 1054" d="M357.852,129.516v12.1a6.082,6.082,0,0,1-2.069,4.887,7.989,7.989,0,0,1-5.371,1.765,7.892,7.892,0,0,1-5.339-1.765,6.1,6.1,0,0,1-2.05-4.887v-12.1h3.72v12.1a3.806,3.806,0,0,0,.99,2.831,3.649,3.649,0,0,0,2.679.977,3.728,3.728,0,0,0,2.716-.977,3.776,3.776,0,0,0,1-2.831v-12.1Z" fill="#415358"/>
    <path id="Path_1055" data-name="Path 1055" d="M364.771,140.611V148h-3.707V129.516h6.4a7.67,7.67,0,0,1,4.947,1.441,4.881,4.881,0,0,1,1.782,4.018,4.048,4.048,0,0,1-.756,2.457,5.258,5.258,0,0,1-2.2,1.669,3.969,3.969,0,0,1,2.354,1.612,5.107,5.107,0,0,1,.719,2.793v1.358a6.7,6.7,0,0,0,.209,1.619,2.227,2.227,0,0,0,.718,1.251V148H371.41a2.048,2.048,0,0,1-.653-1.346,11.732,11.732,0,0,1-.146-1.815v-1.308a2.939,2.939,0,0,0-.757-2.152,2.863,2.863,0,0,0-2.139-.768Zm0-2.856H367.4a3.474,3.474,0,0,0,2.323-.66,2.448,2.448,0,0,0,.762-1.955,2.69,2.69,0,0,0-.768-2.019,3.1,3.1,0,0,0-2.254-.749h-2.69Z" fill="#415358"/>
    <rect id="Rectangle_528" data-name="Rectangle 528" width="3.707" height="18.484" transform="translate(384.359 129.516)" fill="#415358"/>
    <path id="Path_1056" data-name="Path 1056" d="M391.735,148V129.516h6.449a7.624,7.624,0,0,1,5.586,2.165,7.457,7.457,0,0,1,2.2,5.554v3.059a7.429,7.429,0,0,1-2.2,5.554A7.647,7.647,0,0,1,398.184,148Zm3.707-15.628v12.784h2.742a3.619,3.619,0,0,0,2.945-1.364,5.342,5.342,0,0,0,1.118-3.5v-3.085a5.3,5.3,0,0,0-1.118-3.479,3.628,3.628,0,0,0-2.945-1.358Z" fill="#415358"/>
    <path id="Path_1057" data-name="Path 1057" d="M419.5,139.875h-6.855v5.281h8.15V148H408.937V129.516H420.77v2.856h-8.125v4.647H419.5Z" fill="#415358"/>
    <path id="Path_1058" data-name="Path 1058" d="M438.34,148h-3.707l-7.452-12.467-.076.013V148H423.4V129.516H427.1l7.452,12.454.076-.013V129.516h3.707Z" fill="#415358"/>
    <path id="Path_1059" data-name="Path 1059" d="M454.26,132.372h-5.281V148h-3.707V132.372h-5.205v-2.856H454.26Z" fill="#415358"/>
    <rect id="Rectangle_529" data-name="Rectangle 529" width="3.707" height="18.484" transform="translate(456.545 129.516)" fill="#415358"/>
    <path id="Path_1060" data-name="Path 1060" d="M476.438,132.372h-5.281V148H467.45V132.372h-5.205v-2.856h14.193Z" fill="#415358"/>
    <path id="Path_1061" data-name="Path 1061" d="M485.2,138.035h.076l4.037-8.519h4.063L487.039,141.5V148h-3.707V141.31L477.1,129.516h4.063Z" fill="#415358"/>
    <path id="Path_1062" data-name="Path 1062" d="M511.325,144.014h-5.992L504.089,148h-3.872l6.233-18.485h3.8L516.454,148h-3.872Zm-5.078-2.907h4.177l-2.044-6.513H508.3Z" fill="#415358"/>
    <path id="Path_1063" data-name="Path 1063" d="M527.867,143.176a2.16,2.16,0,0,0-.743-1.714,7.441,7.441,0,0,0-2.609-1.219,14.829,14.829,0,0,1-4.856-2.272A4.3,4.3,0,0,1,518,134.4a4.488,4.488,0,0,1,1.866-3.714,8.627,8.627,0,0,1,9.706.108,4.847,4.847,0,0,1,1.809,4.063l-.026.076h-3.593a2.69,2.69,0,0,0-.837-2.126,3.419,3.419,0,0,0-2.349-.743,3.1,3.1,0,0,0-2.12.66,2.151,2.151,0,0,0-.749,1.688,1.844,1.844,0,0,0,.812,1.543,10.892,10.892,0,0,0,2.806,1.276,12.057,12.057,0,0,1,4.646,2.253,4.614,4.614,0,0,1,1.6,3.663,4.409,4.409,0,0,1-1.853,3.745,8.05,8.05,0,0,1-4.9,1.371,8.749,8.749,0,0,1-5.122-1.486,4.9,4.9,0,0,1-2.076-4.43l.025-.076h3.593a2.908,2.908,0,0,0,.965,2.412,4.063,4.063,0,0,0,2.615.774,3.574,3.574,0,0,0,2.267-.622,2.021,2.021,0,0,0,.78-1.663" fill="#415358"/>
    <path id="Path_1064" data-name="Path 1064" d="M213.227,170.035h.076l4.037-8.519H221.4L215.067,173.5V180H211.36V173.31l-6.234-11.794h4.063Z" fill="#415358"/>
    <path id="Path_1065" data-name="Path 1065" d="M237.83,172.422a7.759,7.759,0,0,1-2.145,5.629,8.11,8.11,0,0,1-11.147,0,7.793,7.793,0,0,1-2.132-5.624V169.1a7.818,7.818,0,0,1,2.126-5.618,7.315,7.315,0,0,1,5.542-2.227,7.452,7.452,0,0,1,5.6,2.227,7.751,7.751,0,0,1,2.158,5.618Zm-3.694-3.352a5.589,5.589,0,0,0-1.079-3.542,3.572,3.572,0,0,0-2.983-1.384,3.458,3.458,0,0,0-2.926,1.384,5.705,5.705,0,0,0-1.048,3.542v3.352a5.741,5.741,0,0,0,1.054,3.58,3.49,3.49,0,0,0,2.945,1.383A3.54,3.54,0,0,0,233.07,176a5.7,5.7,0,0,0,1.066-3.58Z" fill="#415358"/>
    <path id="Path_1066" data-name="Path 1066" d="M255.413,161.516v12.1a6.076,6.076,0,0,1-2.069,4.887,7.985,7.985,0,0,1-5.37,1.765,7.889,7.889,0,0,1-5.338-1.765,6.1,6.1,0,0,1-2.051-4.887v-12.1h3.72v12.1a3.806,3.806,0,0,0,.99,2.831,3.65,3.65,0,0,0,2.679.977,3.726,3.726,0,0,0,2.716-.977,3.78,3.78,0,0,0,1-2.831v-12.1Z" fill="#415358"/>
    <path id="Path_1067" data-name="Path 1067" d="M274.735,176.014h-5.992L267.5,180h-3.872l6.233-18.485h3.8L279.864,180h-3.872Zm-5.078-2.907h4.177l-2.044-6.513h-.076Z" fill="#415358"/>
    <path id="Path_1068" data-name="Path 1068" d="M295.365,173.881l.025.076a5.785,5.785,0,0,1-1.8,4.634,7.353,7.353,0,0,1-5.117,1.676,7.087,7.087,0,0,1-5.37-2.14,7.674,7.674,0,0,1-2.044-5.528V168.93a7.812,7.812,0,0,1,1.994-5.529,6.8,6.8,0,0,1,5.23-2.152,7.8,7.8,0,0,1,5.281,1.651,5.68,5.68,0,0,1,1.854,4.646l-.026.076h-3.605a3.637,3.637,0,0,0-.857-2.647,3.579,3.579,0,0,0-2.647-.869,2.991,2.991,0,0,0-2.6,1.339,5.93,5.93,0,0,0-.932,3.459V172.6a5.753,5.753,0,0,0,.983,3.478,3.2,3.2,0,0,0,2.736,1.346,3.256,3.256,0,0,0,2.483-.87,3.785,3.785,0,0,0,.818-2.672Z" fill="#415358"/>
    <path id="Path_1069" data-name="Path 1069" d="M311.907,173.881l.025.076a5.785,5.785,0,0,1-1.8,4.634,7.356,7.356,0,0,1-5.117,1.676,7.087,7.087,0,0,1-5.37-2.14A7.67,7.67,0,0,1,297.6,172.6V168.93a7.816,7.816,0,0,1,1.994-5.529,6.8,6.8,0,0,1,5.23-2.152A7.8,7.8,0,0,1,310.1,162.9a5.683,5.683,0,0,1,1.854,4.646l-.026.076h-3.605a3.633,3.633,0,0,0-.857-2.647,3.577,3.577,0,0,0-2.647-.869,2.986,2.986,0,0,0-2.6,1.339,5.916,5.916,0,0,0-.933,3.459V172.6a5.746,5.746,0,0,0,.984,3.478,3.193,3.193,0,0,0,2.735,1.346,3.252,3.252,0,0,0,2.482-.87,3.775,3.775,0,0,0,.819-2.672Z" fill="#415358"/>
    <path id="Path_1070" data-name="Path 1070" d="M325.148,171.875h-6.855v5.281h8.15V180H314.585V161.516h11.833v2.856h-8.125v4.647h6.855Z" fill="#415358"/>
    <path id="Path_1071" data-name="Path 1071" d="M338.682,175.176a2.16,2.16,0,0,0-.743-1.714,7.44,7.44,0,0,0-2.609-1.219,14.83,14.83,0,0,1-4.856-2.272,4.3,4.3,0,0,1-1.656-3.567,4.488,4.488,0,0,1,1.866-3.714,8.627,8.627,0,0,1,9.706.108,4.844,4.844,0,0,1,1.809,4.063l-.026.076H338.58a2.69,2.69,0,0,0-.837-2.126,3.418,3.418,0,0,0-2.349-.743,3.1,3.1,0,0,0-2.12.66,2.151,2.151,0,0,0-.749,1.688,1.846,1.846,0,0,0,.812,1.543,10.873,10.873,0,0,0,2.806,1.276,12.057,12.057,0,0,1,4.646,2.253,4.614,4.614,0,0,1,1.6,3.663,4.409,4.409,0,0,1-1.853,3.745,8.05,8.05,0,0,1-4.9,1.371,8.749,8.749,0,0,1-5.122-1.486,4.895,4.895,0,0,1-2.076-4.43l.025-.076h3.593a2.908,2.908,0,0,0,.965,2.412,4.063,4.063,0,0,0,2.615.774,3.574,3.574,0,0,0,2.267-.622,2.022,2.022,0,0,0,.78-1.663" fill="#415358"/>
    <path id="Path_1072" data-name="Path 1072" d="M354.754,175.176a2.16,2.16,0,0,0-.743-1.714,7.44,7.44,0,0,0-2.609-1.219,14.829,14.829,0,0,1-4.856-2.272,4.3,4.3,0,0,1-1.656-3.567,4.488,4.488,0,0,1,1.866-3.714,8.627,8.627,0,0,1,9.706.108,4.844,4.844,0,0,1,1.809,4.063l-.026.076h-3.593a2.69,2.69,0,0,0-.837-2.126,3.418,3.418,0,0,0-2.349-.743,3.1,3.1,0,0,0-2.12.66,2.15,2.15,0,0,0-.749,1.688,1.847,1.847,0,0,0,.812,1.543,10.874,10.874,0,0,0,2.806,1.276,12.057,12.057,0,0,1,4.646,2.253,4.614,4.614,0,0,1,1.6,3.663,4.409,4.409,0,0,1-1.853,3.745,8.05,8.05,0,0,1-4.9,1.371,8.749,8.749,0,0,1-5.122-1.486,4.895,4.895,0,0,1-2.076-4.43l.025-.076h3.593a2.908,2.908,0,0,0,.965,2.412,4.063,4.063,0,0,0,2.615.774,3.574,3.574,0,0,0,2.267-.622,2.022,2.022,0,0,0,.78-1.663" fill="#415358"/>
    <path id="Path_1073" data-name="Path 1073" d="M378.228,171.875h-6.855v5.281h8.15V180H367.664V161.516H379.5v2.856h-8.125v4.647h6.855Z" fill="#415358"/>
    <rect id="Rectangle_530" data-name="Rectangle 530" width="7.478" height="2.856" transform="translate(382.277 170.67)" fill="#415358"/>
    <path id="Path_1074" data-name="Path 1074" d="M403.085,175.176a2.166,2.166,0,0,0-.742-1.714,7.465,7.465,0,0,0-2.61-1.219,14.8,14.8,0,0,1-4.855-2.272,4.3,4.3,0,0,1-1.657-3.567,4.488,4.488,0,0,1,1.866-3.714,8.626,8.626,0,0,1,9.7.108,4.845,4.845,0,0,1,1.81,4.063l-.026.076h-3.593a2.69,2.69,0,0,0-.837-2.126,3.42,3.42,0,0,0-2.349-.743,3.1,3.1,0,0,0-2.12.66,2.147,2.147,0,0,0-.749,1.688,1.844,1.844,0,0,0,.812,1.543,10.907,10.907,0,0,0,2.806,1.276,12.057,12.057,0,0,1,4.646,2.253,4.614,4.614,0,0,1,1.6,3.663,4.407,4.407,0,0,1-1.853,3.745,8.052,8.052,0,0,1-4.9,1.371,8.756,8.756,0,0,1-5.123-1.486,4.9,4.9,0,0,1-2.075-4.43l.025-.076h3.593a2.911,2.911,0,0,0,.965,2.412,4.063,4.063,0,0,0,2.615.774,3.567,3.567,0,0,0,2.266-.622,2.017,2.017,0,0,0,.781-1.663" fill="#415358"/>
    <path id="Path_1075" data-name="Path 1075" d="M420.084,171.875h-6.855v5.281h8.15V180H409.521V161.516h11.833v2.856h-8.125v4.647h6.855Z" fill="#415358"/>
    <path id="Path_1076" data-name="Path 1076" d="M427.688,172.611V180h-3.707V161.516h6.4a7.666,7.666,0,0,1,4.946,1.441,4.879,4.879,0,0,1,1.783,4.018,4.054,4.054,0,0,1-.756,2.457,5.258,5.258,0,0,1-2.2,1.669,3.969,3.969,0,0,1,2.354,1.612,5.106,5.106,0,0,1,.718,2.793v1.358a6.7,6.7,0,0,0,.21,1.619,2.227,2.227,0,0,0,.717,1.251V180h-3.821a2.048,2.048,0,0,1-.654-1.346,11.854,11.854,0,0,1-.146-1.815v-1.308a2.939,2.939,0,0,0-.756-2.152,2.865,2.865,0,0,0-2.139-.768Zm0-2.856h2.628a3.476,3.476,0,0,0,2.323-.66,2.448,2.448,0,0,0,.762-1.955,2.69,2.69,0,0,0-.768-2.019,3.1,3.1,0,0,0-2.254-.749h-2.691Z" fill="#415358"/>
    <path id="Path_1077" data-name="Path 1077" d="M446.6,174.986l.229,1.016h.076l.216-.978,4.024-13.508h3.91L448.775,180h-3.809L438.7,161.516h3.91Z" fill="#415358"/>
    <rect id="Rectangle_531" data-name="Rectangle 531" width="3.707" height="18.484" transform="translate(457.104 161.516)" fill="#415358"/>
    <path id="Path_1078" data-name="Path 1078" d="M478.343,173.881l.025.076a5.785,5.785,0,0,1-1.8,4.634,7.356,7.356,0,0,1-5.117,1.676,7.087,7.087,0,0,1-5.37-2.14,7.67,7.67,0,0,1-2.044-5.528V168.93a7.816,7.816,0,0,1,1.994-5.529,6.8,6.8,0,0,1,5.23-2.152,7.8,7.8,0,0,1,5.281,1.651,5.683,5.683,0,0,1,1.854,4.646l-.026.076h-3.605a3.633,3.633,0,0,0-.857-2.647,3.577,3.577,0,0,0-2.647-.869,2.986,2.986,0,0,0-2.6,1.339,5.916,5.916,0,0,0-.933,3.459V172.6a5.746,5.746,0,0,0,.984,3.478,3.193,3.193,0,0,0,2.735,1.346,3.252,3.252,0,0,0,2.482-.87,3.775,3.775,0,0,0,.819-2.672Z" fill="#415358"/>
    <path id="Path_1079" data-name="Path 1079" d="M491.584,171.875h-6.855v5.281h8.15V180H481.021V161.516h11.833v2.856h-8.125v4.647h6.855Z" fill="#415358"/>
    <path id="Path_1080" data-name="Path 1080" d="M505.117,175.176a2.16,2.16,0,0,0-.743-1.714,7.44,7.44,0,0,0-2.609-1.219,14.829,14.829,0,0,1-4.856-2.272,4.3,4.3,0,0,1-1.656-3.567,4.488,4.488,0,0,1,1.866-3.714,8.627,8.627,0,0,1,9.706.108,4.844,4.844,0,0,1,1.809,4.063l-.026.076h-3.593a2.69,2.69,0,0,0-.837-2.126,3.418,3.418,0,0,0-2.349-.743,3.1,3.1,0,0,0-2.12.66,2.15,2.15,0,0,0-.749,1.688,1.846,1.846,0,0,0,.812,1.543,10.873,10.873,0,0,0,2.806,1.276,12.057,12.057,0,0,1,4.646,2.253,4.614,4.614,0,0,1,1.6,3.663,4.409,4.409,0,0,1-1.853,3.745,8.05,8.05,0,0,1-4.9,1.371,8.749,8.749,0,0,1-5.122-1.486,4.895,4.895,0,0,1-2.076-4.43l.025-.076h3.593a2.908,2.908,0,0,0,.965,2.412,4.063,4.063,0,0,0,2.615.774,3.574,3.574,0,0,0,2.267-.622,2.022,2.022,0,0,0,.78-1.663" fill="#415358"/>
  </g>
</svg>
