<svg id="Group_143326" data-name="Group 143326" xmlns="http://www.w3.org/2000/svg" xmlns:xlink="http://www.w3.org/1999/xlink" width="1829.472" height="397.597" viewBox="0 0 1829.472 397.597">
  <defs>
    <clipPath id="clip-path">
      <rect id="Rectangle_60499" data-name="Rectangle 60499" width="1829.472" height="397.597" fill="none"/>
    </clipPath>
  </defs>
  <g id="Group_143325" data-name="Group 143325" clip-path="url(#clip-path)">
    <path id="Path_158058" data-name="Path 158058" d="M262.666,163.078c-3.725.374-6.516-1.393-8.64-4.9a9.914,9.914,0,0,1,.48-11.757c2.153-2.793,1.594-4.888.855-7.72a85.121,85.121,0,0,0-14.228-29.44c-13.3-17.936-30.179-30.877-51.731-37.512-12.636-3.89-25.6-6.015-38.615-4.48-20,2.358-38.391,9.223-54.138,22.5a102.187,102.187,0,0,0-31.9,48.006c-2.506,7.793-3.355,15.916-4.64,23.929-2.362,14.732-6.543,28.645-13.687,41.939-6.288,11.7-14.282,21.947-22.6,32.07-1.95,2.374-4.965,2.191-7.059.385-2.18-1.88-2.267-4.037.214-6.624A130.068,130.068,0,0,0,47.05,179.284c3.22-9.855,4.586-20.164,5.933-30.39,2.165-16.431,8.719-31.1,17.712-44.623a102.319,102.319,0,0,1,37.854-33.9,105.015,105.015,0,0,1,35.137-11.229c30.517-4.144,58.366,2.8,82.893,21.426,19.483,14.793,32.27,34.374,38.363,58.136.613,2.389,1.285,3.772,3.677,4.9a9.644,9.644,0,0,1,5,11.326c-1.779,6-4.61,8.177-10.953,8.14" fill="#0e0e0e"/>
    <path id="Path_158059" data-name="Path 158059" d="M294.029,177.08a261.477,261.477,0,0,1-3.991,29.59c-3.719,18.128-8.025,36.1-14.038,53.618-2.808,8.181-6.044,16.215-9.137,24.3-1.045,2.73-2.691,4.85-5.9,2.892-2.473-1.51-3.475-3.6-2.245-6.778,4.5-11.631,9.661-23.116,12.838-35.116,4.075-15.393,8.036-30.85,10.679-46.65a209.168,209.168,0,0,0,2.706-43.738c-.474-10.911-3.368-21.526-7.118-31.868-6.119-16.873-15.722-31.367-28.172-44.274-13.129-13.612-28.711-23.375-46.076-30.158C193.51,44.96,182.8,43.1,171.891,41.8c-12.131-1.442-23.91-.34-35.74,1.374-5.4.781-10.627,2.69-15.93,4.1-2.613.694-5.72,2.52-6.962-1.54-1.058-3.46-.062-6.217,4.044-7.364,18.473-5.162,37.049-7.681,56.358-5.464,22.607,2.594,43.487,9.5,62.2,22.345,28.833,19.794,47.437,46.749,55.164,81,1.47,6.516,3.092,13.02,3.023,19.776-.109,1.383-.64,2.823.532,4.037a53.989,53.989,0,0,1,.149,11.994c-1.425,1.507-.773,3.3-.7,5.016" fill="#0a0b0b"/>
    <path id="Path_158060" data-name="Path 158060" d="M159.286,5.977c38.721.224,73.387,12.008,103.428,36.655,4.252,3.489,7.745,7.043,14.122,6.715,4.785-.246,7.767,5.818,7.2,12.148-.39,4.342-4.671,8.245-9.415,8.585-5.526.4-11.9-3.352-11.289-8.145,1.054-8.321-5.188-10.954-9.706-14.553-15.677-12.49-33.554-20.973-52.691-26.7-8.736-2.614-17.773-3.833-26.886-4.769a130.672,130.672,0,0,0-17.761-.791C124.942,16.179,96.464,25.709,71.177,44.4A153.169,153.169,0,0,0,30.195,89.678c-1.771,2.978-4.081,4.479-6.782,2.967-3.013-1.689-2.936-5.083-1.166-7.87C31.7,69.9,42.335,56.194,55.936,44.562a159.408,159.408,0,0,1,57.85-31.777,156.514,156.514,0,0,1,28.723-5.866c5.6-.613,11.163-.723,16.777-.942" fill="#0e0e0e"/>
    <path id="Path_158061" data-name="Path 158061" d="M159.757,110.049c9.693.556,19.173,2.187,27.719,7.127,2.765,1.6,5.49.719,8.21.827,5.984.237,9.342,2.99,10.25,8.89.726,4.718-3.371,10.464-8.575,12.052-3.332,1.017-10.873-1.552-11.79-6.485-2.012-10.829-10.889-10.817-19.052-12.485-12.793-2.614-24.151.724-34.3,8.057-11.123,8.035-17.563,19.136-19.228,32.969a199.234,199.234,0,0,1-15.179,55.76,178.014,178.014,0,0,1-15.9,29.228,189.194,189.194,0,0,1-27.795,32.533c-2.324,2.156-4.712,2.525-6.891.153-2.123-2.311-1.792-4.668.563-6.882,11.162-10.493,21.19-21.931,29.127-35.111,10.611-17.622,18.723-36.169,23.365-56.365,2.321-10.1,2.827-20.431,5.575-30.455,2.111-7.7,6.143-13.858,10.9-20.014,7.823-10.122,18.32-15.443,30.328-18.247,4.1-.957,8.3-2.108,12.675-1.552" fill="#cb071e"/>
    <path id="Path_158062" data-name="Path 158062" d="M233.234,174.3c1.907-15.452-1.431-29.89-8.98-43.308-9.506-16.9-23.63-28.354-42.1-34.367a31.616,31.616,0,0,0-5.107-1.53c-3.639-.525-4.271-3.034-3.66-5.822.654-2.985,3.284-3.768,5.912-3.1a83.54,83.54,0,0,1,11.261,3.641c30.071,12.435,46.9,34.974,51.488,66.934,2.279,15.891-1.293,31.18-4.525,46.6a352.488,352.488,0,0,1-10.664,40.07c-5.151,15.324-11.833,30.009-19.1,44.46-5.8,11.532-12.882,22.244-19.687,33.152-1.988,3.187-4.73,4.584-7.577,2.566-2.561-1.815-1.923-4.935-.044-7.544,10.335-14.345,18.368-30.007,25.957-45.9a250.069,250.069,0,0,0,12.555-31.086,337.92,337.92,0,0,0,14.209-64.226s.262-.263.262-.263Z" fill="#ffbd00"/>
    <path id="Path_158063" data-name="Path 158063" d="M159.6,136.064c14.41-.972,29.481,11.327,30.7,26.671.544,6.859-.688,13.331-1.505,19.84C186.932,197.356,182.057,211.5,178,225.8a16.5,16.5,0,0,1-1.345,3.086c-1.111,2.115-2.825,4.114-5.218,2.8-2.146-1.179-4.366-3.01-3.1-6.411a246.9,246.9,0,0,0,11.452-43.733c1.135-6.475,2.184-13.161,1.145-19.628-1.145-7.129-5.907-12.228-12.692-14.794-14.573-5.51-26.633,1.69-29.293,17.314-1.991,11.694-3.438,23.544-7.042,34.852-7.2,22.6-16.909,44.083-30.372,63.733-1.675,2.444-4.366,3.1-6.425,1.4-1.853-1.533-3.222-3.919-1.12-6.875,11.923-16.77,20.521-35.189,27.075-54.663a187.734,187.734,0,0,0,8.043-37.459c2-16.439,12.04-29.337,30.489-29.355" fill="#0a0b0b"/>
    <path id="Path_158064" data-name="Path 158064" d="M91.745,66.971c-12.017-2.014-16.5,7.018-22.2,12.527C59.12,89.571,51.24,101.819,45.364,115.19a131.335,131.335,0,0,0-10.295,38.445,104.684,104.684,0,0,1-20.755,52.619c-1.928,2.546-4.439,4.268-7.558,1.975-3.4-2.5-1.5-5.2.272-7.625,10.852-14.844,16.885-31.359,19.149-49.678,2.8-22.7,10.545-43.7,24.149-62.446,5.5-7.583,11.248-14.856,18.087-21.221a101.876,101.876,0,0,1,9.064-7.138A6.389,6.389,0,0,0,80.1,55.195c.846-7.03,5.568-10.1,13.448-9.13,4.331.532,8.518,5.855,8.368,10.637A10.774,10.774,0,0,1,91.745,66.971" fill="#0e0e0e"/>
    <path id="Path_158065" data-name="Path 158065" d="M216.051,166.385c-.044,13.159-2.546,25.948-5.486,38.734a287.173,287.173,0,0,1-14.591,46.529c-8.56,20.491-18.839,40.079-32.035,58.035-3.36,4.572-6.635,9.2-9.992,13.778a5.566,5.566,0,0,1-7.2,1.412,4.146,4.146,0,0,1-.347-6.783,27.04,27.04,0,0,0,2.255-3.142,268.5,268.5,0,0,0,44.459-81.811,308.538,308.538,0,0,0,12.136-47.7,146.194,146.194,0,0,0,1.738-25.47c-.013-2.65-1.567-5.265-1.831-7.953-.2-2.049-1.39-5.118,1.98-5.807,2.992-.612,5.728-.391,7,3.577a48.547,48.547,0,0,1,1.915,16.6" fill="#cb071e"/>
    <path id="Path_158066" data-name="Path 158066" d="M89.153,306.361c-.262-2.756,1.572-4.464,3.368-6.251a212.617,212.617,0,0,0,40.872-57.8c8.406-17.177,14.97-35.17,18.556-54.1.4-2.1-.8-3.3-1.969-4.775-4.163-5.28-2.517-13.09,3.209-16.006,4.131-2.1,10.791-.77,13.355,2.673,3.169,4.257,3.342,10.464-1,13.625-4.571,3.33-5.736,7.777-6.354,12.456-1.834,13.9-7.355,26.593-12.562,39.345-9.387,22.991-23.195,43.37-38.815,62.5-3.169,3.881-6.8,7.48-10.13,11.3a5.745,5.745,0,0,1-5.94,1.456,3.917,3.917,0,0,1-2.593-4.422" fill="#ffbd00"/>
    <path id="Path_158067" data-name="Path 158067" d="M319.973,164.915c.329,14.522-.114,27.794-4.712,40.562-.834,2.315.554,4.041,1.478,5.924,2.742,5.588,1.162,11.074-4.108,14.467-4.026,2.593-9.221,1.427-13.159-2.787-3.562-3.811-3.258-8.663-.037-13.906a1.632,1.632,0,0,1,.719-.677c10.466-3.856,7.661-13.88,10.009-21.5,2.058-6.684,1.423-13.765,1.392-20.435a143.913,143.913,0,0,0-4.889-38.439c-4.348-15.449-10.06-30.2-19.118-43.551-1.722-2.536-3.13-5.914-.226-7.848,3.066-2.042,6.179-.509,8.268,2.852A161.529,161.529,0,0,1,316.069,128c2.959,12.545,4.666,25.174,3.9,36.914" fill="#0a0b0b"/>
    <path id="Path_158068" data-name="Path 158068" d="M267.035,182.713A317.163,317.163,0,0,1,259.65,224.9a346.588,346.588,0,0,1-24.415,67.125,5.951,5.951,0,0,0-.26,5.5,10.354,10.354,0,0,1-6.724,14.131c-6.573,1.932-12.039-1.473-14.115-8.366-1.415-4.7,3.43-11.221,8.866-12.155a4.462,4.462,0,0,0,3.722-2.685,355.842,355.842,0,0,0,20.327-51.67c4.837-16.354,8.077-33.091,10.929-49.9.385-2.264-.17-4.546.457-6.886.836-3.117,2.647-4.286,5.584-3.875,2.976.416,3.337,2.6,3.023,5.1a12.05,12.05,0,0,0-.009,1.5" fill="#0e0e0e"/>
    <path id="Path_158069" data-name="Path 158069" d="M159.036,89.164c.049,8-7.4,13.136-14.781,9.739-6.165-2.84-11-.987-16.61,1.894-7.56,3.884-14.536,8.378-20.222,14.55-4.834,5.248-8.263,11.55-12.011,17.675-7.446,12.168-7.618,25.7-10.3,38.793-.725,3.549-1.926,6.582-5.839,5.732-3.369-.732-4.12-3.354-3.326-7.241,1.987-9.723,2.294-19.826,5.261-29.317a83.254,83.254,0,0,1,11.976-23.455c7.579-10.595,17.638-18.513,28.62-25.181,3.639-2.21,8.2-2.889,12.328-4.306,2.129-.731,3.94-1.415,5.131-3.937,2.184-4.625,7.362-6.33,12.534-4.968,4.44,1.17,7.2,5,7.234,10.022" fill="#ffbd00"/>
    <path id="Path_158070" data-name="Path 158070" d="M125.528,320.08c-5.235,0-10.359-5.225-10.513-10.72-.168-6.024,3.591-10.191,9.857-10.192,2.811,0,4.39-1.433,5.732-3.216a259.914,259.914,0,0,0,30.733-51.888c.8-1.824.592-4.909,3.717-4.931,1.869-.014,4.312-1.079,5.476,1.143,1,1.9.627,3.988-.277,6.144a254.911,254.911,0,0,1-31.847,54.636c-1.658,2.2-2.684,4.094-2.03,7.148,1.312,6.118-4.218,11.876-10.848,11.876" fill="#0e0e0e"/>
    <path id="Path_158071" data-name="Path 158071" d="M71.9,189.059c7.477-.012,9.544,1.371,10.92,7.311a11.114,11.114,0,0,1-6.908,12.6c-3.409,1.254-5.2,3.448-6.639,6.45-7.9,16.471-19.013,30.563-32.2,43.091-1.562,1.484-2.846,4.054-5.672,1.5-2.73-2.468-2.962-5.09-.877-7.9a33.1,33.1,0,0,1,3.846-3.9,137.346,137.346,0,0,0,27.959-38.871c.912-1.847,1.569-3.046.247-5.589-3.234-6.222.9-16.387,9.322-14.695" fill="#ffbd00"/>
    <path id="Path_158072" data-name="Path 158072" d="M14.6,103.064c5.551.014,8.561,2.22,10.119,7.414,1.178,3.928-.487,10.03-4.3,11.094-6.214,1.734-6.419,6.657-7.308,11.142-2.034,10.256-3.75,20.589-4.065,31.081A4.033,4.033,0,0,1,5.7,168.013c-2.318.521-3.957-.264-5.073-2.712A7.949,7.949,0,0,1,.069,161c1.145-11.785,2.145-23.63,5.16-35.1a11.967,11.967,0,0,0-.648-8.392c-3.213-7.672,1.644-15.966,10.023-14.449" fill="#0a0b0b"/>
    <path id="Path_158073" data-name="Path 158073" d="M86.71,270.06c4.7-.036,6.839,3.217,4.2,6.775A136.55,136.55,0,0,1,73.5,295.916c-1.9,1.747-4.922,2.034-6.344.421a5.951,5.951,0,0,1,.379-8.168c3.5-3.78,7.234-7.35,10.889-10.989,1.487-1.481,3.225-2.609,4.05-4.812a3.581,3.581,0,0,1,4.24-2.308" fill="#101111"/>
    <path id="Path_158074" data-name="Path 158074" d="M294.029,177.08c-.077-1.715-.729-3.509.7-5.016-.084,1.693.489,3.476-.7,5.016" fill="#313131"/>
    <path id="Path_158075" data-name="Path 158075" d="M294.576,160.07c-1.173-1.215-.641-2.654-.532-4.038,1.228,1.208.563,2.665.532,4.038" fill="#313131"/>
    <path id="Path_158076" data-name="Path 158076" d="M357.15,17.146q-.2.486-.389.971c-.678-.646-.4-.912.389-.971" fill="#b2b1b1"/>
    <path id="Path_158077" data-name="Path 158077" d="M233.234,174.3l.2.288s-.263.267-.262.263a.371.371,0,0,1,.065-.551" fill="#f8ae94"/>
    <path id="Path_158078" data-name="Path 158078" d="M356.762,168.021c.034.361.067.723.1,1.084-.541-.314-.883-.646-.1-1.084" fill="#b2b1b1"/>
    <path id="Path_158079" data-name="Path 158079" d="M1755.762,109.051c-19.037,0-36.716.1-54.391-.143-2.023-.028-4.966-1.5-5.882-3.177-9.748-17.805-26.743-14.4-42.235-14.046-10.9.246-20.543,5.149-20.925,17.412-.393,12.632,9.678,16.321,20.257,18.186,21.684,3.825,43.657,6.467,64.991,11.7,28.577,7.011,43.917,27.811,46.6,55.748,2.533,26.328-7.111,48.512-31.341,63.168-38.023,23-104.339,19.763-139.511-6.859-18.061-13.672-23.426-32.7-27.145-55.251,20.359,0,39.495-.289,58.6.315,2.817.089,5.958,4.046,8.17,6.826,13.414,16.856,41.762,21.819,60.041,10.288,10.62-6.7,9.825-21.129-3.054-25.908-13.254-4.919-27.888-6.1-41.861-9.167-12.619-2.773-25.589-4.726-37.642-9.115-20.908-7.614-37.23-21.128-40.481-44.419-3.542-25.376,1.54-48.964,22.689-66.092,35.79-28.986,108.134-26.744,141.17,4.1,12.547,11.713,21.242,25.534,21.943,46.435" fill="#ec4119"/>
    <path id="Path_158080" data-name="Path 158080" d="M1534.026,111.313c-20.495,0-35.84.274-51.161-.188-3.961-.118-9.545-1.355-11.5-4.108-12.351-17.406-30.008-15.648-46.815-12.007-6.068,1.316-14.4,10.247-14.486,15.808-.08,5.37,8.314,14.195,14.43,15.705,19,4.692,38.853,5.872,58.077,9.838,22,4.536,40.76,15.1,50.726,36.311,15.415,32.813,2.22,70.886-31.013,86.115-40.095,18.372-81.262,18.5-121.213-.5-24.916-11.849-37.951-32.643-37.776-62.091,19.849,0,39.242-.173,58.625.246,2.125.045,4.4,3.29,6.226,5.383,14.4,16.539,34.946,22.069,54.192,13.137,4.889-2.269,11.129-8.434,11.078-12.743-.062-5.291-5.05-13.688-9.7-15.171-13.966-4.452-28.864-5.916-43.279-9.08-12.611-2.768-25.63-4.869-37.48-9.68-40.855-16.587-49.932-58.212-26.322-92.386,34.2-49.507,134.124-46.714,166.042,4.214,5.027,8.023,6.718,18.118,11.346,31.194" fill="#ec4119"/>
    <path id="Path_158081" data-name="Path 158081" d="M458.4,265.921c-63.448,0-115.066-46.582-115.066-103.839V7.277h60.789V162.082c0,23.334,24.856,43.049,54.277,43.049s54.277-19.715,54.277-43.049h60.789c0,57.257-51.618,103.839-115.066,103.839" fill="#050605"/>
    <path id="Path_158082" data-name="Path 158082" d="M927.353,8.518a128.848,128.848,0,0,0-128.7,128.7c0,.6.038,1.2.046,1.8a26.045,26.045,0,0,0-1.131,7.593V326.853h62.961l-1.955-80.935a128.672,128.672,0,1,0,68.78-237.4m0,196.613a67.911,67.911,0,1,1,67.912-67.911,67.987,67.987,0,0,1-67.912,67.911" fill="#ec4119"/>
    <path id="Path_158083" data-name="Path 158083" d="M1319.682,249.469h-51.995c-1.369-4.939-2.606-9.4-4.369-15.757-4.441,1.9-8.363,3.09-11.794,5.11-53.273,31.379-141.165,7.524-163.113-48.591-26.751-68.4,1.55-143.612,83.313-158.609,29.908-5.485,58.949-2.93,86.544,9.1,35.629,15.535,57.309,44.421,60.585,81.924,3.626,41.5.829,83.554.829,126.82M1262.476,143.9c.335-40.19-22.321-63.692-61.728-64.034-36.643-.318-62.933,24.717-63.449,60.421-.5,34.71,24.966,60.383,60.776,61.269,36.2.895,64.122-24.1,64.4-57.656" fill="#ec4119"/>
    <path id="Path_158084" data-name="Path 158084" d="M772.807,132.96C772.807,59.646,713.161,0,639.845,0S506.884,59.646,506.884,132.96s59.647,132.961,132.961,132.961a132.913,132.913,0,0,0,18.353-1.307V202.677a72.125,72.125,0,1,1,53.82-69.717,72.6,72.6,0,0,1-.449,7.86h.449V273.679h-.464c-2.4,32.432-29.262,58.172-62.3,58.172H621.128a63.051,63.051,0,0,1-54.278-31.225l-.356.208-63.2-5.376,11.056,35.766-.022.013c.016.027.035.053.051.081l.263.852.2-.119a124.026,124.026,0,0,0,106.287,60.59h28.129a123.69,123.69,0,0,0,123.55-123.55V142.9c0-1.746-.047-3.488-.119-5.227.054-1.568.119-3.133.119-4.714" fill="#050605"/>
    <path id="Path_158085" data-name="Path 158085" d="M1075.432,332.175l3.908-8.844a24.693,24.693,0,0,0,11.878,3.291c3.445,0,4.679-.72,4.679-1.953,0-4.526-19.9-.875-19.9-14.3,0-6.684,5.606-12.135,16.763-12.135a28.571,28.571,0,0,1,13.575,3.137l-3.65,8.793a22.216,22.216,0,0,0-10.027-2.673c-3.548,0-4.679,1.027-4.679,2.262,0,4.319,19.9.72,19.9,13.985,0,6.582-5.6,12.135-16.763,12.135-6.016,0-12.084-1.49-15.684-3.7" fill="#1a1818"/>
    <path id="Path_158086" data-name="Path 158086" d="M1141.412,325.9v9.153h-29.924V299.062h29.256v9.153h-17.328v4.215h15.22v8.741h-15.22V325.9Z" fill="#1a1818"/>
    <path id="Path_158087" data-name="Path 158087" d="M1144.66,317.058c0-11.056,8.483-18.82,20.052-18.82,7.045,0,12.6,2.571,16.147,7.2l-7.662,6.838c-2.108-2.673-4.629-4.215-7.868-4.215-5.039,0-8.432,3.495-8.432,9s3.393,9,8.432,9c3.239,0,5.76-1.542,7.868-4.217l7.662,6.84c-3.549,4.627-9.1,7.2-16.147,7.2-11.569,0-20.052-7.762-20.052-18.818" fill="#1a1818"/>
    <path id="Path_158088" data-name="Path 158088" d="M1183.543,318.857V299.062h12.135V318.5c0,5.5,2.107,7.558,5.5,7.558s5.5-2.057,5.5-7.558V299.062h11.93v19.795c0,10.8-6.479,17.02-17.535,17.02s-17.533-6.221-17.533-17.02" fill="#1a1818"/>
    <path id="Path_158089" data-name="Path 158089" d="M1239.6,326h-3.291v9.05h-12.134V299.062H1241.5c10.027,0,16.4,5.244,16.4,13.574a12.058,12.058,0,0,1-6.788,11.313l7.558,11.1h-12.957Zm1.131-17.585h-4.422v8.433h4.422c3.341,0,4.935-1.6,4.935-4.216s-1.594-4.217-4.935-4.217" fill="#1a1818"/>
    <path id="Path_158090" data-name="Path 158090" d="M1292.416,325.9v9.153h-29.924V299.062h29.256v9.153H1274.42v4.215h15.22v8.741h-15.22V325.9Z" fill="#1a1818"/>
    <path id="Path_158091" data-name="Path 158091" d="M1333.924,321.994v13.061h-12.135V321.84l-13.574-22.778h12.8l7.354,12.444,7.4-12.444H1347.5Z" fill="#1a1818"/>
    <path id="Path_158092" data-name="Path 158092" d="M1346.07,317.058c0-10.9,8.587-18.82,20.31-18.82s20.311,7.919,20.311,18.82-8.587,18.818-20.311,18.818-20.31-7.917-20.31-18.818m28.382,0c0-5.605-3.6-9-8.072-9s-8.073,3.393-8.073,9,3.6,9,8.073,9,8.072-3.393,8.072-9" fill="#1a1818"/>
    <path id="Path_158093" data-name="Path 158093" d="M1390.815,318.857V299.062h12.134V318.5c0,5.5,2.108,7.558,5.5,7.558s5.5-2.057,5.5-7.558V299.062h11.93v19.795c0,10.8-6.479,17.02-17.535,17.02s-17.533-6.221-17.533-17.02" fill="#1a1818"/>
    <path id="Path_158094" data-name="Path 158094" d="M1446.872,326h-3.291v9.05h-12.134V299.062h17.326c10.027,0,16.4,5.244,16.4,13.574a12.058,12.058,0,0,1-6.788,11.313l7.558,11.1H1452.99ZM1448,308.419h-4.422v8.433H1448c3.341,0,4.935-1.6,4.935-4.216s-1.594-4.217-4.935-4.217" fill="#1a1818"/>
    <rect id="Rectangle_60495" data-name="Rectangle 60495" width="12.135" height="35.993" transform="translate(1485.194 299.062)" fill="#1a1818"/>
    <path id="Path_158095" data-name="Path 158095" d="M1503.194,299.062h17.739c12.031,0,20.311,6.838,20.311,18s-8.28,18-20.311,18h-17.739Zm17.224,26.531c5.092,0,8.587-3.034,8.587-8.535s-3.495-8.537-8.587-8.537h-5.09v17.072Z" fill="#1a1818"/>
    <path id="Path_158096" data-name="Path 158096" d="M1575.6,325.9v9.153h-29.924V299.062h29.256v9.153H1557.6v4.215h15.22v8.741H1557.6V325.9Z" fill="#1a1818"/>
    <path id="Path_158097" data-name="Path 158097" d="M1615.77,299.062v35.993h-9.977L1592.117,318.7v16.352h-11.826V299.062h9.975l13.676,16.35v-16.35Z" fill="#1a1818"/>
    <path id="Path_158098" data-name="Path 158098" d="M1629.458,308.471h-10.54v-9.409h33.215v9.409h-10.54v26.583h-12.135Z" fill="#1a1818"/>
    <rect id="Rectangle_60496" data-name="Rectangle 60496" width="12.135" height="35.993" transform="translate(1655.278 299.062)" fill="#1a1818"/>
    <path id="Path_158099" data-name="Path 158099" d="M1681.095,308.471h-10.54v-9.409h33.215v9.409h-10.54v26.583h-12.135Z" fill="#1a1818"/>
    <path id="Path_158100" data-name="Path 158100" d="M1727.278,321.994v13.061h-12.135V321.84l-13.574-22.778h12.8l7.354,12.444,7.4-12.444h11.723Z" fill="#1a1818"/>
    <path id="Path_158101" data-name="Path 158101" d="M1782.359,328.781h-13.677l-2.416,6.273h-12.341l15.734-35.992h11.928l15.736,35.992h-12.548Zm-3.343-8.741-3.495-9.05-3.5,9.05Z" fill="#1a1818"/>
    <path id="Path_158102" data-name="Path 158102" d="M1797.025,332.175l3.908-8.844a24.693,24.693,0,0,0,11.878,3.291c3.445,0,4.679-.72,4.679-1.953,0-4.526-19.9-.875-19.9-14.3,0-6.684,5.605-12.135,16.762-12.135a28.571,28.571,0,0,1,13.575,3.137l-3.65,8.793a22.212,22.212,0,0,0-10.027-2.673c-3.547,0-4.678,1.027-4.678,2.262,0,4.319,19.9.72,19.9,13.985,0,6.582-5.605,12.135-16.763,12.135-6.016,0-12.084-1.49-15.684-3.7" fill="#1a1818"/>
    <path id="Path_158103" data-name="Path 158103" d="M1099.085,383.714v13.061H1086.95V383.56l-13.574-22.778h12.8l7.354,12.444,7.4-12.444h11.723Z" fill="#1a1818"/>
    <path id="Path_158104" data-name="Path 158104" d="M1111.229,378.778c0-10.9,8.587-18.82,20.31-18.82s20.311,7.919,20.311,18.82-8.587,18.818-20.311,18.818-20.31-7.917-20.31-18.818m28.382,0c0-5.605-3.6-9-8.072-9s-8.073,3.393-8.073,9,3.6,9,8.073,9,8.072-3.393,8.072-9" fill="#1a1818"/>
    <path id="Path_158105" data-name="Path 158105" d="M1155.976,380.577V360.782h12.135v19.436c0,5.5,2.107,7.558,5.5,7.558s5.5-2.057,5.5-7.558V360.782h11.93v19.795c0,10.8-6.479,17.02-17.535,17.02s-17.533-6.221-17.533-17.02" fill="#1a1818"/>
    <path id="Path_158106" data-name="Path 158106" d="M1236.563,390.5h-13.677l-2.416,6.273h-12.341l15.734-35.992h11.928l15.736,35.992h-12.548Zm-3.343-8.741-3.495-9.05-3.5,9.05Z" fill="#1a1818"/>
    <path id="Path_158107" data-name="Path 158107" d="M1251.538,378.778c0-11.056,8.483-18.82,20.052-18.82,7.045,0,12.6,2.571,16.147,7.2l-7.663,6.838c-2.107-2.673-4.628-4.215-7.867-4.215-5.039,0-8.432,3.495-8.432,9s3.393,9,8.432,9c3.239,0,5.76-1.542,7.867-4.217l7.663,6.84c-3.549,4.627-9.1,7.2-16.147,7.2-11.569,0-20.052-7.762-20.052-18.818" fill="#1a1818"/>
    <path id="Path_158108" data-name="Path 158108" d="M1289.032,378.778c0-11.056,8.483-18.82,20.052-18.82,7.045,0,12.6,2.571,16.147,7.2l-7.662,6.838c-2.108-2.673-4.629-4.215-7.867-4.215-5.04,0-8.433,3.495-8.433,9s3.393,9,8.433,9c3.238,0,5.759-1.542,7.867-4.217l7.662,6.84c-3.549,4.627-9.1,7.2-16.147,7.2-11.569,0-20.052-7.762-20.052-18.818" fill="#1a1818"/>
    <path id="Path_158109" data-name="Path 158109" d="M1358.662,387.622v9.153h-29.924V360.782h29.256v9.153h-17.328v4.215h15.22v8.741h-15.22v4.731Z" fill="#1a1818"/>
    <path id="Path_158110" data-name="Path 158110" d="M1361.086,393.895l3.908-8.844a24.685,24.685,0,0,0,11.877,3.291c3.447,0,4.68-.72,4.68-1.953,0-4.526-19.9-.875-19.9-14.3,0-6.684,5.6-12.135,16.762-12.135a28.578,28.578,0,0,1,13.576,3.137l-3.65,8.793a22.215,22.215,0,0,0-10.027-2.673c-3.547,0-4.678,1.027-4.678,2.262,0,4.319,19.9.72,19.9,13.985,0,6.582-5.6,12.135-16.762,12.135-6.016,0-12.084-1.49-15.684-3.7" fill="#1a1818"/>
    <path id="Path_158111" data-name="Path 158111" d="M1394.877,393.895l3.908-8.844a24.692,24.692,0,0,0,11.878,3.291c3.445,0,4.679-.72,4.679-1.953,0-4.526-19.9-.875-19.9-14.3,0-6.684,5.6-12.135,16.762-12.135a28.572,28.572,0,0,1,13.575,3.137l-3.65,8.793a22.212,22.212,0,0,0-10.027-2.673c-3.547,0-4.679,1.027-4.679,2.262,0,4.319,19.9.72,19.9,13.985,0,6.582-5.6,12.135-16.763,12.135-6.016,0-12.084-1.49-15.684-3.7" fill="#1a1818"/>
    <path id="Path_158112" data-name="Path 158112" d="M1476.287,387.622v9.153h-29.924V360.782h29.256v9.153h-17.328v4.215h15.22v8.741h-15.22v4.731Z" fill="#1a1818"/>
    <rect id="Rectangle_60497" data-name="Rectangle 60497" width="15.425" height="8.741" transform="translate(1479.33 377.543)" fill="#1a1818"/>
    <path id="Path_158113" data-name="Path 158113" d="M1497.228,393.895l3.908-8.844a24.693,24.693,0,0,0,11.878,3.291c3.445,0,4.679-.72,4.679-1.953,0-4.526-19.9-.875-19.9-14.3,0-6.684,5.605-12.135,16.762-12.135a28.571,28.571,0,0,1,13.575,3.137l-3.65,8.793a22.212,22.212,0,0,0-10.027-2.673c-3.547,0-4.679,1.027-4.679,2.262,0,4.319,19.9.72,19.9,13.985,0,6.582-5.605,12.135-16.763,12.135-6.016,0-12.084-1.49-15.684-3.7" fill="#1a1818"/>
    <path id="Path_158114" data-name="Path 158114" d="M1563.208,387.622v9.153h-29.924V360.782h29.256v9.153h-17.328v4.215h15.22v8.741h-15.22v4.731Z" fill="#1a1818"/>
    <path id="Path_158115" data-name="Path 158115" d="M1583.323,387.724h-3.291v9.05H1567.9V360.782h17.326c10.027,0,16.4,5.244,16.4,13.574a12.058,12.058,0,0,1-6.788,11.313l7.558,11.1h-12.957Zm1.131-17.585h-4.422v8.433h4.422c3.341,0,4.935-1.6,4.935-4.216s-1.594-4.217-4.935-4.217" fill="#1a1818"/>
    <path id="Path_158116" data-name="Path 158116" d="M1644.675,360.782l-15.221,35.993h-11.93L1602.3,360.782h13.061l8.587,21.03,8.792-21.03Z" fill="#1a1818"/>
    <rect id="Rectangle_60498" data-name="Rectangle 60498" width="12.135" height="35.993" transform="translate(1645.869 360.782)" fill="#1a1818"/>
    <path id="Path_158117" data-name="Path 158117" d="M1662.429,378.778c0-11.056,8.483-18.82,20.052-18.82,7.045,0,12.6,2.571,16.147,7.2l-7.663,6.838c-2.107-2.673-4.628-4.215-7.867-4.215-5.039,0-8.432,3.495-8.432,9s3.393,9,8.432,9c3.239,0,5.76-1.542,7.867-4.217l7.663,6.84c-3.549,4.627-9.1,7.2-16.147,7.2-11.569,0-20.052-7.762-20.052-18.818" fill="#1a1818"/>
    <path id="Path_158118" data-name="Path 158118" d="M1732.059,387.622v9.153h-29.924V360.782h29.256v9.153h-17.328v4.215h15.22v8.741h-15.22v4.731Z" fill="#1a1818"/>
    <path id="Path_158119" data-name="Path 158119" d="M1734.485,393.895l3.908-8.844a24.69,24.69,0,0,0,11.878,3.291c3.445,0,4.679-.72,4.679-1.953,0-4.526-19.9-.875-19.9-14.3,0-6.684,5.6-12.135,16.762-12.135a28.574,28.574,0,0,1,13.575,3.137l-3.65,8.793a22.212,22.212,0,0,0-10.027-2.673c-3.547,0-4.679,1.027-4.679,2.262,0,4.319,19.9.72,19.9,13.985,0,6.582-5.6,12.135-16.763,12.135-6.016,0-12.084-1.49-15.684-3.7" fill="#1a1818"/>
  </g>
</svg>
