<?xml version="1.0" encoding="UTF-8"?>
<svg id="Layer_1" data-name="Layer 1" xmlns="http://www.w3.org/2000/svg" xmlns:xlink="http://www.w3.org/1999/xlink" viewBox="0 0 69.74 74.24">
  <defs>
    <style>
      .cls-1 {
        fill: url(#linear-gradient-2);
      }

      .cls-2 {
        fill: #fff;
      }

      .cls-3 {
        fill: url(#linear-gradient-5);
      }

      .cls-4 {
        fill: url(#linear-gradient-3);
      }

      .cls-5 {
        fill: url(#linear-gradient);
      }

      .cls-6 {
        fill: #f3f3f3;
      }

      .cls-7 {
        fill: url(#linear-gradient-4);
      }
    </style>
    <linearGradient id="linear-gradient" x1="2.42" y1="17.95" x2="22.16" y2="44.49" gradientUnits="userSpaceOnUse">
      <stop offset="0" stop-color="#3db54a"/>
      <stop offset="1" stop-color="#046937"/>
    </linearGradient>
    <linearGradient id="linear-gradient-2" x1="24.59" y1="18.29" x2="35.54" y2="18.29" xlink:href="#linear-gradient"/>
    <linearGradient id="linear-gradient-3" x1="43.66" y1="4.32" x2="58.63" y2="23.72" gradientUnits="userSpaceOnUse">
      <stop offset="0" stop-color="#6ac0ec"/>
      <stop offset="1" stop-color="#4683c4"/>
    </linearGradient>
    <linearGradient id="linear-gradient-4" x1="44.55" y1="-11.51" x2="71.77" y2="14.36" xlink:href="#linear-gradient-3"/>
    <linearGradient id="linear-gradient-5" x1="19.6" y1="53.92" x2="60.24" y2="53.92" gradientUnits="userSpaceOnUse">
      <stop offset="0" stop-color="#e82c52"/>
      <stop offset="1" stop-color="#c72026"/>
    </linearGradient>
  </defs>
  <g>
    <path class="cls-5" d="m20.72,12.35H3.41c-1.88,0-3.41,1.52-3.41,3.41v33.64c0,1.88,1.52,3.41,3.41,3.41h29.86c1.88,0,3.41-1.52,3.41-3.41v-20.09c0-1.84-1.47-3.35-3.31-3.4l-7.43-.21c-1.61-.05-2.9-1.39-2.95-3.07l-.23-8.28c-.03-1.1-.93-1.98-2.04-1.98Z"/>
    <path class="cls-1" d="m25.37,12.62l10.05,10.72c.28.29.06.77-.34.76l-9.07-.32c-.81,0-1.45-.67-1.41-1.48v-9.38c0-.41.5-.61.78-.31Z"/>
    <g>
      <polygon class="cls-6" points="19.06 28.12 19.06 29.51 26.27 29.51 26.14 42.16 19.06 42.26 19.06 43.96 27.74 43.83 27.74 28.12 19.06 28.12"/>
      <rect class="cls-6" x="19.06" y="31.46" width="7.98" height=".72"/>
      <rect class="cls-6" x="19.06" y="34.13" width="7.98" height=".72"/>
      <rect class="cls-6" x="19.06" y="36.8" width="7.98" height=".72"/>
      <rect class="cls-6" x="19.06" y="39.46" width="7.98" height=".72"/>
      <rect class="cls-6" x="22.3" y="28.51" width=".68" height="14.5"/>
      <path class="cls-6" d="m6.31,27.92v16.17l12.16,2.08v-20.38l-12.16,2.13Zm8.7,11.7l-1.67-.15-1.18-2.67-1.13,2.46-1.54.03,1.82-3.39-1.69-3.41h1.54l1.08,2.57,1.15-2.69,1.62-.18-1.84,3.58,1.84,3.86Z"/>
    </g>
  </g>
  <g>
    <path class="cls-4" d="m57.76,0h-13c-1.41,0-2.56,1.15-2.56,2.56v25.26c0,1.41,1.15,2.56,2.56,2.56h22.42c1.41,0,2.56-1.15,2.56-2.56v-15.09c0-1.38-1.1-2.52-2.48-2.56l-5.58-.16c-1.21-.03-2.18-1.05-2.21-2.3l-.17-6.22c-.02-.83-.7-1.49-1.53-1.49Z"/>
    <path class="cls-7" d="m61.26.2l7.55,8.05c.21.22.04.58-.26.57l-6.81-.24c-.61,0-1.09-.5-1.06-1.11V.43c0-.31.37-.46.58-.23Z"/>
    <path class="cls-2" d="m52.67,22.22l2.47-7.95h1.68l2.47,7.95,2.78-7.95h2.01l-3.86,11.05h-1.85l-2.32-7.57h-.13l-2.32,7.57h-1.85l-3.86-11.05h2.01l2.78,7.95Z"/>
  </g>
  <g>
    <rect class="cls-3" x="19.6" y="33.59" width="40.65" height="40.65" rx="7.56" ry="7.56"/>
    <path class="cls-2" d="m40.43,46.9c0,.65-.09,1.29-.22,1.93-.21,1.04-.5,2.06-.83,3.07-.02.08-.02.13.02.21.67,1.28,1.48,2.45,2.46,3.51.26.29.55.56.82.83.02.02.08.04.11.03.91-.13,1.82-.25,2.74-.3.59-.03,1.18-.02,1.77.04.61.06,1.22.17,1.78.42.33.15.62.35.84.65.34.47.35,1.09,0,1.51-.22.28-.52.43-.86.52-.45.12-.9.12-1.35.07-1.48-.15-2.8-.74-4.01-1.58-.37-.26-.71-.55-1.07-.82-.03-.02-.08-.04-.11-.03-1.41.25-2.8.58-4.17.99-.54.16-1.08.34-1.63.51-.08.03-.14.07-.18.15-.51.9-1.05,1.77-1.66,2.6-.44.6-.91,1.18-1.44,1.71-.48.48-1,.91-1.61,1.21-.57.27-1.16.38-1.77.2-.54-.16-.9-.5-1-1.07-.06-.35.04-.66.21-.96.23-.4.55-.71.9-1.01.65-.55,1.38-1,2.13-1.41.84-.46,1.71-.86,2.59-1.23.06-.03.1-.06.13-.12.63-1.23,1.21-2.48,1.75-3.75.51-1.21.98-2.43,1.42-3.67.02-.07.02-.13,0-.19-.34-.76-.62-1.54-.82-2.34-.19-.77-.33-1.55-.33-2.34,0-.5.04-1,.23-1.47.28-.71.95-1.04,1.69-.84.5.14.84.48,1.07.93.24.47.35.97.39,1.49.01.18,0,.36,0,.54Zm-3.54,11.06c1.75-.6,3.53-1.07,5.36-1.41-.59-.62-1.14-1.25-1.64-1.92-.51-.67-.97-1.36-1.41-2.1-.6,1.9-1.37,3.7-2.31,5.43Zm-2.25,1.28s-.03,0-.03,0c-1.11.45-2.18.96-3.19,1.61-.51.33-1,.69-1.42,1.14-.22.24-.41.5-.51.82-.15.5.15,1.22.97,1.05.3-.06.56-.22.81-.4.53-.38.97-.85,1.38-1.34.7-.83,1.3-1.74,1.86-2.66.04-.07.08-.14.13-.22Zm8.48-2.43s.05.04.06.06c.23.18.46.36.69.53.81.59,1.68,1.07,2.65,1.34.34.09.67.18,1.03.16.33-.02.63-.11.89-.32.46-.38.52-1.02.13-1.45-.23-.26-.54-.39-.87-.45-.5-.09-1.01-.1-1.51-.1-.8,0-1.6.04-2.39.14-.22.03-.44.06-.68.09Zm-4.7-6.4s.01,0,.02,0c0-.01.01-.02.01-.04.36-1.09.66-2.19.83-3.32.08-.52.15-1.03.1-1.56-.02-.27-.09-.53-.24-.76-.13-.2-.3-.35-.54-.41-.36-.08-.77.12-.92.47-.08.19-.14.39-.18.59-.13.67-.08,1.35.02,2.02.12.81.35,1.6.63,2.37.08.21.17.43.25.64Z"/>
  </g>
</svg>