<svg xmlns="http://www.w3.org/2000/svg" xmlns:xlink="http://www.w3.org/1999/xlink" width="1000.092" height="530.092" viewBox="0 0 1000.092 530.092">
  <defs>
    <clipPath id="clip-path">
      <rect id="Rectangle_64089" data-name="Rectangle 64089" width="530.092" height="1000.092" fill="none" stroke="#fafafa" stroke-width="1"/>
    </clipPath>
  </defs>
  <g id="Group_153845" data-name="Group 153845" transform="translate(1000.092) rotate(90)" opacity="0.78">
    <path id="Path_161265" data-name="Path 161265" d="M40.008,410.752V190.706L0,150.7V0" transform="translate(4.909 237.33)" fill="none" stroke="#ededed" stroke-miterlimit="10" stroke-width="1"/>
    <path id="Path_161266" data-name="Path 161266" d="M0,0V85.351L39.564,124.47V411.641" transform="translate(18.689 299.121)" fill="none" stroke="#fafafa" stroke-miterlimit="10" stroke-width="1"/>
    <path id="Path_161267" data-name="Path 161267" d="M0,241.606V179.815l21.338-21.782V18.893L40.231,0" transform="translate(64.921 442.928)" fill="none" stroke="#fafafa" stroke-miterlimit="10" stroke-width="1"/>
    <line id="Line_1439" data-name="Line 1439" y1="45.565" x2="45.565" transform="translate(82.703 585.18)" fill="none" stroke="#ededed" stroke-miterlimit="10" stroke-width="1"/>
    <path id="Path_161268" data-name="Path 161268" d="M0,139.418V21.171L21.171,0" transform="translate(105.485 448.207)" fill="none" stroke="#fafafa" stroke-miterlimit="10" stroke-width="1"/>
    <g id="Group_153838" data-name="Group 153838">
      <g id="Group_153837" data-name="Group 153837" clip-path="url(#clip-path)">
        <path id="Path_161269" data-name="Path 161269" d="M0,275.613V143.141S59.123,84.462,58.679,84.462,58.679,0,58.679,0" transform="translate(87.593 502.274)" fill="none" stroke="#fafafa" stroke-miterlimit="10" stroke-width="1"/>
        <path id="Path_161270" data-name="Path 161270" d="M0,86.685V19.115L19.116,0" transform="translate(98.261 653.861)" fill="none" stroke="#fafafa" stroke-miterlimit="10" stroke-width="1"/>
        <path id="Path_161271" data-name="Path 161271" d="M0,326.734,36.535,290.2V116.913L62.527,90.921V0" transform="translate(126.656 317.347)" fill="none" stroke="#fafafa" stroke-miterlimit="10" stroke-width="1"/>
        <path id="Path_161272" data-name="Path 161272" d="M0,284.79V208.774l18.133-20.255L17.753,0" transform="translate(128.268 277.052)" fill="none" stroke="#fafafa" stroke-miterlimit="10" stroke-width="1"/>
        <path id="Path_161273" data-name="Path 161273" d="M25.783,112.245V55.567L0,29.783V0" transform="translate(98.706 307.568)" fill="none" stroke="#fafafa" stroke-miterlimit="10" stroke-width="1"/>
        <path id="Path_161274" data-name="Path 161274" d="M61.568,346.182v-48.9l-18.716-17.9,1.6-140.355L0,94.574V0" transform="translate(43.584 79.188)" fill="none" stroke="#fafafa" stroke-miterlimit="10" stroke-width="1"/>
        <path id="Path_161275" data-name="Path 161275" d="M53.122,256.942,34.9,238.716V97.353L0,62.457V0" transform="translate(23.357 131.531)" fill="none" stroke="#fafafa" stroke-miterlimit="10" stroke-width="1"/>
        <path id="Path_161276" data-name="Path 161276" d="M51.122,123.137V52.456L0,0" transform="translate(62.698 156.869)" fill="none" stroke="#fafafa" stroke-miterlimit="10" stroke-width="1"/>
        <path id="Path_161277" data-name="Path 161277" d="M24.338,61.791l2.223-36.452L0,0" transform="translate(74.368 188.431)" fill="none" stroke="#fafafa" stroke-miterlimit="10" stroke-width="1"/>
        <path id="Path_161278" data-name="Path 161278" d="M0,162.909V130.581L13.692,117.9,14.2,0" transform="translate(116.355 173.475)" fill="none" stroke="#fafafa" stroke-miterlimit="10" stroke-width="1"/>
        <path id="Path_161279" data-name="Path 161279" d="M0,0V55.782l29.539,28.4-.76,127.285L16.608,222.749" transform="translate(145.387 185.012)" fill="none" stroke="#fafafa" stroke-miterlimit="10" stroke-width="1"/>
        <line id="Line_1440" data-name="Line 1440" y1="73.95" transform="translate(160.618 307.567)" fill="none" stroke="#fafafa" stroke-miterlimit="10" stroke-width="1"/>
        <line id="Line_1441" data-name="Line 1441" y1="129.218" transform="translate(62.698 9.697)" fill="none" stroke="#fafafa" stroke-miterlimit="10" stroke-width="1"/>
        <line id="Line_1442" data-name="Line 1442" y1="147.438" transform="translate(76.479 12.231)" fill="none" stroke="#fafafa" stroke-miterlimit="10" stroke-width="1"/>
        <line id="Line_1443" data-name="Line 1443" y1="129.741" transform="translate(103.232 10.471)" fill="none" stroke="#fafafa" stroke-miterlimit="10" stroke-width="1"/>
        <line id="Line_1444" data-name="Line 1444" y1="76.718" transform="translate(130.554 4.909)" fill="none" stroke="#fafafa" stroke-miterlimit="10" stroke-width="1"/>
        <path id="Path_161280" data-name="Path 161280" d="M0,0V118.685l121.928,121.9-.216,191.784-50.8,49.29" transform="translate(154.468 9.637)" fill="none" stroke="#fafafa" stroke-miterlimit="10" stroke-width="1"/>
        <path id="Path_161281" data-name="Path 161281" d="M47.561,350.652l61.613-62.477.216-180.947L0,0" transform="translate(154.468 146.481)" fill="none" stroke="#fafafa" stroke-miterlimit="10" stroke-width="1"/>
        <path id="Path_161282" data-name="Path 161282" d="M1.081,0,0,25.942l121.063,119.55V319.305" transform="translate(167.439 97.84)" fill="none" stroke="#fafafa" stroke-miterlimit="10" stroke-width="1"/>
        <path id="Path_161283" data-name="Path 161283" d="M0,188.13l28.753-29.45V23.564L52.965,0" transform="translate(156.198 451.951)" fill="none" stroke="#fafafa" stroke-miterlimit="10" stroke-width="1"/>
        <path id="Path_161284" data-name="Path 161284" d="M0,718.814l64.423-63.558.865-136.2,101.823-101.39-.649-213.807L45.183,83.663V0" transform="translate(136.309 34.282)" fill="none" stroke="#fafafa" stroke-miterlimit="10" stroke-width="1"/>
        <path id="Path_161285" data-name="Path 161285" d="M165.36,0,101.374,64.739V199.988L0,299.857.25,514.148,121.2,634.342l-.753,78.54" transform="translate(230.059 278.647)" fill="none" stroke="#fafafa" stroke-miterlimit="10" stroke-width="1"/>
        <path id="Path_161286" data-name="Path 161286" d="M121.448,323.946V298.352L0,178.66V0" transform="translate(242.606 609.117)" fill="none" stroke="#fafafa" stroke-miterlimit="10" stroke-width="1"/>
        <path id="Path_161287" data-name="Path 161287" d="M51.691,0,0,51.691.251,243.65l121.7,120.7-1.505,89.079" transform="translate(256.155 538.105)" fill="none" stroke="#fafafa" stroke-miterlimit="10" stroke-width="1"/>
        <line id="Line_1445" data-name="Line 1445" y1="37.89" transform="translate(402.487 952.384)" fill="none" stroke="#fafafa" stroke-miterlimit="10" stroke-width="1"/>
        <path id="Path_161288" data-name="Path 161288" d="M107.647,352.05,0,243.9V62.732L62.229,0" transform="translate(269.455 532.835)" fill="none" stroke="#fafafa" stroke-miterlimit="10" stroke-width="1"/>
        <path id="Path_161289" data-name="Path 161289" d="M0,187.693l21.831-22.332V30.864L52.444,0" transform="translate(324.658 390.309)" fill="none" stroke="#fafafa" stroke-miterlimit="10" stroke-width="1"/>
        <path id="Path_161290" data-name="Path 161290" d="M62.23,0,25.6,36.133l1.756,173.14L0,235.118v88.828" transform="translate(342.725 389.807)" fill="none" stroke="#fafafa" stroke-miterlimit="10" stroke-width="1"/>
        <path id="Path_161291" data-name="Path 161291" d="M14.805,0,0,12.672V142.4l28.857,26.222v51.941" transform="translate(357.529 625.929)" fill="none" stroke="#fafafa" stroke-miterlimit="10" stroke-width="1"/>
        <path id="Path_161292" data-name="Path 161292" d="M0,165.611V46.672L12.295,35.38V0" transform="translate(402.696 692.927)" fill="none" stroke="#fafafa" stroke-miterlimit="10" stroke-width="1"/>
        <path id="Path_161293" data-name="Path 161293" d="M0,281.487V93.094L18.569,74.407V0" transform="translate(386.386 475.122)" fill="none" stroke="#fafafa" stroke-miterlimit="10" stroke-width="1"/>
        <path id="Path_161294" data-name="Path 161294" d="M1.255,270.248,0,189.952l57.463-57.964L59.219,0" transform="translate(385.131 252.801)" fill="none" stroke="#fafafa" stroke-miterlimit="10" stroke-width="1"/>
        <path id="Path_161295" data-name="Path 161295" d="M0,78.115l17.314-14.8L18.569,0" transform="translate(414.741 296.386)" fill="none" stroke="#fafafa" stroke-miterlimit="10" stroke-width="1"/>
        <line id="Line_1446" data-name="Line 1446" y1="43.41" x2="43.661" transform="translate(404.955 400.095)" fill="none" stroke="#fafafa" stroke-miterlimit="10" stroke-width="1"/>
        <path id="Path_161296" data-name="Path 161296" d="M20.074,0V118.337L0,139.013" transform="translate(406.711 443.505)" fill="none" stroke="#fafafa" stroke-miterlimit="10" stroke-width="1"/>
        <path id="Path_161297" data-name="Path 161297" d="M0,237.125l16.059-16.059V80.045L36.384,61.727V0" transform="translate(430.298 347.15)" fill="none" stroke="#fafafa" stroke-miterlimit="10" stroke-width="1"/>
        <path id="Path_161298" data-name="Path 161298" d="M26.849,115.175V86.569L0,59.72V0" transform="translate(406.711 610.874)" fill="none" stroke="#fafafa" stroke-miterlimit="10" stroke-width="1"/>
        <path id="Path_161299" data-name="Path 161299" d="M0,0V48.178L18.067,65.743V205.258l42.155,41.654v93.846" transform="translate(426.785 607.36)" fill="none" stroke="#fafafa" stroke-miterlimit="10" stroke-width="1"/>
        <path id="Path_161300" data-name="Path 161300" d="M51.189,121.95,0,72.016V0" transform="translate(418.254 754.654)" fill="none" stroke="#fafafa" stroke-miterlimit="10" stroke-width="1"/>
        <path id="Path_161301" data-name="Path 161301" d="M28.1,65.241,0,36.635V0" transform="translate(432.054 781.503)" fill="none" stroke="#fafafa" stroke-miterlimit="10" stroke-width="1"/>
        <line id="Line_1447" data-name="Line 1447" y2="97.359" transform="translate(429.294 892.915)" fill="none" stroke="#fafafa" stroke-miterlimit="10" stroke-width="1"/>
        <line id="Line_1448" data-name="Line 1448" y2="111.97" transform="translate(456.896 876.604)" fill="none" stroke="#fafafa" stroke-miterlimit="10" stroke-width="1"/>
        <line id="Line_1449" data-name="Line 1449" y2="95.66" transform="translate(469.443 892.915)" fill="none" stroke="#fafafa" stroke-miterlimit="10" stroke-width="1"/>
        <path id="Path_161302" data-name="Path 161302" d="M53.7,253.938V194.217L18.317,159.59V19.322L0,0" transform="translate(456.897 643.744)" fill="none" stroke="#fafafa" stroke-miterlimit="10" stroke-width="1"/>
        <path id="Path_161303" data-name="Path 161303" d="M39.9,341.511l-.251-142.526L0,160.593V0" transform="translate(461.162 453.291)" fill="none" stroke="#fafafa" stroke-miterlimit="10" stroke-width="1"/>
        <path id="Path_161304" data-name="Path 161304" d="M1.255,0,0,291.075l40.4,37.639V413.4" transform="translate(474.21 319.297)" fill="none" stroke="#fafafa" stroke-miterlimit="10" stroke-width="1"/>
        <path id="Path_161305" data-name="Path 161305" d="M38.643,410.767,40.149,257.7,0,219.059V0" transform="translate(487.007 384.035)" fill="none" stroke="#fafafa" stroke-miterlimit="10" stroke-width="1"/>
        <path id="Path_161306" data-name="Path 161306" d="M9.818,4.909A4.909,4.909,0,1,0,4.909,9.818,4.909,4.909,0,0,0,9.818,4.909" transform="translate(40.008 639.172)" fill="#ecedf0"/>
        <path id="Path_161307" data-name="Path 161307" d="M9.818,4.909A4.909,4.909,0,1,0,4.909,9.818,4.909,4.909,0,0,0,9.818,4.909" transform="translate(53.344 702.902)" fill="#ecedf0"/>
        <path id="Path_161308" data-name="Path 161308" d="M9.818,4.909A4.909,4.909,0,1,0,4.909,9.818,4.909,4.909,0,0,0,9.818,4.909" transform="translate(83.35 770.823)" fill="#ecedf0"/>
        <path id="Path_161309" data-name="Path 161309" d="M9.818,4.909A4.909,4.909,0,1,0,4.909,9.818,4.909,4.909,0,0,0,9.818,4.909" transform="translate(93.797 735.637)" fill="#ecedf0"/>
        <path id="Path_161310" data-name="Path 161310" d="M9.818,4.909A4.909,4.909,0,1,0,4.909,9.818,4.909,4.909,0,0,0,9.818,4.909" transform="translate(135.679 746.232)" fill="#ecedf0"/>
        <path id="Path_161311" data-name="Path 161311" d="M9.818,4.909A4.909,4.909,0,1,0,4.909,9.818,4.909,4.909,0,0,0,9.818,4.909" transform="translate(151.288 635.172)" fill="#ecedf0"/>
        <path id="Path_161312" data-name="Path 161312" d="M9.818,4.909A4.909,4.909,0,1,0,4.909,9.818,4.909,4.909,0,0,0,9.818,4.909" transform="translate(112.468 648.952)" fill="#ecedf0"/>
        <path id="Path_161313" data-name="Path 161313" d="M9.818,4.909a4.909,4.909,0,1,0-4.91,4.909,4.91,4.91,0,0,0,4.91-4.909" transform="translate(77.794 625.836)" fill="#ecedf0"/>
        <path id="Path_161314" data-name="Path 161314" d="M9.818,4.909A4.909,4.909,0,1,0,4.909,9.818,4.909,4.909,0,0,0,9.818,4.909" transform="translate(123.358 580.271)" fill="#ecedf0"/>
        <path id="Path_161315" data-name="Path 161315" d="M9.818,4.909A4.909,4.909,0,1,0,4.909,9.818,4.909,4.909,0,0,0,9.818,4.909" transform="translate(123.358 554.87)" fill="#ecedf0"/>
        <path id="Path_161316" data-name="Path 161316" d="M9.818,4.909A4.909,4.909,0,1,0,4.909,9.818,4.909,4.909,0,0,0,9.818,4.909" transform="translate(100.576 580.271)" fill="#ecedf0"/>
        <path id="Path_161317" data-name="Path 161317" d="M9.818,4.909A4.909,4.909,0,1,0,4.909,9.818,4.909,4.909,0,0,0,9.818,4.909" transform="translate(121.747 443.299)" fill="#ecedf0"/>
        <path id="Path_161318" data-name="Path 161318" d="M9.818,4.909A4.909,4.909,0,1,0,4.909,9.818,4.909,4.909,0,0,0,9.818,4.909" transform="translate(98.706 438.39)" fill="#ecedf0"/>
        <path id="Path_161319" data-name="Path 161319" d="M9.818,4.909A4.909,4.909,0,1,0,4.909,9.818,4.909,4.909,0,0,0,9.818,4.909" transform="translate(71.57 383.564)" fill="#ecedf0"/>
        <path id="Path_161320" data-name="Path 161320" d="M9.818,4.909A4.909,4.909,0,1,0,4.909,9.818,4.909,4.909,0,0,0,9.818,4.909" transform="translate(13.78 291.477)" fill="#ecedf0"/>
        <path id="Path_161321" data-name="Path 161321" d="M9.818,4.909A4.909,4.909,0,1,0,4.909,9.818,4.909,4.909,0,0,0,9.818,4.909" transform="translate(0 231.303)" fill="#ecedf0"/>
        <path id="Path_161322" data-name="Path 161322" d="M9.818,4.909A4.909,4.909,0,1,0,4.909,9.818,4.909,4.909,0,0,0,9.818,4.909" transform="translate(93.797 244.258)" fill="#ecedf0"/>
        <path id="Path_161323" data-name="Path 161323" d="M9.818,4.909A4.909,4.909,0,1,0,4.909,9.818,4.909,4.909,0,0,0,9.818,4.909" transform="translate(108.911 273.738)" fill="#ecedf0"/>
        <path id="Path_161324" data-name="Path 161324" d="M9.818,4.909A4.909,4.909,0,1,0,4.909,9.818,4.909,4.909,0,0,0,9.818,4.909" transform="translate(111.446 328.24)" fill="#ecedf0"/>
        <path id="Path_161325" data-name="Path 161325" d="M9.818,4.909A4.909,4.909,0,1,0,4.909,9.818,4.909,4.909,0,0,0,9.818,4.909" transform="translate(119.58 412.236)" fill="#ecedf0"/>
        <path id="Path_161326" data-name="Path 161326" d="M9.818,4.909A4.909,4.909,0,1,0,4.909,9.818,4.909,4.909,0,0,0,9.818,4.909" transform="translate(155.709 374.805)" fill="#ecedf0"/>
        <path id="Path_161327" data-name="Path 161327" d="M9.818,4.909A4.909,4.909,0,1,0,4.909,9.818,4.909,4.909,0,0,0,9.818,4.909" transform="translate(155.709 402.851)" fill="#ecedf0"/>
        <path id="Path_161328" data-name="Path 161328" d="M9.818,4.909A4.909,4.909,0,1,0,4.909,9.818,4.909,4.909,0,0,0,9.818,4.909" transform="translate(184.274 312.438)" fill="#ecedf0"/>
        <path id="Path_161329" data-name="Path 161329" d="M9.818,4.909A4.909,4.909,0,1,0,4.909,9.818,4.909,4.909,0,0,0,9.818,4.909" transform="translate(205.614 445.337)" fill="#f1f1f1"/>
        <path id="Path_161330" data-name="Path 161330" d="M9.818,4.909A4.909,4.909,0,1,0,4.909,9.818,4.909,4.909,0,0,0,9.818,4.909" transform="translate(199.345 489.787)" fill="#f1f1f1"/>
        <path id="Path_161331" data-name="Path 161331" d="M9.818,4.909A4.909,4.909,0,1,0,4.909,9.818,4.909,4.909,0,0,0,9.818,4.909" transform="translate(223.062 484.878)" fill="#f1f1f1"/>
        <path id="Path_161332" data-name="Path 161332" d="M9.818,4.909A4.909,4.909,0,1,0,4.909,9.818,4.909,4.909,0,0,0,9.818,4.909" transform="translate(282.985 411.086)" fill="#f1f1f1"/>
        <path id="Path_161333" data-name="Path 161333" d="M9.818,4.909A4.909,4.909,0,1,0,4.909,9.818,4.909,4.909,0,0,0,9.818,4.909" transform="translate(304.56 532.835)" fill="#f1f1f1"/>
        <path id="Path_161334" data-name="Path 161334" d="M9.818,4.909A4.909,4.909,0,1,0,4.909,9.818,4.909,4.909,0,0,0,9.818,4.909" transform="translate(324.658 528.287)" fill="#f1f1f1"/>
        <path id="Path_161335" data-name="Path 161335" d="M9.818,4.909A4.909,4.909,0,1,0,4.909,9.818,4.909,4.909,0,0,0,9.818,4.909" transform="translate(321.868 571.285)" fill="#f1f1f1"/>
        <path id="Path_161336" data-name="Path 161336" d="M9.818,4.909A4.909,4.909,0,1,0,4.909,9.818,4.909,4.909,0,0,0,9.818,4.909" transform="translate(345.594 986.62)" fill="#eaebed" stroke="#fafafa" stroke-width="1"/>
        <path id="Path_161337" data-name="Path 161337" d="M9.818,4.909A4.909,4.909,0,1,0,4.909,9.818,4.909,4.909,0,0,0,9.818,4.909" transform="translate(368.931 616.169)" fill="#f1f1f1"/>
        <path id="Path_161338" data-name="Path 161338" d="M9.818,4.909A4.909,4.909,0,1,0,4.909,9.818,4.909,4.909,0,0,0,9.818,4.909" transform="translate(337.816 702.978)" fill="#f1f1f1"/>
        <path id="Path_161339" data-name="Path 161339" d="M9.818,4.909A4.909,4.909,0,1,0,4.909,9.818,4.909,4.909,0,0,0,9.818,4.909" transform="translate(381.477 747.194)" fill="#f1f1f1"/>
        <path id="Path_161340" data-name="Path 161340" d="M9.818,4.909A4.909,4.909,0,1,0,4.909,9.818,4.909,4.909,0,0,0,9.818,4.909" transform="translate(381.477 836.926)" fill="#f1f1f1"/>
        <path id="Path_161341" data-name="Path 161341" d="M9.818,4.909A4.909,4.909,0,1,0,4.909,9.818,4.909,4.909,0,0,0,9.818,4.909" transform="translate(372.193 879.976)" fill="#f1f1f1"/>
        <path id="Path_161342" data-name="Path 161342" d="M9.818,4.909A4.909,4.909,0,1,0,4.909,9.818,4.909,4.909,0,0,0,9.818,4.909" transform="translate(397.787 852.602)" fill="#f1f1f1"/>
        <path id="Path_161343" data-name="Path 161343" d="M9.818,4.909A4.909,4.909,0,1,0,4.909,9.818,4.909,4.909,0,0,0,9.818,4.909" transform="translate(466.34 868.182)" fill="#f1f1f1"/>
        <path id="Path_161344" data-name="Path 161344" d="M9.818,4.909A4.909,4.909,0,1,0,4.909,9.818,4.909,4.909,0,0,0,9.818,4.909" transform="translate(424.385 886.925)" fill="#f1f1f1"/>
        <path id="Path_161345" data-name="Path 161345" d="M9.818,4.909A4.909,4.909,0,1,0,4.909,9.818,4.909,4.909,0,0,0,9.818,4.909" transform="translate(451.987 871.695)" fill="#f1f1f1"/>
        <path id="Path_161346" data-name="Path 161346" d="M9.818,4.909A4.909,4.909,0,1,0,4.909,9.818,4.909,4.909,0,0,0,9.818,4.909" transform="translate(464.12 889.849)" fill="#f1f1f1"/>
        <path id="Path_161347" data-name="Path 161347" d="M9.818,4.909A4.909,4.909,0,1,0,4.909,9.818,4.909,4.909,0,0,0,9.818,4.909" transform="translate(482.098 943.209)" fill="#f1f1f1"/>
        <path id="Path_161348" data-name="Path 161348" d="M9.818,4.909A4.909,4.909,0,1,0,4.909,9.818,4.909,4.909,0,0,0,9.818,4.909" transform="translate(504.948 892.773)" fill="#f1f1f1"/>
        <path id="Path_161349" data-name="Path 161349" d="M9.818,4.909A4.909,4.909,0,1,0,4.909,9.818,4.909,4.909,0,0,0,9.818,4.909" transform="translate(496.15 791.907)" fill="#f1f1f1"/>
        <path id="Path_161350" data-name="Path 161350" d="M9.818,4.909A4.909,4.909,0,1,0,4.909,9.818,4.909,4.909,0,0,0,9.818,4.909" transform="translate(520.274 789.893)" fill="#f1f1f1"/>
        <path id="Path_161351" data-name="Path 161351" d="M9.818,4.909A4.909,4.909,0,1,0,4.909,9.818,4.909,4.909,0,0,0,9.818,4.909" transform="translate(509.7 727.789)" fill="#f1f1f1"/>
        <path id="Path_161352" data-name="Path 161352" d="M9.818,4.909A4.909,4.909,0,1,0,4.909,9.818,4.909,4.909,0,0,0,9.818,4.909" transform="translate(397.578 948.118)" fill="#f1f1f1"/>
        <path id="Path_161353" data-name="Path 161353" d="M9.818,4.909A4.909,4.909,0,1,0,4.909,9.818,4.909,4.909,0,0,0,9.818,4.909" transform="translate(456.253 841.835)" fill="#f1f1f1"/>
        <path id="Path_161354" data-name="Path 161354" d="M9.818,4.909A4.909,4.909,0,1,0,4.909,9.818,4.909,4.909,0,0,0,9.818,4.909" transform="translate(427.647 775.002)" fill="#f1f1f1"/>
        <path id="Path_161355" data-name="Path 161355" d="M9.818,4.909A4.909,4.909,0,1,0,4.909,9.818,4.909,4.909,0,0,0,9.818,4.909" transform="translate(359.144 927.68)" fill="#f1f1f1"/>
        <path id="Path_161356" data-name="Path 161356" d="M9.818,4.909A4.909,4.909,0,1,0,4.909,9.818,4.909,4.909,0,0,0,9.818,4.909" transform="translate(372.193 983.666)" fill="#eaebed" stroke="#fafafa" stroke-width="1"/>
        <path id="Path_161357" data-name="Path 161357" d="M9.818,4.909A4.909,4.909,0,1,0,4.909,9.818,4.909,4.909,0,0,0,9.818,4.909" transform="translate(397.578 986.62)" fill="#eaebed" stroke="#fafafa" stroke-width="1"/>
        <path id="Path_161358" data-name="Path 161358" d="M9.818,4.909A4.909,4.909,0,1,0,4.909,9.818,4.909,4.909,0,0,0,9.818,4.909" transform="translate(424.385 990.274)" fill="#eaebed" stroke="#fafafa" stroke-width="1"/>
        <path id="Path_161359" data-name="Path 161359" d="M9.818,4.909A4.909,4.909,0,1,0,4.909,9.818,4.909,4.909,0,0,0,9.818,4.909" transform="translate(451.344 982.539)" fill="#eaebed" stroke="#fafafa" stroke-width="1"/>
        <path id="Path_161360" data-name="Path 161360" d="M9.819,4.909a4.91,4.91,0,1,0-4.91,4.909,4.91,4.91,0,0,0,4.91-4.909" transform="translate(464.533 981.711)" fill="#eaebed" stroke="#fafafa" stroke-width="1"/>
        <path id="Path_161361" data-name="Path 161361" d="M9.818,4.909A4.909,4.909,0,1,0,4.909,9.818,4.909,4.909,0,0,0,9.818,4.909" transform="translate(410.961 688.017)" fill="#f1f1f1"/>
        <path id="Path_161362" data-name="Path 161362" d="M9.818,4.909A4.909,4.909,0,1,0,4.909,9.818,4.909,4.909,0,0,0,9.818,4.909" transform="translate(401.802 602.535)" fill="#f1f1f1"/>
        <path id="Path_161363" data-name="Path 161363" d="M9.818,4.909A4.909,4.909,0,1,0,4.909,9.818,4.909,4.909,0,0,0,9.818,4.909" transform="translate(402.696 577.61)" fill="#f1f1f1"/>
        <path id="Path_161364" data-name="Path 161364" d="M9.818,4.909A4.909,4.909,0,1,0,4.909,9.818,4.909,4.909,0,0,0,9.818,4.909" transform="translate(381.477 516.18)" fill="#f1f1f1"/>
        <path id="Path_161365" data-name="Path 161365" d="M9.818,4.909A4.909,4.909,0,1,0,4.909,9.818,4.909,4.909,0,0,0,9.818,4.909" transform="translate(400.045 469.1)" fill="#f1f1f1"/>
        <path id="Path_161366" data-name="Path 161366" d="M9.818,4.909A4.909,4.909,0,1,0,4.909,9.818,4.909,4.909,0,0,0,9.818,4.909" transform="translate(400.045 438.596)" fill="#f1f1f1"/>
        <path id="Path_161367" data-name="Path 161367" d="M9.819,4.909a4.91,4.91,0,1,0-4.91,4.909,4.91,4.91,0,0,0,4.91-4.909" transform="translate(442.664 395.186)" fill="#f1f1f1"/>
        <path id="Path_161368" data-name="Path 161368" d="M9.818,4.909A4.909,4.909,0,1,0,4.909,9.818,4.909,4.909,0,0,0,9.818,4.909" transform="translate(421.876 441.391)" fill="#f1f1f1"/>
        <path id="Path_161369" data-name="Path 161369" d="M9.818,4.909A4.909,4.909,0,1,0,4.909,9.818,4.909,4.909,0,0,0,9.818,4.909" transform="translate(401.802 379.127)" fill="#f1f1f1"/>
        <path id="Path_161370" data-name="Path 161370" d="M9.818,4.909A4.909,4.909,0,1,0,4.909,9.818,4.909,4.909,0,0,0,9.818,4.909" transform="translate(411.839 369.592)" fill="#f1f1f1"/>
        <path id="Path_161371" data-name="Path 161371" d="M9.818,4.909A4.909,4.909,0,1,0,4.909,9.818,4.909,4.909,0,0,0,9.818,4.909" transform="translate(372.61 384.555)" fill="#f1f1f1"/>
        <path id="Path_161372" data-name="Path 161372" d="M9.818,4.909A4.909,4.909,0,1,0,4.909,9.818,4.909,4.909,0,0,0,9.818,4.909" transform="translate(390.51 273.738)" fill="#f1f1f1"/>
        <path id="Path_161373" data-name="Path 161373" d="M9.818,4.909A4.909,4.909,0,1,0,4.909,9.818,4.909,4.909,0,0,0,9.818,4.909" transform="translate(428.4 291.477)" fill="#f1f1f1"/>
        <path id="Path_161374" data-name="Path 161374" d="M9.818,4.909A4.909,4.909,0,1,0,4.909,9.818,4.909,4.909,0,0,0,9.818,4.909" transform="translate(438.798 250.466)" fill="#f1f1f1"/>
        <path id="Path_161375" data-name="Path 161375" d="M9.818,4.909A4.909,4.909,0,1,0,4.909,9.818,4.909,4.909,0,0,0,9.818,4.909" transform="translate(461.773 342.241)" fill="#f1f1f1"/>
        <path id="Path_161376" data-name="Path 161376" d="M9.818,4.909A4.909,4.909,0,1,0,4.909,9.818,4.909,4.909,0,0,0,9.818,4.909" transform="translate(469.301 311.99)" fill="#f1f1f1"/>
        <path id="Path_161377" data-name="Path 161377" d="M9.818,4.909A4.909,4.909,0,1,0,4.909,9.818,4.909,4.909,0,0,0,9.818,4.909" transform="translate(482.098 380.491)" fill="#f1f1f1"/>
        <path id="Path_161378" data-name="Path 161378" d="M9.818,4.909A4.909,4.909,0,1,0,4.909,9.818,4.909,4.909,0,0,0,9.818,4.909" transform="translate(456.253 446.3)" fill="#f1f1f1"/>
        <path id="Path_161379" data-name="Path 161379" d="M9.818,4.909A4.909,4.909,0,1,0,4.909,9.818,4.909,4.909,0,0,0,9.818,4.909" transform="translate(428.149 577.61)" fill="#f1f1f1"/>
        <path id="Path_161380" data-name="Path 161380" d="M9.818,4.909A4.909,4.909,0,1,0,4.909,9.818,4.909,4.909,0,0,0,9.818,4.909" transform="translate(421.876 599.299)" fill="#f1f1f1"/>
        <path id="Path_161381" data-name="Path 161381" d="M9.818,4.909A4.909,4.909,0,1,0,4.909,9.818,4.909,4.909,0,0,0,9.818,4.909" transform="translate(451.987 636.785)" fill="#f1f1f1"/>
        <path id="Path_161382" data-name="Path 161382" d="M9.818,4.909A4.909,4.909,0,1,0,4.909,9.818,4.909,4.909,0,0,0,9.818,4.909" transform="translate(428.651 714.715)" fill="#f1f1f1"/>
        <path id="Path_161383" data-name="Path 161383" d="M9.818,4.909A4.909,4.909,0,1,0,4.909,9.818,4.909,4.909,0,0,0,9.818,4.909" transform="translate(413.345 746.232)" fill="#f1f1f1"/>
        <path id="Path_161384" data-name="Path 161384" d="M9.818,4.909A4.909,4.909,0,1,0,4.909,9.818,4.909,4.909,0,0,0,9.818,4.909" transform="translate(155.709 301.295)" fill="#ecedf0"/>
        <path id="Path_161385" data-name="Path 161385" d="M9.819,4.909a4.91,4.91,0,1,0-4.91,4.909,4.91,4.91,0,0,0,4.91-4.909" transform="translate(101.451 420.46)" fill="#ecedf0"/>
        <path id="Path_161386" data-name="Path 161386" d="M9.818,4.909A4.909,4.909,0,1,0,4.909,9.818,4.909,4.909,0,0,0,9.818,4.909" transform="translate(69.458 182.111)" fill="#ecedf0"/>
        <path id="Path_161387" data-name="Path 161387" d="M9.818,4.909A4.909,4.909,0,1,0,4.909,9.818,4.909,4.909,0,0,0,9.818,4.909" transform="translate(71.57 153.442)" fill="#ecedf0"/>
        <path id="Path_161388" data-name="Path 161388" d="M9.818,4.909A4.909,4.909,0,1,0,4.909,9.818,4.909,4.909,0,0,0,9.818,4.909" transform="translate(57.789 2.413)" fill="#ecedf0"/>
        <path id="Path_161389" data-name="Path 161389" d="M9.818,4.909A4.909,4.909,0,1,0,4.909,9.818,4.909,4.909,0,0,0,9.818,4.909" transform="translate(72.586 2.413)" fill="#ecedf0"/>
        <path id="Path_161390" data-name="Path 161390" d="M9.818,4.909A4.909,4.909,0,1,0,4.909,9.818,4.909,4.909,0,0,0,9.818,4.909" transform="translate(98.323 2.413)" fill="#ecedf0"/>
        <path id="Path_161391" data-name="Path 161391" d="M9.818,4.909A4.909,4.909,0,1,0,4.909,9.818,4.909,4.909,0,0,0,9.818,4.909" transform="translate(125.645)" fill="#ecedf0"/>
        <path id="Path_161392" data-name="Path 161392" d="M9.818,4.909A4.909,4.909,0,1,0,4.909,9.818,4.909,4.909,0,0,0,9.818,4.909" transform="translate(125.645 71.809)" fill="#ecedf0"/>
        <path id="Path_161393" data-name="Path 161393" d="M9.818,4.909A4.909,4.909,0,1,0,4.909,9.818,4.909,4.909,0,0,0,9.818,4.909" transform="translate(98.323 134.006)" fill="#ecedf0"/>
        <path id="Path_161394" data-name="Path 161394" d="M9.818,4.909A4.909,4.909,0,1,0,4.909,9.818,4.909,4.909,0,0,0,9.818,4.909" transform="translate(126.491 166.56)" fill="#ecedf0"/>
        <path id="Path_161395" data-name="Path 161395" d="M9.818,4.909A4.909,4.909,0,1,0,4.909,9.818,4.909,4.909,0,0,0,9.818,4.909" transform="translate(140.478 178.614)" fill="#ecedf0"/>
        <path id="Path_161396" data-name="Path 161396" d="M9.818,4.909A4.909,4.909,0,1,0,4.909,9.818,4.909,4.909,0,0,0,9.818,4.909" transform="translate(141.492 270.188)" fill="#ecedf0"/>
        <path id="Path_161397" data-name="Path 161397" d="M9.818,4.909A4.909,4.909,0,1,0,4.909,9.818,4.909,4.909,0,0,0,9.818,4.909" transform="translate(93.797 301.295)" fill="#ecedf0"/>
        <path id="Path_161398" data-name="Path 161398" d="M9.818,4.909A4.909,4.909,0,1,0,4.909,9.818,4.909,4.909,0,0,0,9.818,4.909" transform="translate(148.439 140.212)" fill="#ecedf0"/>
        <path id="Path_161399" data-name="Path 161399" d="M9.818,4.909A4.909,4.909,0,1,0,4.909,9.818,4.909,4.909,0,0,0,9.818,4.909" transform="translate(148.439 2.413)" fill="#ecedf0"/>
        <path id="Path_161400" data-name="Path 161400" d="M9.818,4.909A4.909,4.909,0,1,0,4.909,9.818,4.909,4.909,0,0,0,9.818,4.909" transform="translate(176.228 33.45)" fill="#ecedf0"/>
        <path id="Path_161401" data-name="Path 161401" d="M9.818,4.909A4.909,4.909,0,1,0,4.909,9.818,4.909,4.909,0,0,0,9.818,4.909" transform="translate(162.53 92.931)" fill="#ecedf0"/>
        <path id="Path_161402" data-name="Path 161402" d="M9.818,4.909A4.909,4.909,0,1,0,4.909,9.818,4.909,4.909,0,0,0,9.818,4.909" transform="translate(58.671 153.442)" fill="#ecedf0"/>
        <path id="Path_161403" data-name="Path 161403" d="M9.818,4.909A4.909,4.909,0,1,0,4.909,9.818,4.909,4.909,0,0,0,9.818,4.909" transform="translate(57.789 132.788)" fill="#ecedf0"/>
        <path id="Path_161404" data-name="Path 161404" d="M9.818,4.909A4.909,4.909,0,1,0,4.909,9.818,4.909,4.909,0,0,0,9.818,4.909" transform="translate(38.674 76.717)" fill="#ecedf0"/>
        <path id="Path_161405" data-name="Path 161405" d="M9.818,4.909A4.909,4.909,0,1,0,4.909,9.818,4.909,4.909,0,0,0,9.818,4.909" transform="translate(18.448 126.622)" fill="#ecedf0"/>
        <path id="Path_161406" data-name="Path 161406" d="M9.818,4.909A4.909,4.909,0,1,0,4.909,9.818,4.909,4.909,0,0,0,9.818,4.909" transform="translate(141.492 498.395)" fill="#ecedf0"/>
        <path id="Path_161407" data-name="Path 161407" d="M9.818,4.909A4.909,4.909,0,1,0,4.909,9.818,4.909,4.909,0,0,0,9.818,4.909" transform="translate(123.311 637.896)" fill="#ecedf0"/>
        <path id="Path_161408" data-name="Path 161408" d="M9.818,4.909A4.909,4.909,0,1,0,4.909,9.818,4.909,4.909,0,0,0,9.818,4.909" transform="translate(237.696 604.208)" fill="#f1f1f1"/>
        <path id="Path_161409" data-name="Path 161409" d="M9.818,4.909A4.909,4.909,0,1,0,4.909,9.818,4.909,4.909,0,0,0,9.818,4.909" transform="translate(60.012 680.958)" fill="#ecedf0"/>
      </g>
    </g>
  </g>
</svg>
