<svg xmlns="http://www.w3.org/2000/svg" width="30" height="150" viewBox="0 0 30 150">
  <g id="Group_114415" data-name="Group 114415" transform="translate(-724 -1301) rotate(90)">
    <rect id="Rectangle_6850" data-name="Rectangle 6850" width="150" height="30" rx="5" transform="translate(1301 -754)" fill="#179f9f"/>
    <path id="Subtraction_6" data-name="Subtraction 6" d="M145,33H5a5.006,5.006,0,0,1-5-5V8A5.012,5.012,0,0,1,2.118,3.913,5.027,5.027,0,0,0,2,5V25a5.006,5.006,0,0,0,5,5H147a4.969,4.969,0,0,0,2.882-.913A5,5,0,0,1,145,33Z" transform="translate(1301 -757)" fill="#384e00" opacity="0.22"/>
    <g id="Group_4525" data-name="Group 4525" transform="matrix(0.966, 0.259, -0.259, 0.966, 1464.083, -786.275)">
      <rect id="Rectangle_6855" data-name="Rectangle 6855" width="3.041" height="17.855" rx="1.52" transform="translate(-117.696 67.202)" fill="none" stroke="#fff" stroke-miterlimit="10" stroke-width="1"/>
      <path id="Rectangle_6856" data-name="Rectangle 6856" d="M.921,0h0a.921.921,0,0,1,.921.921V1.2a0,0,0,0,1,0,0H0a0,0,0,0,1,0,0V.921A.921.921,0,0,1,.921,0Z" transform="translate(-117.098 66)" fill="none" stroke="#fff" stroke-miterlimit="10" stroke-width="1"/>
      <path id="Rectangle_6857" data-name="Rectangle 6857" d="M0,0H2.21a0,0,0,0,1,0,0V1.1a1.1,1.1,0,0,1-1.1,1.1h0A1.1,1.1,0,0,1,0,1.1V0A0,0,0,0,1,0,0Z" transform="translate(-117.28 85.057)" fill="none" stroke="#fff" stroke-miterlimit="10" stroke-width="1"/>
      <line id="Line_23" data-name="Line 23" y2="1.715" transform="translate(-116.175 87.267)" fill="none" stroke="#fff" stroke-linecap="round" stroke-miterlimit="10" stroke-width="1"/>
      <path id="Path_8480" data-name="Path 8480" d="M-119.12,107.786v-4.349a1.008,1.008,0,0,1,1.008-1.008h.371" transform="translate(0 -34.926)" fill="none" stroke="#fff" stroke-linecap="round" stroke-miterlimit="10" stroke-width="1"/>
    </g>
    <g id="Group_4530" data-name="Group 4530" transform="translate(9)">
      <g id="Group_4526" data-name="Group 4526" transform="translate(0 -1)">
        <circle id="Ellipse_76" data-name="Ellipse 76" cx="1" cy="1" r="1" transform="translate(1324 -730)" fill="#fff"/>
        <circle id="Ellipse_83" data-name="Ellipse 83" cx="1" cy="1" r="1" transform="translate(1336 -730)" fill="#fff"/>
        <circle id="Ellipse_79" data-name="Ellipse 79" cx="1" cy="1" r="1" transform="translate(1330 -730)" fill="#fff"/>
        <circle id="Ellipse_81" data-name="Ellipse 81" cx="1" cy="1" r="1" transform="translate(1342 -730)" fill="#fff"/>
        <circle id="Ellipse_77" data-name="Ellipse 77" cx="1" cy="1" r="1" transform="translate(1327 -730)" fill="#fff"/>
        <circle id="Ellipse_82" data-name="Ellipse 82" cx="1" cy="1" r="1" transform="translate(1339 -730)" fill="#fff"/>
        <circle id="Ellipse_78" data-name="Ellipse 78" cx="1" cy="1" r="1" transform="translate(1333 -730)" fill="#fff"/>
        <circle id="Ellipse_80" data-name="Ellipse 80" cx="1" cy="1" r="1" transform="translate(1345 -730)" fill="#fff"/>
      </g>
      <g id="Group_4529" data-name="Group 4529" transform="translate(50 -1)">
        <circle id="Ellipse_76-2" data-name="Ellipse 76" cx="1" cy="1" r="1" transform="translate(1324 -730)" fill="#fff"/>
        <circle id="Ellipse_83-2" data-name="Ellipse 83" cx="1" cy="1" r="1" transform="translate(1336 -730)" fill="#fff"/>
        <circle id="Ellipse_79-2" data-name="Ellipse 79" cx="1" cy="1" r="1" transform="translate(1330 -730)" fill="#fff"/>
        <circle id="Ellipse_81-2" data-name="Ellipse 81" cx="1" cy="1" r="1" transform="translate(1342 -730)" fill="#fff"/>
        <circle id="Ellipse_77-2" data-name="Ellipse 77" cx="1" cy="1" r="1" transform="translate(1327 -730)" fill="#fff"/>
        <circle id="Ellipse_82-2" data-name="Ellipse 82" cx="1" cy="1" r="1" transform="translate(1339 -730)" fill="#fff"/>
        <circle id="Ellipse_78-2" data-name="Ellipse 78" cx="1" cy="1" r="1" transform="translate(1333 -730)" fill="#fff"/>
        <circle id="Ellipse_80-2" data-name="Ellipse 80" cx="1" cy="1" r="1" transform="translate(1345 -730)" fill="#fff"/>
      </g>
      <g id="Group_4527" data-name="Group 4527" transform="translate(25 -1)">
        <circle id="Ellipse_76-3" data-name="Ellipse 76" cx="1" cy="1" r="1" transform="translate(1324 -730)" fill="#fff"/>
        <circle id="Ellipse_83-3" data-name="Ellipse 83" cx="1" cy="1" r="1" transform="translate(1336 -730)" fill="#fff"/>
        <circle id="Ellipse_79-3" data-name="Ellipse 79" cx="1" cy="1" r="1" transform="translate(1330 -730)" fill="#fff"/>
        <circle id="Ellipse_81-3" data-name="Ellipse 81" cx="1" cy="1" r="1" transform="translate(1342 -730)" fill="#fff"/>
        <circle id="Ellipse_77-3" data-name="Ellipse 77" cx="1" cy="1" r="1" transform="translate(1327 -730)" fill="#fff"/>
        <circle id="Ellipse_82-3" data-name="Ellipse 82" cx="1" cy="1" r="1" transform="translate(1339 -730)" fill="#fff"/>
        <circle id="Ellipse_78-3" data-name="Ellipse 78" cx="1" cy="1" r="1" transform="translate(1333 -730)" fill="#fff"/>
        <circle id="Ellipse_80-3" data-name="Ellipse 80" cx="1" cy="1" r="1" transform="translate(1345 -730)" fill="#fff"/>
      </g>
      <g id="Group_4528" data-name="Group 4528" transform="translate(75 -1)">
        <circle id="Ellipse_76-4" data-name="Ellipse 76" cx="1" cy="1" r="1" transform="translate(1324 -730)" fill="#fff"/>
        <circle id="Ellipse_83-4" data-name="Ellipse 83" cx="1" cy="1" r="1" transform="translate(1336 -730)" fill="#fff"/>
        <circle id="Ellipse_79-4" data-name="Ellipse 79" cx="1" cy="1" r="1" transform="translate(1330 -730)" fill="#fff"/>
        <circle id="Ellipse_81-4" data-name="Ellipse 81" cx="1" cy="1" r="1" transform="translate(1342 -730)" fill="#fff"/>
        <circle id="Ellipse_77-4" data-name="Ellipse 77" cx="1" cy="1" r="1" transform="translate(1327 -730)" fill="#fff"/>
        <circle id="Ellipse_82-4" data-name="Ellipse 82" cx="1" cy="1" r="1" transform="translate(1339 -730)" fill="#fff"/>
        <circle id="Ellipse_78-4" data-name="Ellipse 78" cx="1" cy="1" r="1" transform="translate(1333 -730)" fill="#fff"/>
        <circle id="Ellipse_80-4" data-name="Ellipse 80" cx="1" cy="1" r="1" transform="translate(1345 -730)" fill="#fff"/>
      </g>
    </g>
    <text id="Sign_here" data-name="Sign here" transform="translate(1340 -751)" fill="#fff" font-size="17" font-family="Montserrat-SemiBold, Montserrat" font-weight="600"><tspan x="0" y="16">Sign here</tspan></text>
  </g>
</svg>
