<svg id="Group_143558" data-name="Group 143558" xmlns="http://www.w3.org/2000/svg" xmlns:xlink="http://www.w3.org/1999/xlink" width="149.823" height="150.522" viewBox="0 0 149.823 150.522">
  <defs>
    <clipPath id="clip-path">
      <rect id="Rectangle_60594" data-name="Rectangle 60594" width="149.823" height="150.522" fill="none"/>
    </clipPath>
  </defs>
  <g id="Group_143557" data-name="Group 143557" clip-path="url(#clip-path)">
    <path id="Path_158614" data-name="Path 158614" d="M113.355,44.55V43.344q0-15.242,0-30.482c0-1.942-.808-2.789-2.779-2.8-2.489-.016-4.978.045-7.467.045q-35.408,0-70.815-.021c-5.932,0-11.865-.033-17.8-.048-.539,0-1.081-.018-1.616.034a2.644,2.644,0,0,0-2.632,2.851c-.007,2.9.021,5.806.021,8.709q0,57.854-.01,115.706c0,2.226.815,2.987,3.131,2.987q47.789,0,95.578.008c.581,0,1.162.02,1.742.026,1.913.018,2.644-.692,2.644-2.588q0-15.24,0-30.481c0-3.4.063-6.8-.029-10.2a6.168,6.168,0,0,1,1.409-4.117q3.193-4.134,6.321-8.316c.546-.726,1-1.518,1.524-2.262.266-.377.589-.714.887-1.069l.313.127c-.072.793-.2,1.586-.206,2.38-.007,2.073.066,4.146.064,6.219q-.022,24.075-.076,48.148c-.02,5.726-2.994,9.924-8.448,11.706a20.369,20.369,0,0,1-5.52.6c-2.153.078-4.312-.059-6.469-.058q-45.489.012-90.977.037c-4.731,0-9.608-3.177-11.052-7.661a24.447,24.447,0,0,1-1.046-7.327C-.021,110.325.007,85.16.007,60q0-23.071,0-46.143C.019,8.945,1.482,4.7,5.9,1.956A12.179,12.179,0,0,1,12.467.02Q61.814.049,111.161,0c6.632-.014,12.613,5.7,12.415,12.216-.177,5.841.045,11.693.019,17.539a4.4,4.4,0,0,1-.674,2.442c-3.044,4.184-6.188,8.295-9.3,12.431l-.268-.079" fill="#1a1818"/>
    <path id="Path_158615" data-name="Path 158615" d="M128.078,34.461l15.307,11.481c-.861,1.194-1.566,2.2-2.3,3.19Q127.25,67.6,113.414,86.054q-8.23,11-16.406,22.047a9.161,9.161,0,0,1-3.771,3.118c-4.177,1.812-8.31,3.727-12.479,5.556-.782.342-1.594,1.142-2.518.42-.954-.745-.8-1.853-.66-2.882.476-3.4.988-6.8,1.481-10.2a14.459,14.459,0,0,0,.332-2.708c-.1-2.038.94-3.551,2.067-5.053q19.952-26.616,39.906-53.231,2.685-3.581,5.381-7.155c.346-.457.76-.862,1.331-1.5" fill="#1a1818"/>
    <path id="Path_158616" data-name="Path 158616" d="M61.935,39.86q-14.994,0-29.984,0A5.057,5.057,0,0,1,26.728,34.6c.05-2.252,2.34-4.447,4.874-4.667.289-.025.579-.018.87-.018q29.487,0,58.971,0A5.347,5.347,0,0,1,95.692,31.6c1.205,1.384,2.019,2.919,1.125,4.873a5.1,5.1,0,0,1-4.775,3.368c-4.146.058-8.294.016-12.44.016H61.935" fill="#1a1818"/>
    <path id="Path_158617" data-name="Path 158617" d="M61.811,56.787q14.931,0,29.863-.009a5.015,5.015,0,0,1,4.245,1.927c1.071,1.4,1.712,2.877.846,4.712a5.458,5.458,0,0,1-4.6,3.311,6.181,6.181,0,0,1-.746.007q-29.489,0-58.979.01a5.915,5.915,0,0,1-4.561-1.887,4.2,4.2,0,0,1-.811-4.849A4.941,4.941,0,0,1,31.7,56.8c7.259-.023,14.517-.009,21.775-.009h8.337" fill="#1a1818"/>
    <path id="Path_158618" data-name="Path 158618" d="M84.469,83.663c-2.409,3.175-4.656,6.2-6.99,9.147a2.4,2.4,0,0,1-1.671.768q-21.771.063-43.542.027a5.393,5.393,0,0,1-5.091-2.971,4.4,4.4,0,0,1,.436-4.809,5.006,5.006,0,0,1,4.364-2.168q24.321.017,48.643.006h3.851" fill="#1a1818"/>
    <path id="Path_158619" data-name="Path 158619" d="M47.343,110.484c4.766,0,9.533-.007,14.3.007a9.828,9.828,0,0,1,2.219.177,4.646,4.646,0,0,1,3.843,5.161,5.224,5.224,0,0,1-5.139,4.636c-1.986.076-3.978.021-5.967.021-7.834,0-15.668.046-23.5-.043a9.354,9.354,0,0,1-4.013-.981,4.476,4.476,0,0,1-2.3-5.054,5.212,5.212,0,0,1,4.394-3.861c1.525-.124,3.064-.079,4.6-.083,3.854-.009,7.709,0,11.563,0Z" fill="#1a1818"/>
    <path id="Path_158620" data-name="Path 158620" d="M146.465,42.119c-5.135-3.766-10.032-7.369-14.946-10.948-.641-.467-.822-.889-.208-1.485a32.236,32.236,0,0,1,4.01-3.817,5.885,5.885,0,0,1,6.989.159c1.607,1.095,3.106,2.349,4.718,3.435,3.41,2.3,3.318,6.467,1.75,9.286a40.594,40.594,0,0,1-2.313,3.37" fill="#1a1818"/>
  </g>
</svg>
