<svg id="Group_143560" data-name="Group 143560" xmlns="http://www.w3.org/2000/svg" xmlns:xlink="http://www.w3.org/1999/xlink" width="277.972" height="208.522" viewBox="0 0 277.972 208.522">
  <defs>
    <clipPath id="clip-path">
      <rect id="Rectangle_60595" data-name="Rectangle 60595" width="277.972" height="208.522" fill="none"/>
    </clipPath>
  </defs>
  <g id="Group_143559" data-name="Group 143559" clip-path="url(#clip-path)">
    <path id="Path_158621" data-name="Path 158621" d="M157.215,88.479c1.667-.366,3.221-.731,4.786-1.043,1.4-.277,2.846-.37,4.209-.763,3.984-1.148,8.066-1.033,12.091-.738,5.635.414,10.75,2.225,14.344,6.988a15.719,15.719,0,0,1,3.134,8.635,25.113,25.113,0,0,1-.812,7.907c-.539,2.123-1.457,4.149-2.209,6.218a16.622,16.622,0,0,0-.726,2.014,4.417,4.417,0,0,0-.094,1.929,3.038,3.038,0,0,0,4.627,1.925,53.394,53.394,0,0,0,5.034-3.107c4.187-2.853,7.734-6.436,11.388-9.916,5.353-5.1,10.99-9.889,17.517-13.477,3.64-2,7.485-3.58,11.71-3.47,5.318.139,9.148,2.8,11.416,7.6a19.844,19.844,0,0,1,2,9.814,34.623,34.623,0,0,0,.814,8.438,11.114,11.114,0,0,0,1.629,3.245,1.2,1.2,0,0,0,.877.382,12.973,12.973,0,0,0,4.912-1.006c1.885-.653,3.56-1.9,5.762-1.735a5.854,5.854,0,0,1,5.3,5.35,5.757,5.757,0,0,1-3.79,6.006c-1.54.682-3.137,1.231-4.7,1.859a17.845,17.845,0,0,1-7.175,1.249,13.455,13.455,0,0,1-11.814-6.734c-1.787-2.922-2.411-6.18-3.041-9.488-.555-2.912-.322-5.816-.508-8.718a21,21,0,0,0-.887-3.892.88.88,0,0,0-1.139-.665,20.538,20.538,0,0,0-3.8,1.181,48.749,48.749,0,0,0-6.46,3.682,80.373,80.373,0,0,0-7.06,5.729c-3.246,2.9-6.278,6.037-9.572,8.875-5.309,4.574-10.88,8.818-17.629,11.1a19.509,19.509,0,0,1-6.506,1.424c-4.223-.113-8.066-1.45-10.185-5.614a13.564,13.564,0,0,1-1.466-5.753c-.184-4.753,1.379-9.062,3.043-13.356a22.46,22.46,0,0,0,1.863-7.182c.086-2.08-.48-3.861-2.48-4.774a9.25,9.25,0,0,0-3.532-.957,61.72,61.72,0,0,0-8.913.312,84.589,84.589,0,0,0-9.2,1.972,14.208,14.208,0,0,1-2.318.642c-.289.023-.712.723-.751,1.142-.181,1.994-.222,4-.367,6-.151,2.082-.465,4.156-.53,6.24-.146,4.679-1.115,9.249-1.7,13.869-.188,1.471-.348,2.95-.621,4.407s-.709,2.879-1,4.331A110.771,110.771,0,0,1,146.606,156c-.285.707-.542,1.424-.856,2.252H271.925a5.873,5.873,0,0,1,5.833,4.176,5.788,5.788,0,0,1-5.543,7.514c-2.833.127-5.675.048-8.513.048q-49.942,0-99.883-.008H143c-.715,0-1.432-.034-2.143.017a.878.878,0,0,0-.615.409,126.055,126.055,0,0,1-9.37,15.687,68.274,68.274,0,0,1-11.752,13.19,38.628,38.628,0,0,1-14.448,8.041,29.388,29.388,0,0,1-10.354,1.108c-.667-.055-1.306-.411-1.975-.509a30.718,30.718,0,0,1-13.062-5.364,25.309,25.309,0,0,1-9.465-12.953,35.43,35.43,0,0,1-1.59-14.732c.106-1.339.3-2.672.5-4,.115-.766-.288-.864-.9-.864-4.445,0-8.889-.025-13.334-.025q-23.96,0-47.919.013c-2.338,0-4.4-.606-5.688-2.709a6.065,6.065,0,0,1-.233-5.928,5.374,5.374,0,0,1,5.158-3.1q32.649-.026,65.3-.01h1.069c6.06-15.337,15.658-28.1,27.786-39.212-.261-.2-.511-.413-.775-.6a137.249,137.249,0,0,1-20.376-17.633A97.464,97.464,0,0,1,64.984,82.151a73.013,73.013,0,0,1-6.9-16.313c-.847-3.017-1.366-6.126-2.235-9.136-.705-2.44-.5-4.935-.8-7.395a48.045,48.045,0,0,1-.351-6.675c.035-2.281.273-4.565.52-6.837a40.48,40.48,0,0,1,9.317-22.1A36.963,36.963,0,0,1,76.866,4.131,51.418,51.418,0,0,1,86.741.814C90.984-.271,95.268-.021,99.527.16a37.041,37.041,0,0,1,7.213,1.449,53.352,53.352,0,0,1,22.3,12.042,67.4,67.4,0,0,1,13.512,16.268,73.547,73.547,0,0,1,6.366,13.28c.845,2.395,1.76,4.767,2.51,7.191.649,2.1,1.192,4.233,1.633,6.382.81,3.94,1.522,7.9,2.254,11.857a116.005,116.005,0,0,1,1.233,11.92c.187,2.337.32,4.679.491,7.018a7.051,7.051,0,0,0,.177.913M66.236,43.288c.2,2.292.4,3.968.494,5.65a47.217,47.217,0,0,0,1.71,10.468,95.29,95.29,0,0,0,2.923,9.11,86.289,86.289,0,0,0,4.012,8.144A75.212,75.212,0,0,0,85.57,90.972a107.232,107.232,0,0,0,16.416,14.988c2.2,1.649,4.447,3.234,6.67,4.852a1.109,1.109,0,0,0,1.463.024c3.528-2.338,6.963-4.861,10.673-6.874,5.218-2.832,10.624-5.326,16-7.857,2.582-1.215,5.285-2.17,7.914-3.289a1.233,1.233,0,0,0,.668-.841,37.76,37.76,0,0,0,.026-4.549c-.333-4.479-.7-8.958-1.155-13.426-.279-2.723-.678-5.441-1.168-8.134-.454-2.5-1.077-4.964-1.67-7.433-.471-1.965-.938-3.935-1.54-5.862-.638-2.04-1.4-4.044-2.168-6.039a67.017,67.017,0,0,0-8.078-14.987A53.886,53.886,0,0,0,119.274,20.7a41.5,41.5,0,0,0-14.608-7.55c-1.7-.48-3.45-.766-5.187-1.1a12.017,12.017,0,0,0-2.374-.274,43.594,43.594,0,0,0-8.275.578,27.563,27.563,0,0,0-13.507,6.886,24.34,24.34,0,0,0-6.387,9.643,30.864,30.864,0,0,0-1.984,7.142c-.293,2.611-.518,5.229-.716,7.262m18.5,114.917c.483.021.758.045,1.032.045q23.272,0,46.544.019a.9.9,0,0,0,1.028-.729c.239-.73.609-1.416.89-2.134,1.252-3.191,2.584-6.356,3.711-9.591.908-2.608,1.606-5.291,2.319-7.962.648-2.428,1.308-4.864,1.751-7.334.74-4.131,1.317-8.292,1.947-12.443.1-.677.122-1.366.186-2.048.152-1.624.334-3.246.454-4.873.142-1.924.232-3.853.353-5.917-8.716,3.786-17.172,7.652-25.007,12.9,1.25.7,2.521,1.3,3.659,2.087a8.163,8.163,0,0,1,2.553,2.342c1.818,3.2.945,6.094-2.143,8.084a4.738,4.738,0,0,1-5.048.262c-2.6-1.384-5.124-2.915-7.637-4.454-1.217-.745-1.21-.86-2.314.112-1.57,1.382-3.13,2.782-4.6,4.264A99.755,99.755,0,0,0,89.63,149.432c-1.709,2.821-3.224,5.759-4.9,8.773m42.32,11.831c-.819,0-1.447,0-2.074,0q-8.989-.021-17.977-.041-12.6-.014-25.2-.012c-.433,0-.85-.121-1.037.564a28.753,28.753,0,0,0-.417,13.356,13.662,13.662,0,0,0,5.44,8.952,24.149,24.149,0,0,0,7.536,3.394,15.412,15.412,0,0,0,9.5-.656,29.029,29.029,0,0,0,10.336-6.623c5.285-5.026,9.286-11.017,13.055-17.185.322-.525.54-1.113.843-1.748" transform="translate(0 0)" fill="#1a1818"/>
    <path id="Path_158622" data-name="Path 158622" d="M24.253,146.61c2.2-2.187,4.324-4.311,6.459-6.427,2.035-2.017,3.984-4.135,6.144-6.008,2.4-2.082,4.562-1.9,6.847-.406a5.508,5.508,0,0,1,1.454,8.226c-1.231,1.5-2.675,2.824-4.037,4.215-2.826,2.887-5.66,5.766-8.563,8.722a2.365,2.365,0,0,0,.292.391c3.735,3.723,7.487,7.427,11.2,11.167a6.48,6.48,0,0,1,2.312,4.878,5.889,5.889,0,0,1-4.88,5.481,6.559,6.559,0,0,1-5.855-2.2c-3.475-3.536-7-7.02-10.508-10.527-.927-.927-1.043-.905-1.984.043-3.693,3.723-7.444,7.39-11.087,11.162a6.107,6.107,0,0,1-8.352-.177,5.818,5.818,0,0,1,.251-8.244c3.9-3.839,7.783-7.7,11.686-11.535.487-.479.157-.736-.156-1.048q-3.623-3.611-7.245-7.224c-1.4-1.4-2.8-2.793-4.211-4.178a5.655,5.655,0,0,1-1.577-6.351,5.84,5.84,0,0,1,5.505-3.866,5.178,5.178,0,0,1,4,1.681q5.79,5.819,11.622,11.6c.2.2.42.384.684.625" transform="translate(-0.636 -41.106)" fill="#1a1818"/>
  </g>
</svg>
