<svg xmlns="http://www.w3.org/2000/svg" width="88.72" height="24.54" viewBox="0 0 88.72 24.54">
  <g id="Group_164996" data-name="Group 164996" transform="translate(-1380.5 -1212)">
    <g id="Group_164995" data-name="Group 164995" transform="translate(1363.563 7037.393)">
      <g id="Page-1" transform="translate(24.437 -5823.229)">
        <g id="Large-Copy-4" transform="translate(0 0)">
          <g id="Group-2">
            <g id="Group">
              <rect id="Rectangle" width="7.787" height="2.32" rx="1.16" transform="translate(12.261 3.479)" fill="#bcbaba"/>
              <rect id="Rectangle-Copy-8" width="6.462" height="2.32" rx="1.16" transform="translate(2.651 14.249)" fill="#bcbaba"/>
              <rect id="Rectangle-Copy-9" width="6.462" height="2.485" rx="1.243" transform="translate(0 10.77)" fill="#bcbaba"/>
              <rect id="Rectangle-Copy-10" width="6.462" height="2.32" rx="1.16" transform="translate(13.586 14.249)" fill="#bcbaba"/>
              <rect id="Rectangle-Copy-12" width="7.787" height="2.32" rx="1.16" transform="translate(2.651 3.479)" fill="#bcbaba"/>
              <rect id="Rectangle-Copy-19" width="2.32" height="2.32" rx="1.16" transform="translate(10.107 14.249)" fill="#bcbaba"/>
              <rect id="Rectangle-Copy-23" width="3.314" height="3.148" rx="1.574" transform="translate(9.61 6.959)" fill="#5e5e5e"/>
              <rect id="Rectangle-Copy-15" width="3.148" height="2.32" rx="1.16" transform="translate(13.918)" fill="#bcbaba"/>
              <rect id="Rectangle-Copy-16" width="3.148" height="2.32" rx="1.16" transform="translate(5.468 17.894)" fill="#bcbaba"/>
              <rect id="Rectangle-Copy-16-2" data-name="Rectangle-Copy-16" width="2.32" height="2.485" rx="1.16" transform="translate(5.799 6.959)" fill="#bcbaba"/>
              <rect id="Rectangle-Copy-16-3" data-name="Rectangle-Copy-16" width="4.474" height="2.485" rx="1.243" transform="translate(17.894 6.959)" fill="#bcbaba"/>
              <rect id="Rectangle-Copy-5" width="6.296" height="2.485" rx="1.243" transform="translate(16.237 10.77)" fill="#bcbaba"/>
              <rect id="Rectangle-Copy-14" width="6.959" height="2.32" rx="1.16" transform="translate(5.468)" fill="#bcbaba"/>
              <rect id="Rectangle-Copy-17" width="6.959" height="2.32" rx="1.16" transform="translate(10.107 17.894)" fill="#bcbaba"/>
              <rect id="Rectangle-Copy-7" width="4.142" height="2.485" rx="1.243" transform="translate(0.663 6.959)" fill="#bcbaba"/>
              <rect id="Rectangle-Copy-6" width="2.32" height="2.485" rx="1.16" transform="translate(14.415 6.959)" fill="#bcbaba"/>
              <rect id="Rectangle-Copy-24" width="6.296" height="2.485" rx="1.243" transform="translate(8.119 10.77)" fill="#5e5e5e"/>
            </g>
            <path id="Combined-Shape" d="M236.688,45.061a1.882,1.882,0,0,1-1.988-2.123V36H232v7.312c0,2.4,1.775,3.993,4.688,3.993s4.688-1.594,4.688-3.993V36h-2.708v6.938A1.888,1.888,0,0,1,236.688,45.061Zm8.162,1.884.71-2.51h3.366l.7,2.51h2.808L248.95,36h-3.223l-3.51,10.945Zm2.473-8.571,1.133,4.145h-2.409l1.156-4.145Zm14.128,6.471h-4.872V42.406h4.708v-1.94h-4.708V38.1h4.872V36h-7.573V46.945h7.573Zm5.614,2.1V36h-3.125V46.945ZM269.689,36V46.945h4.359c3.432,0,5.017-2.109,5.017-5.516,0-3.376-1.545-5.428-5.017-5.428Zm2.692,2.1h1.244c2.082,0,2.684,1.467,2.684,3.392,0,2.7-1.13,3.352-2.684,3.352H272.38Z" transform="translate(-203.418 -31.546)" fill="#5e5e5e"/>
          </g>
        </g>
      </g>
    </g>
    <rect id="Rectangle_67984" data-name="Rectangle 67984" width="88.72" height="24.54" transform="translate(1380.5 1212)" fill="rgba(0,0,0,0)"/>
  </g>
</svg>
