<svg id="Group_114474" data-name="Group 114474" xmlns="http://www.w3.org/2000/svg" xmlns:xlink="http://www.w3.org/1999/xlink" width="1685.329" height="334.125" viewBox="0 0 1685.329 334.125">
  <defs>
    <clipPath id="clip-path">
      <rect id="Rectangle_49799" data-name="Rectangle 49799" width="1685.329" height="334.125" fill="none"/>
    </clipPath>
    <clipPath id="clip-path-2">
      <rect id="Rectangle_49789" data-name="Rectangle 49789" width="1685.327" height="334.125" fill="none"/>
    </clipPath>
    <clipPath id="clip-path-3">
      <path id="Path_110438" data-name="Path 110438" d="M238.491,72.938a8.706,8.706,0,0,0,0,16.235V106.42H208.21a3.145,3.145,0,0,0,0,6.291v.017h36.572V89.173a8.706,8.706,0,1,0-6.291-16.235" transform="translate(-205.07 -72.347)" fill="none"/>
    </clipPath>
    <linearGradient id="linear-gradient" x1="-2.929" y1="7.086" x2="-2.915" y2="7.086" gradientUnits="objectBoundingBox">
      <stop offset="0" stop-color="#dc7a27"/>
      <stop offset="0.054" stop-color="#dc7a27"/>
      <stop offset="1" stop-color="#d66627"/>
    </linearGradient>
    <clipPath id="clip-path-4">
      <path id="Path_110439" data-name="Path 110439" d="M311.745,110.371a8.706,8.706,0,0,0-4.972,4.972H261.208v22.175H247.993V158.65H208.21a3.145,3.145,0,0,0,0,6.291v.008h46.074V143.826h29.361a8.706,8.706,0,1,0-.41-6.291H267.5v-15.9h39.274a8.71,8.71,0,1,0,4.972-11.263" transform="translate(-205.07 -109.781)" fill="none"/>
    </clipPath>
    <linearGradient id="linear-gradient-2" x1="-1.136" y1="4.737" x2="-1.131" y2="4.737" xlink:href="#linear-gradient"/>
    <clipPath id="clip-path-5">
      <path id="Path_110440" data-name="Path 110440" d="M283.369,247.4a8.7,8.7,0,0,0-4.972,4.971H208.21a3.145,3.145,0,0,0,0,6.291H278.4a8.712,8.712,0,1,0,4.972-11.262" transform="translate(-205.07 -246.813)" fill="none"/>
    </clipPath>
    <linearGradient id="linear-gradient-3" x1="-1.489" y1="9.183" x2="-1.482" y2="9.183" xlink:href="#linear-gradient"/>
    <clipPath id="clip-path-6">
      <path id="Path_110441" data-name="Path 110441" d="M312.837,191.4l.066.017a8.7,8.7,0,0,0-7.769,4.78h-38.7v14.783H208.123a3.145,3.145,0,0,0,0,6.291h64.57v-14.8H304.46a8.706,8.706,0,1,0,8.378-11.071h0" transform="translate(-204.983 -191.404)" fill="none"/>
    </clipPath>
    <linearGradient id="linear-gradient-4" x1="-1.156" y1="8.009" x2="-1.151" y2="8.009" xlink:href="#linear-gradient"/>
    <clipPath id="clip-path-7">
      <path id="Path_110442" data-name="Path 110442" d="M252.19,294.252H208.21a3.145,3.145,0,0,0,0,6.291h13.568V320.09H292.63a8.7,8.7,0,1,0-.838-6.292H228.06V300.543h24.13a3.145,3.145,0,0,0,.011-6.291Z" transform="translate(-205.07 -294.252)" fill="none"/>
    </clipPath>
    <linearGradient id="linear-gradient-5" x1="-1.293" y1="4.403" x2="-1.287" y2="4.403" xlink:href="#linear-gradient"/>
    <clipPath id="clip-path-8">
      <path id="Path_110443" data-name="Path 110443" d="M274.89,352.786a8.705,8.705,0,0,0-8.114,5.56H208.21a3.145,3.145,0,0,0,0,6.291h58.566a8.706,8.706,0,1,0,8.118-11.851h0" transform="translate(-205.07 -352.786)" fill="none"/>
    </clipPath>
    <linearGradient id="linear-gradient-6" x1="-1.707" y1="5.398" x2="-1.698" y2="5.398" xlink:href="#linear-gradient"/>
    <clipPath id="clip-path-9">
      <path id="Path_110444" data-name="Path 110444" d="M250.342,385.442a8.707,8.707,0,0,0-8.139,5.617,3.071,3.071,0,0,0-.567-.057H208.21a3.145,3.145,0,0,0,0,6.291h33.426a3.378,3.378,0,0,0,.567-.057,8.706,8.706,0,1,0,8.139-11.8Z" transform="translate(-205.07 -385.433)" fill="none"/>
    </clipPath>
    <linearGradient id="linear-gradient-7" x1="-2.467" y1="4.233" x2="-2.455" y2="4.233" xlink:href="#linear-gradient"/>
    <clipPath id="clip-path-11">
      <rect id="Rectangle_49797" data-name="Rectangle 49797" width="131.387" height="321.209" fill="none"/>
    </clipPath>
  </defs>
  <g id="Group_114473" data-name="Group 114473" clip-path="url(#clip-path)">
    <g id="Group_114453" data-name="Group 114453">
      <g id="Group_114452" data-name="Group 114452" clip-path="url(#clip-path-2)">
        <path id="Path_110434" data-name="Path 110434" d="M2107.42,0a8.162,8.162,0,0,0,1.562.513c7.775.926,15.7,7.615,17.805,15.158a23.37,23.37,0,0,1,.807,4.849,73.919,73.919,0,0,1-.089,14.765,57.69,57.69,0,0,1-3.54,12.517c-2.583,6.753-5.087,13.545-7.961,20.176-2.075,4.788-4.693,9.341-7.072,14-1.135,2.22-2.329,4.412-3.4,6.661a51.573,51.573,0,0,1-5.817,9.23c-2.871,3.784-6.5,7.521-9.476,11.226a18.039,18.039,0,0,1-3.19,3.1c-3.346,3.8-7.473,6.422-11.551,9.653-3.771,2.987-9.02,4.532-13.51,6.066a64.435,64.435,0,0,1-14.142,3.1c-1.1.116-2.194.645-3.291-.008a9.745,9.745,0,0,1-.945-.544,1.145,1.145,0,0,1-.3-1.81,3.075,3.075,0,0,1,2.772-1.517c12.528-.52,23.411-4.9,32.238-13.972a160.39,160.39,0,0,0,16.469-19.418,113.9,113.9,0,0,0,17.88-39.47c1.751-7.359,3.231-14.784,4.708-22.2a47.4,47.4,0,0,0,.864-10.168c-.1-5.113-2.561-8.252-7.528-9.47a31.961,31.961,0,0,0-13.052-.1c-9.024,1.505-17.211,5.122-25,9.77a266.555,266.555,0,0,0-33.134,22.837,180.6,180.6,0,0,0-20.043,19.459c-4.087,4.593-8.254,9.126-12.157,13.874a137.846,137.846,0,0,0-18.844,28.91,61.612,61.612,0,0,0-5.448,17.612c-1.3,9.274,1.942,16.708,9.2,22.481a38.613,38.613,0,0,0,15.844,7.115,69.469,69.469,0,0,0,11.491,1.456c8.79.509,17.58,1.027,26.373,1.475,5.081.259,10.168.4,15.253.556a2.836,2.836,0,0,0,1.617-.43c15.2-10.683,30.43-21.324,44.824-33.088a67.178,67.178,0,0,1,10.924-6.758,163.25,163.25,0,0,1,22.6-10.419,56.083,56.083,0,0,1,12.01-2.971c7.028-.869,11.465,4.788,11.76,10.091a13.682,13.682,0,0,1-1.467,6.162c-.375.861-.875,1.668-1.291,2.513-.289.588-.675.536-.941.08a2.84,2.84,0,0,1-.469-1.475c.123-2.065.341-4.124.542-6.184a6.762,6.762,0,0,0-3.476-6.823,2.841,2.841,0,0,0-1.276-.4,28.05,28.05,0,0,0-13.319,2.526c-9.024,4.042-18.066,8.061-26.5,13.255-3.232,1.99-6.252,4.331-9.315,6.587q-15.3,11.271-30.545,22.612c-2.048,1.526-3.952,3.247-5.914,4.888a3.376,3.376,0,0,0-.424.625c.755.18,1.385.367,2.029.479a81.656,81.656,0,0,1,14.02,3.268c4.836,1.763,9.4,4.022,13.118,7.711a11.61,11.61,0,0,1,3.765,6.93,29.549,29.549,0,0,1-.173,6.819c-.826,6.4-3.816,11.853-7.784,16.84a153.972,153.972,0,0,1-18.192,19.23c-8.587,7.631-17.832,14.357-28.494,18.9a63.929,63.929,0,0,1-11.907,3.4,52.086,52.086,0,0,1-17.691,1.1,17.56,17.56,0,0,1-8.522-3.243c-3.124-2.367-4.419-5.664-4.965-9.413-.884-6.066.85-11.49,3.907-16.607a143.214,143.214,0,0,1,12.523-16.951c1.948-2.381,3.938-4.726,5.949-7.053,3.98-4.606,8.732-8.394,13.272-12.4s9.118-7.982,13.677-11.973a7.254,7.254,0,0,0,.713-.708c.658-.76.456-1.539-.529-1.8a12,12,0,0,0-2.429-.379c-4.352-.214-8.707-.363-13.058-.584-2.829-.143-5.656-.345-8.481-.563-4.37-.337-8.74-.67-13.1-1.075a81.971,81.971,0,0,1-24.949-5.827,44.777,44.777,0,0,1-12.647-7.711c-4.566-4.119-7.636-9.118-8.242-15.307-.379-3.864-.393-7.772-.4-11.66a33.847,33.847,0,0,1,3.7-15.834c2.179-4.209,4.529-8.339,6.982-12.4,3.556-5.884,7.25-11.685,10.937-17.488a20.432,20.432,0,0,1,2.6-3.282c9.42-9.662,18.817-19.349,28.355-28.894a77.141,77.141,0,0,1,7.875-6.367c7.64-5.851,15.224-11.783,23.021-17.421a76.256,76.256,0,0,1,10.174-5.7,140.331,140.331,0,0,1,25-10.1A43.066,43.066,0,0,1,2102.117.529a1.045,1.045,0,0,0,.617-.19L2101.2,0Zm-83.142,237.393,0,.193c1.825-.1,3.672-.057,5.468-.336a39.561,39.561,0,0,0,5.475-1.368,63.692,63.692,0,0,0,7.587-2.568,112.624,112.624,0,0,0,18.754-10.516q1.6-1.132,3.158-2.329c2.505-1.929,5.1-3.759,7.465-5.847,2.782-2.457,5.436-5.071,8-7.752,2.775-2.9,5.4-5.941,8.062-8.942a27.15,27.15,0,0,0,2.031-2.575c1.088-1.574,2.174-3.156,3.151-4.8,2.154-3.623,3.818-7.411,3.535-11.775a8.7,8.7,0,0,0-3.534-6.544,29.275,29.275,0,0,0-10.668-5,112.509,112.509,0,0,0-13.584-2.708c-1.5-.181-2.991-.436-4.492-.593a1.437,1.437,0,0,0-.946.37c-1.085.931-2.123,1.919-3.2,2.865-3.174,2.8-6.407,5.527-9.522,8.386-3.88,3.56-7.721,7.164-11.473,10.858-2.992,2.946-5.825,6.052-8.727,9.089a79.438,79.438,0,0,0-9.408,11.148,10.372,10.372,0,0,1-1.315,1.515,38.023,38.023,0,0,0-5.948,8.72,21.419,21.419,0,0,0-2.888,9.41,16.36,16.36,0,0,0,.312,5.017,6.206,6.206,0,0,0,2.017,3.291,10.632,10.632,0,0,0,6.115,2.768c1.515.1,3.042.019,4.563.019" transform="translate(-664.319)" fill="#de5227"/>
        <path id="Path_110435" data-name="Path 110435" d="M2310.187,235.158c.172-.282.339-.566.517-.844a57.643,57.643,0,0,1,7.542-9.683c1.729-1.745,3.317-3.631,5.053-5.368a33.979,33.979,0,0,1,3.784-3.288,17.927,17.927,0,0,1,3.6-2.1,4.98,4.98,0,0,1,5.919,1.8,2.056,2.056,0,0,1-.044,2.812.415.415,0,0,0-.085.253c-.138,2.446-1.5,4.441-2.41,6.6-.745,1.766-1.367,3.583-2.069,5.368-.2.5-.519.96-.728,1.461-1.162,2.8-2.34,5.585-3.435,8.408-.266.688-.059,1.578-.38,2.221-.79,1.585-.372,3.221-.524,5.021.4-.2.691-.314.955-.473,3.569-2.152,7.176-4.244,10.69-6.482a90.95,90.95,0,0,1,13.095-6.977c3.409-1.457,6.767-3.058,10.249-4.314,3.393-1.223,6.914-2.088,10.379-3.112a39.445,39.445,0,0,1,4.231-1.217c1.623-.286,3.1-1.057,4.835-1.058a16.247,16.247,0,0,0,4.068-1.056,9.1,9.1,0,0,1,.962-.25c1.794-.29,3.6-.544,5.386-.853,2.238-.387,4.462-.852,6.7-1.219a113.312,113.312,0,0,1,15.79-1.341c3.855-.088,7.7-.639,11.552-.943,1.023-.081,2.058-.013,3.088-.013-.064,1.029-.375,1.3-1.371,1.373-2.883.209-5.764.455-8.647.674-.576.044-1.162-.011-1.733.063-.685.088-1.356.276-2.038.4-.654.119-1.31.233-1.97.314-1.442.175-2.887.328-4.33.491-.724.082-1.451.149-2.174.247-1.046.143-2.089.308-3.133.465-.18.027-.358.073-.538.1-2.374.3-4.758.538-7.119.918-2.244.362-4.479.808-6.689,1.334-4.933,1.174-9.88,2.314-14.764,3.67-4.3,1.194-8.514,2.676-12.776,4.005a67.254,67.254,0,0,0-10.417,4.513c-2.61,1.328-5.087,2.918-7.636,4.367-.791.449-1.68.739-2.431,1.24-1.867,1.247-3.694,2.558-5.514,3.875-2.455,1.776-4.727,3.8-7.441,5.228a3.706,3.706,0,0,1-5.406-2.587,17.27,17.27,0,0,1-.428-6.334c.25-1.338.152-2.741.393-4.081.322-1.794.452-3.6.651-5.4.12-1.089.645-2.2.882-3.351a32.712,32.712,0,0,1,1.068-3.646c.226-.68.562-1.324.865-2.023-.532-.227-1.024-.355-1.457.2-1.843,2.339-3.771,4.617-5.515,7.028-1.845,2.548-3.543,5.2-5.258,7.844q-3.58,5.508-7.083,11.067c-.454.716-.791,1.5-1.192,2.253-1.464,2.735-5.824,4.221-8.092,1.694a2.407,2.407,0,0,1-.612-1.178,47.807,47.807,0,0,1-.566-5.343c-.04-1.631.23-3.267.321-4.9.094-1.67.1-3.345.217-5.012a16.284,16.284,0,0,1,.453-2.209c.088-.41.191-.818.266-1.231.2-1.1.391-2.206.582-3.31.318-1.832.633-3.664.976-5.649-2.111,1.45-4.061,2.769-5.99,4.12-1.607,1.126-3.194,2.282-4.78,3.44-.391.286-.728.645-1.109.946-.738.582-1.464,1.186-2.243,1.708a2.474,2.474,0,0,0-1.373,2.365,10.494,10.494,0,0,1-.322,2.428c-.368,2.044-.71,4.093-1.154,6.121-.58,2.652-1.242,5.288-1.881,7.927-.339,1.4-.661,2.8-1.068,4.183q-.925,3.139-1.965,6.245c-.679,2.043-1.377,4.083-2.139,6.1-1.341,3.543-2.642,7.106-4.136,10.585-1.446,3.367-3.032,6.68-4.709,9.937-1.176,2.286-2.569,4.466-3.945,6.644-.728,1.151-1.774,2.115-2.418,3.3a28.509,28.509,0,0,1-5.67,7.744c-1.108,1.012-1.853,2.41-2.9,3.5a25.2,25.2,0,0,1-3.033,2.549c-.547.415-1.229.648-1.809,1.025-2.832,1.841-5.65,3.7-8.473,5.557a5.694,5.694,0,0,1-6.828,0,7.83,7.83,0,0,0-.855-.525c-2.21-1.113-3.045-3.007-3.385-5.367a27.639,27.639,0,0,1,.659-9.141c.3-1.581.763-3.129,1.094-4.7.677-3.235,2.322-6.062,3.758-8.972,2.178-4.416,4.278-8.882,6.71-13.157a97.343,97.343,0,0,1,6.195-9.119c2.2-3.009,4.474-5.971,6.869-8.825a187.418,187.418,0,0,1,12.9-13.811c1.614-1.571,3.213-3.16,4.745-4.811a2.945,2.945,0,0,0,.6-1.608c.118-1.069-.146-2.17.654-3.14.257-.311.1-.942.19-1.416.436-2.349.9-4.693,1.33-7.044a2.891,2.891,0,0,0-.185-1.439c-.653.815-1.319,1.621-1.951,2.451-.175.229-.2.566-.377.8-1.835,2.461-3.656,4.934-5.537,7.359-2.251,2.9-4.7,5.659-6.791,8.671a40.333,40.333,0,0,1-5.55,6.135c-1.434,1.365-3.219,2.391-5.243,1.981a11.883,11.883,0,0,1-4.191-1.869,10.237,10.237,0,0,1-3.82-5.826,17.2,17.2,0,0,1-.092-9.268,11.055,11.055,0,0,0,.158-1.575l-.25-.117q-2.11,2.43-4.223,4.859a84.009,84.009,0,0,1-9.506,9.716,28.669,28.669,0,0,1-6.182,3.981,2.31,2.31,0,0,1-.882.161c-.67.023-1.343-.03-2.01.014-2.886.188-4.784-1.4-6.2-3.612-2.624-4.085-3.07-8.621-2.515-13.335.16-1.355.162-2.728.307-4.085.123-1.165.327-2.324.53-3.479a40.111,40.111,0,0,1,.934-4.816c.726-2.371,1.652-4.683,2.531-7.006a29.351,29.351,0,0,1,1.28-2.916q2.226-4.378,4.531-8.715a4.82,4.82,0,0,1,1.164-1.274,1.138,1.138,0,0,1,.823-.2c.9.142,1.8.319,2.678.547a7.449,7.449,0,0,1,4.58,3.528,3.5,3.5,0,0,1,.325,3.294c-1.207,3.145-2.312,6.329-3.489,9.485-.813,2.182-1.69,4.341-2.52,6.517-.54,1.419-1.073,2.841-1.562,4.279a27.937,27.937,0,0,0-1.774,11.424c.178,2.123,1.693,3.182,3.657,2.375a21.844,21.844,0,0,0,6.63-4.619c2.518-2.391,5.038-4.789,7.41-7.321,2.16-2.306,4.125-4.795,6.174-7.2.591-.694,1.229-1.357,1.749-2.1a12.548,12.548,0,0,0,.926-1.843,6.161,6.161,0,0,1,.263-.677c1.058-1.655,2.069-3.346,3.22-4.935.995-1.373,2.139-2.64,3.246-3.93,1.125-1.312,2.22-2.658,3.446-3.872a28.729,28.729,0,0,1,3.983-3.449c4.008-2.717,8.336-3.65,12.9-1.5a25.6,25.6,0,0,1,3.671,2.528,35.314,35.314,0,0,1,3.59-2.335,5.116,5.116,0,0,1,4.99.21,12.621,12.621,0,0,1,2.6,2.075,2.178,2.178,0,0,1,.473,1.5c-.088,1.695-.3,3.384-.456,5.076-.124,1.361-.235,2.723-.345,4.085-.273,3.36-.862,6.7-.645,10.091.015.231,0,.464,0,.815.885-.585,1.676-1.072,2.429-1.613,2.121-1.522,4.2-3.106,6.347-4.589,1.445-1,2.991-1.847,4.468-2.8.765-.494,1.481-1.064,2.213-1.609a1.182,1.182,0,0,0,.381-.39c.53-1.146,1.085-2.284,1.546-3.457.687-1.748,1.291-3.527,1.954-5.284.32-.851.724-1.671,1.033-2.526a2.858,2.858,0,0,1,2.7-2.028c1.158-.035,2.318-.037,3.474.012a2.1,2.1,0,0,1,1.085.388,5.772,5.772,0,0,1,2.081,5.9c-.622,2.367-1.254,4.731-1.845,7.1-.327,1.315-.519,2.665-.88,3.969-.375,1.348-.938,2.644-1.314,3.991-.336,1.208-.524,2.456-.79,3.683-.115.53-.309,1.048-.377,1.582a12.451,12.451,0,0,0-.014,1.566l.45.224m-41.592,15.175a2.629,2.629,0,0,0-.53.174,5.438,5.438,0,0,0-.464.434c-3.966,4.117-8.313,7.865-11.8,12.447-1.614,2.121-3.455,4.068-5.191,6.1-.119.138-.215.294-.322.442-1.085,1.5-2.174,2.994-3.253,4.5-1.679,2.34-3.461,4.616-5,7.044a83.431,83.431,0,0,0-8.358,16.878c-1.478,4.173-2.758,8.392-2.5,12.886a11.127,11.127,0,0,0,.792,3.518c.738,1.806,1.949,2.108,3.543.966,1.58-1.131,3.1-2.351,4.593-3.595a2.292,2.292,0,0,0,.529-1.2,4.983,4.983,0,0,0,.018-1.135c1.272-.036,1.3,0,2.207-.925a30.2,30.2,0,0,0,4.315-5.019c1.377-2.21,3.149-4.19,4.4-6.463,2.187-3.987,4.255-8.055,6.093-12.213,1.819-4.117,3.362-8.361,4.893-12.6,1.089-3.012,1.964-6.1,2.918-9.162.287-.92.548-1.852.764-2.792.391-1.7.726-3.41,1.114-5.11.221-.971.51-1.926.748-2.893.171-.692.307-1.391.5-2.278m-17.432-1.7a14.62,14.62,0,0,0,1.866-1.175,34.975,34.975,0,0,0,6.942-8.244c1.8-2.908,3.5-5.88,5.148-8.878,1.238-2.255,2.312-4.6,3.475-6.9.781-1.541,1.612-3.057,2.364-4.611.136-.283.139-.875-.042-1.022-.709-.573-3.477-.292-4.167.369a29.643,29.643,0,0,0-4.036,4.672c-1.961,2.875-4.1,5.634-6.226,8.389a42.572,42.572,0,0,0-5.875,10.711,8.786,8.786,0,0,0-.54,5.72,1.152,1.152,0,0,0,1.089.965" transform="translate(-743.588 -69.331)" fill="#de5227"/>
        <path id="Path_110436" data-name="Path 110436" d="M2229.179,191.392a7.223,7.223,0,0,1,7.1-7.048,7.129,7.129,0,1,1,.031,14.258,7.135,7.135,0,0,1-7.129-7.21" transform="translate(-750.986 -62.103)" fill="#de5227"/>
        <path id="Path_110437" data-name="Path 110437" d="M208.827,18.912a21.868,21.868,0,0,1,3.729.263,30.476,30.476,0,0,1,3.663.822c2.4.731,4.739,1.5,7.1,2.259l14.151,4.575L265.758,36l56.522,18.43,7.055,2.324,1.766.583.961.329.993.361a27.623,27.623,0,0,1,4.066,1.946,17.55,17.55,0,0,1,3.918,3.186,14.99,14.99,0,0,1,2.809,4.509,19.087,19.087,0,0,1,1.24,4.739,4.61,4.61,0,0,0,.082.575l.049.559.09,1.117v2.094l.279,29.706.239,29.723.09,29.747q0,14.873-.164,29.764l-.23,14.889v1.856l-.09,2c0,.674-.058,1.347-.1,2.013l-.206,2c-.074.665-.115,1.339-.23,2l-.312,1.987c-.188,1.33-.517,2.628-.821,3.942-.131.657-.3,1.306-.485,1.946l-.525,1.938c-.37,1.281-.822,2.538-1.216,3.811s-.92,2.464-1.42,3.712l-.822,1.824c-.263.607-.517,1.215-.821,1.807a94.006,94.006,0,0,1-7.86,13.543c-1.462,2.135-3.014,4.2-4.6,6.225-.821,1.019-1.643,2-2.423,2.99s-1.643,1.913-2.463,2.874c-1.684,1.9-3.285,3.835-5.1,5.634l-2.62,2.743-1.314,1.371c-.444.452-.9.879-1.355,1.322a217.884,217.884,0,0,1-22.922,19.711c-.986.78-2.029,1.487-3.039,2.225l-3.055,2.2c-.509.369-1.019.739-1.536,1.092l-1.561,1.06-3.113,2.1c-2.061,1.421-4.2,2.727-6.308,4.107-1.059.665-2.1,1.355-3.178,2l-3.211,1.922q-12.887,7.663-26.282,14.258c-2.242,1.092-4.459,2.209-6.7,3.285l-6.743,3.17-6.784,3.064a28.663,28.663,0,0,1-3.491,1.388,10.436,10.436,0,0,1-3.712.452,10.15,10.15,0,0,0,3.556-.887,28.106,28.106,0,0,0,3.285-1.725l6.406-3.778,6.381-3.8,6.349-3.852c8.435-5.174,16.754-10.5,24.828-16.122a271.355,271.355,0,0,0,44.645-37.87c.419-.444.822-.871,1.257-1.322l1.208-1.363,2.406-2.727c1.643-1.79,3.129-3.7,4.665-5.576.755-.945,1.544-1.873,2.291-2.809s1.47-1.889,2.168-2.858c1.412-1.922,2.784-3.869,4.057-5.864a91.013,91.013,0,0,0,6.718-12.32c.255-.525.468-1.059.682-1.6l.649-1.643c.41-1.076.772-2.168,1.166-3.285s.682-2.193.969-3.285l.41-1.643c.14-.55.279-1.109.378-1.643.206-1.125.468-2.234.592-3.359l.238-1.643c.1-.558.107-1.125.172-1.692l.148-1.692a16.743,16.743,0,0,1,.058-1.7l.058-1.708V195.7q.057-14.841,0-29.7l.057-29.723c.066-9.913.082-19.826.206-29.739s.23-19.834.46-29.764V74.028a.968.968,0,0,0-.041-.345,9.647,9.647,0,0,0-.534-2.464,5.548,5.548,0,0,0-1.027-1.815,8.873,8.873,0,0,0-1.774-1.544,18.323,18.323,0,0,0-2.587-1.355l-.747-.3-.822-.3-1.741-.649L319.463,62.6c-18.578-6.965-37.1-14.093-55.5-21.518Q250.162,35.5,236.447,29.7q-6.849-2.9-13.675-5.888c-2.267-.994-4.542-2.028-6.8-3a25.886,25.886,0,0,0-7.145-1.905" transform="translate(-70.352 -6.37)" fill="#d66627"/>
      </g>
    </g>
    <g id="Group_114455" data-name="Group 114455" transform="translate(135.984 47.974)">
      <g id="Group_114454" data-name="Group 114454" clip-path="url(#clip-path-3)">
        <rect id="Rectangle_49790" data-name="Rectangle 49790" width="46.424" height="40.38" transform="translate(-0.003 0)" fill="url(#linear-gradient)"/>
      </g>
    </g>
    <g id="Group_114457" data-name="Group 114457" transform="translate(135.984 72.797)">
      <g id="Group_114456" data-name="Group 114456" clip-path="url(#clip-path-4)">
        <rect id="Rectangle_49791" data-name="Rectangle 49791" width="119.678" height="55.168" transform="translate(-0.003 0)" fill="url(#linear-gradient-2)"/>
      </g>
    </g>
    <g id="Group_114459" data-name="Group 114459" transform="translate(135.984 163.664)">
      <g id="Group_114458" data-name="Group 114458" clip-path="url(#clip-path-5)">
        <rect id="Rectangle_49792" data-name="Rectangle 49792" width="91.302" height="18.562" transform="translate(-0.003 0)" fill="url(#linear-gradient-3)"/>
      </g>
    </g>
    <g id="Group_114461" data-name="Group 114461" transform="translate(135.926 126.922)">
      <g id="Group_114460" data-name="Group 114460" clip-path="url(#clip-path-6)">
        <rect id="Rectangle_49793" data-name="Rectangle 49793" width="117.542" height="25.871" transform="translate(-0.003 0)" fill="url(#linear-gradient-4)"/>
      </g>
    </g>
    <g id="Group_114463" data-name="Group 114463" transform="translate(135.984 195.122)">
      <g id="Group_114462" data-name="Group 114462" clip-path="url(#clip-path-7)">
        <rect id="Rectangle_49794" data-name="Rectangle 49794" width="105.127" height="31.57" transform="translate(-0.003)" fill="url(#linear-gradient-5)"/>
      </g>
    </g>
    <g id="Group_114465" data-name="Group 114465" transform="translate(135.984 233.936)">
      <g id="Group_114464" data-name="Group 114464" clip-path="url(#clip-path-8)">
        <rect id="Rectangle_49795" data-name="Rectangle 49795" width="79.681" height="18.56" transform="translate(-0.003)" fill="url(#linear-gradient-6)"/>
      </g>
    </g>
    <g id="Group_114467" data-name="Group 114467" transform="translate(135.984 255.585)">
      <g id="Group_114466" data-name="Group 114466" clip-path="url(#clip-path-9)">
        <rect id="Rectangle_49796" data-name="Rectangle 49796" width="55.119" height="18.553" transform="translate(-0.003)" fill="url(#linear-gradient-7)"/>
      </g>
    </g>
    <g id="Group_114472" data-name="Group 114472">
      <g id="Group_114471" data-name="Group 114471" clip-path="url(#clip-path-2)">
        <g id="Group_114470" data-name="Group 114470" transform="translate(2.998 12.916)" opacity="0.29" style="isolation: isolate">
          <g id="Group_114469" data-name="Group 114469">
            <g id="Group_114468" data-name="Group 114468" clip-path="url(#clip-path-11)">
              <path id="Path_110445" data-name="Path 110445" d="M135.909,340.687a11.174,11.174,0,0,1-4.739-1.223,328.007,328.007,0,0,1-97.413-67.214c-18.364-19.194-30.93-41.295-29.05-69.7,1.265-19.119.239-38.4.239-57.605,0-23.4.246-46.814-.156-70.188C4.675,68.06,7,65.481,13.266,63.256,51.489,49.466,89.49,35.061,127.573,20.877a19.983,19.983,0,0,1,8.024-1.388" transform="translate(-4.521 -19.478)" fill="#221f1f"/>
            </g>
          </g>
        </g>
        <path id="Path_110446" data-name="Path 110446" d="M588.066,252.6l-.214-108.9-54.024,90.752h-9.823l-54.024-90.111V252.6h-20.5V103.124h17.509l62.352,105.059,61.5-105.059h17.51l.214,149.474Z" transform="translate(-151.426 -34.741)"/>
        <path id="Path_110447" data-name="Path 110447" d="M840.388,157.868,785.51,282.358c-10.036,23.916-23.062,31.39-40.358,31.39-10.89,0-21.994-3.63-29.041-10.463l8.755-15.374a28.955,28.955,0,0,0,20.286,8.328c9.823,0,16.015-4.485,21.567-17.51l3.63-7.9-49.967-112.96h21.353l39.5,90.538,39.076-90.538Z" transform="translate(-241.25 -53.184)"/>
        <path id="Path_110448" data-name="Path 110448" d="M942.859,121.7H891.611V103.125h123.636V121.7H964V252.6h-21.14Z" transform="translate(-300.374 -34.742)"/>
        <path id="Path_110449" data-name="Path 110449" d="M1213.092,252.6l-32.244-45.91c-2.989.214-6.192.427-9.4.427h-36.941V252.6h-21.354V103.125h58.294c38.864,0,62.352,19.645,62.352,52.1,0,23.062-11.958,39.717-32.884,47.191l35.447,50.181Zm-.641-97.372c0-21.354-14.307-33.525-41.639-33.525h-36.3v67.263h36.3c27.333,0,41.639-12.385,41.639-33.738" transform="translate(-375.011 -34.742)"/>
        <path id="Path_110450" data-name="Path 110450" d="M1345.331,188.11V103.124h21.354v84.132c0,33.1,15.161,48.046,42.066,48.046s42.279-14.948,42.279-48.046V103.124h20.713V188.11c0,43.348-23.7,66.2-63.206,66.2-39.291,0-63.206-22.848-63.206-66.2" transform="translate(-453.227 -34.741)"/>
        <path id="Path_110451" data-name="Path 110451" d="M1581.367,234.647l7.9-16.655c11.1,10.036,30.108,17.3,49.326,17.3,25.837,0,36.941-10.036,36.941-23.062,0-36.515-90.539-13.453-90.539-68.971,0-23.062,17.937-42.707,57.227-42.707,17.51,0,35.66,4.7,48.045,13.24l-7.046,17.082a77.194,77.194,0,0,0-41-12.172c-25.41,0-36.3,10.677-36.3,23.7,0,36.515,90.539,13.666,90.539,68.544,0,22.848-18.364,42.493-57.868,42.493-22.848,0-45.269-7.687-57.227-18.792" transform="translate(-532.745 -33.874)"/>
        <path id="Path_110452" data-name="Path 110452" d="M1817.452,121.7H1766.2V103.125h123.636V121.7h-51.249V252.6h-21.14Z" transform="translate(-595.015 -34.742)"/>
        <path id="Path_110453" data-name="Path 110453" d="M85.112,44.278q-3.386,1.266-6.771,2.532C55.962,55.17,33.567,63.487,11.1,71.594a19.4,19.4,0,0,0-4.764,2.3L85.085,44.29l.027-.012" transform="translate(-2.133 -14.917)" fill="#efbf1d"/>
        <path id="Path_110454" data-name="Path 110454" d="M1.041,151.394c0,12.656-.072,25.316-.072,37.972,0,10.337.3,20.692.373,31.032v-.007s-.161-39.952-.3-69" transform="translate(-0.326 -51.003)" fill="#efbf1d"/>
        <path id="Path_110455" data-name="Path 110455" d="M2.819,91.165C1.293,92.959.671,95.348.732,98.888c.032,1.859.054,3.717.078,5.576,0-.5-.008-.953-.012-1.336-.068-7,1.017-10.354,2.021-11.963" transform="translate(-0.245 -30.712)" fill="#efbf1d"/>
        <path id="Path_110456" data-name="Path 110456" d="M187.686,500.34a11.155,11.155,0,0,0,4.739,1.223s-4.436-1.4-11.795-4.5q3.507,1.678,7.056,3.277" transform="translate(-60.852 -167.455)" fill="#efbf1d"/>
        <path id="Path_110457" data-name="Path 110457" d="M16.036,362.965a122.282,122.282,0,0,0,18.82,24.863q1.909,1.909,3.851,3.781A211.907,211.907,0,0,1,16.159,362.6Z" transform="translate(-5.402 -122.157)" fill="#efbf1d"/>
        <path id="Path_110458" data-name="Path 110458" d="M92.715,125.219l-71.6,111.671-.658,1.923L93.6,123.824l44.863,216.86L138.12,19.52Z" transform="translate(-6.892 -6.576)" fill="#de5227"/>
        <path id="Path_110459" data-name="Path 110459" d="M3.346,324.9A127.227,127.227,0,0,1,.342,302a78.047,78.047,0,0,0,3,22.908" transform="translate(-0.112 -101.739)" fill="#efbf1d"/>
        <path id="Path_110460" data-name="Path 110460" d="M1,137.86q0-13.325-.151-26.639c.039,4.768.093,14.8.151,26.639" transform="translate(-0.287 -37.469)" fill="#efbf1d"/>
        <path id="Path_110461" data-name="Path 110461" d="M12.277,354.186h0a83.952,83.952,0,0,1-7.4-17.643c1.619,6.757,3.984,12.938,7.4,17.643" transform="translate(-1.643 -113.378)" fill="#efbf1d"/>
        <path id="Path_110462" data-name="Path 110462" d="M1.016,255.454a216.323,216.323,0,0,0-.785,30.862q.033-2.12.174-4.288c.584-8.831.677-17.7.611-26.574" transform="translate(0 -86.06)" fill="#efbf1d"/>
        <path id="Path_110463" data-name="Path 110463" d="M5.506,88.945h0s-.784.123-1.625,1.472a8.845,8.845,0,0,1,1.625-1.472" transform="translate(-1.307 -29.965)" fill="#efbf1d"/>
        <path id="Path_110464" data-name="Path 110464" d="M9.666,253.474l4.017-6.315.658-1.923-.156.243L83.069,44.3,4.316,73.9a8.84,8.84,0,0,0-1.625,1.472C1.687,76.985.6,80.341.67,87.339c0,.383.008.831.012,1.336q.173,13.314.15,26.639c.141,29.045.3,69,.3,69v.007c.066,8.876-.027,17.741-.611,26.573Q.378,213.06.348,215.18a127.109,127.109,0,0,0,3,22.908,83.883,83.883,0,0,0,7.4,17.643l.123-.361q-.608-.942-1.209-1.9" transform="translate(-0.117 -14.923)" fill="#f1a81f"/>
        <path id="Path_110465" data-name="Path 110465" d="M136.7,466.5a327.919,327.919,0,0,1-86.473-60.155c31.4,33.967,68.078,52.4,86.473,60.155" transform="translate(-16.92 -136.893)" fill="#efbf1d"/>
        <path id="Path_110466" data-name="Path 110466" d="M19.031,291.8l-2.808,8.211A211.935,211.935,0,0,0,38.77,329.02a327.96,327.96,0,0,0,86.473,60.155c7.36,3.1,11.8,4.5,11.8,4.5L92.176,176.816Z" transform="translate(-5.465 -59.567)" fill="#e88225"/>
        <path id="Path_110467" data-name="Path 110467" d="M15.609,358.433l2.808-8.211L14.4,356.537q.6.954,1.209,1.9" transform="translate(-4.851 -117.986)" fill="#efbf1d"/>
        <path id="Path_110468" data-name="Path 110468" d="M21.449,236.884l71.6-111.671,45.405-105.7a20.047,20.047,0,0,0-7.959,1.363Q110.342,28.384,90.2,35.932l-.028.012Z" transform="translate(-7.226 -6.57)" fill="#efbf1d"/>
        <path id="Path_110469" data-name="Path 110469" d="M21.214,245.48l.156-.243L90.1,44.3Z" transform="translate(-7.147 -14.923)" fill="#efbf1d"/>
      </g>
    </g>
  </g>
</svg>
